{
.appVersion = "3316";
.formatVersion = 3;
DisplayStrings = (
"ẳẩểŀổ/brevecomb_acutecomb/brevecomb_gravecomb/brevecomb_hookabovecomb/brevecomb_tildecomb/circumflexcomb_acutecomb/circumflexcomb_gravecomb/circumflexcomb_hookabovecomb/circumflexcomb_tildecomb"
);
axes = (
{
name = Weight;
tag = wght;
}
);
customParameters = (
{
name = license;
value = "This Font Software is licensed under the SIL Open Font License, Version 1.1. This license is available with a FAQ at: http://scripts.sil.org/OFL";
},
{
name = licenseURL;
value = "http://scripts.sil.org/OFL";
},
{
name = descriptions;
value = "Libre Franklin is a reinterpretation and expansion of the 1912 Morris Fuller Benton’s classic.";
},
{
name = licenses;
value = "This Font Software is licensed under the SIL Open Font License, Version 1.1. This license is available with a FAQ at: http://scripts.sil.org/OFL";
},
{
name = preferredFamilyNames;
value = "Libre Franklin";
},
{
name = fsType;
value = (
);
},
{
name = vendorID;
value = IMPA;
},
{
name = trademarks;
value = "Libre Franklin is a trademark of Impallari Type.";
}
);
date = "2016-11-14 22:14:49 +0000";
familyName = "Libre Franklin";
featurePrefixes = (
{
code = "languagesystem DFLT dflt;
languagesystem latn dflt;
languagesystem latn CAT;
languagesystem latn ROM;
languagesystem latn MOL;
languagesystem latn KAZ;
languagesystem latn TAT;
languagesystem latn TRK;
languagesystem latn CRT;
languagesystem latn AZE;";
name = Languagesystems;
}
);
features = (
{
code = "feature ccmp;
feature locl;
feature subs;
feature sinf;
feature sups;
feature numr;
feature dnom;
feature frac;
feature ordn;";
tag = aalt;
},
{
code = "lookup ccmp_Other_1 {
	@CombiningTopAccents = [acutecomb brevecomb breveinvertedcomb caroncomb circumflexcomb dblgravecomb dieresiscomb dotaccentcomb gravecomb hookabovecomb hungarumlautcomb macroncomb ringcomb tildecomb];
	@CombiningNonTopAccents = [cedillacomb dotbelowcomb ogonekcomb horncomb];

glyphs = (
{
glyphname = A;
kernLeft = A;
kernRight = A;
lastChange = "2024-09-04 11:48:04 +0000";
layers = (
{
anchors = (
{
name = bottom;
pos = (363,0);
},
{
name = ogonek;
pos = (710,9);
},
{
name = top;
pos = (462,742);
}
);
background = {
anchors = (
{
name = ogonek;
pos = (710,9);
},
{
name = top;
pos = (462,742);
}
);
shapes = (
{
closed = 1;
nodes = (
(-4,0,l),
(162,0,ls),
(176,0,o),
(180,2,o),
(184,10,c),
(243,127,ls),
(245,134,o),
(254,144,o),
(262,144,c),
(474,144,ls),
(484,144,o),
(484,144,o),
(486,137,c),
(509,22,ls),
(510,9,o),
(518,0,o),
(528,0,c),
(724,0,ls),
(739,0,o),
(742,15,o),
(739,29,c),
(594,710,ls),
(591,726,o),
(586,742,o),
(569,742,c),
(372,742,ls),
(354,742,o),
(342,740,o),
(334,724,c),
(-5,42,ls),
(-20,12,o),
(-19,0,o),
(-4,0,c)
);
},
{
closed = 1;
nodes = (
(332,314,l),
(320,314,o),
(317,317,o),
(323,330,c),
(406,502,ls),
(412,514,o),
(420,512,o),
(422,505,c),
(458,334,ls),
(461,321,o),
(457,314,o),
(446,314,c)
);
}
);
};
layerId = "258ED206-D907-4350-8EBA-CBDDA1C16BF7";
shapes = (
{
closed = 1;
nodes = (
(-4,0,l),
(162,0,ls),
(176,0,o),
(180,2,o),
(184,10,c),
(244,131,ls),
(249,140,o),
(253,144,o),
(263,144,c),
(473,144,ls),
(482,144,o),
(485,142,o),
(486,135,c),
(509,22,ls),
(512,9,o),
(518,0,o),
(528,0,c),
(724,0,ls),
(739,0,o),
(742,15,o),
(739,29,c),
(594,710,ls),
(591,726,o),
(586,742,o),
(569,742,c),
(372,742,ls),
(354,742,o),
(342,740,o),
(334,724,c),
(-5,42,ls),
(-20,12,o),
(-19,0,o),
(-4,0,c)
);
},
{
closed = 1;
nodes = (
(332,314,l),
(320,314,o),
(317,317,o),
(323,330,c),
(406,502,ls),
(412,514,o),
(420,514,o),
(422,501,c),
(458,334,ls),
(461,321,o),
(457,314,o),
(446,314,c)
);
}
);
width = 799;
},
{
anchors = (
{
name = bottom;
pos = (313,0);
},
{
name = ogonek;
pos = (603,11);
},
{
name = top;
pos = (417,742);
}
);
background = {
anchors = (
{
name = ogonek;
pos = (603,11);
},
{
name = top;
pos = (417,742);
}
);
shapes = (
{
closed = 1;
nodes = (
(24,0,l),
(49,0,ls),
(55,0,o),
(58,1,o),
(60,6,c),
(175,230,ls),
(177,235,o),
(180,238,o),
(186,238,c),
(508,238,ls),
(514,238,o),
(515,237,o),
(516,232,c),
(567,9,ls),
(567,3,o),
(572,0,o),
(579,0,c),
(603,0,ls),
(610,0,o),
(612,3,o),
(611,9,c),
(449,731,ls),
(449,738,o),
(443,742,o),
(433,742,c),
(400,742,ls),
(391,742,o),
(388,740,o),
(384,732,c),
(16,10,ls),
(14,4,o),
(18,0,o),
(24,0,c)
);
},
{
closed = 1;
nodes = (
(204,278,l),
(198,278,o),
(197,278,o),
(201,285,c),
(402,676,ls),
(408,690,o),
(413,692,o),
(416,679,c),
(505,289,ls),
(506,283,o),
(503,278,o),
(495,278,c)
);
}
);
};
layerId = "91AB5BCA-6A50-42DA-B2F7-8181BF189245";
shapes = (
{
closed = 1;
nodes = (
(24,0,l),
(49,0,ls),
(55,0,o),
(58,1,o),
(60,6,c),
(175,230,ls),
(177,235,o),
(180,238,o),
(186,238,c),
(508,238,ls),
(514,238,o),
(515,237,o),
(516,232,c),
(567,9,ls),
(567,3,o),
(572,0,o),
(579,0,c),
(603,0,ls),
(610,0,o),
(612,3,o),
(611,9,c),
(449,731,ls),
(449,738,o),
(443,742,o),
(433,742,c),
(400,742,ls),
(391,742,o),
(388,740,o),
(384,732,c),
(16,10,ls),
(14,4,o),
(18,0,o),
(24,0,c)
);
},
{
closed = 1;
nodes = (
(204,278,l),
(199,278,o),
(199,281,o),
(203,290,c),
(402,676,ls),
(408,690,o),
(413,692,o),
(416,679,c),
(505,289,ls),
(506,283,o),
(505,278,o),
(497,278,c)
);
}
);
width = 700;
}
);
unicode = 65;
},
{
glyphname = Aringacute;
kernLeft = A;
kernRight = A;
lastChange = "2024-09-04 11:48:04 +0000";
layers = (
{
background = {
shapes = (
{
closed = 1;
nodes = (
(544,785,l),
(553,850,o),
(507,899,o),
(442,899,c),
(386,899,o),
(335,863,o),
(327,809,c),
(318,741,o),
(364,693,o),
(429,693,c),
(486,693,o),
(536,728,o),
(544,785,c)
);
},
{
closed = 1;
nodes = (
(484,806,l),
(480,775,o),
(451,746,o),
(420,746,c),
(398,746,o),
(381,763,o),
(384,784,c),
(388,816,o),
(419,842,o),
(449,842,c),
(472,842,o),
(487,828,o),
(484,806,c)
);
},
{
closed = 1;
nodes = (
(322,742,l),
(305,742,o),
(301,740,o),
(294,724,c),
(-37,42,ls),
(-47,20,o),
(-37,0,o),
(-22,0,c),
(130,0,ls),
(144,0,o),
(148,2,o),
(152,10,c),
(208,127,ls),
(210,134,o),
(219,144,o),
(227,144,c),
(428,144,ls),
(438,144,o),
(438,144,o),
(440,137,c),
(460,22,ls),
(461,9,o),
(471,0,o),
(481,0,c),
(677,0,ls),
(692,0,o),
(693,15,o),
(690,29,c),
(553,710,ls),
(551,726,o),
(537,742,o),
(520,742,c)
);
},
{
closed = 1;
nodes = (
(412,339,l),
(414,326,o),
(405,314,o),
(394,314,c),
(291,314,ls),
(279,314,o),
(281,317,o),
(288,330,c),
(369,499,ls),
(371,506,o),
(379,517,o),
(381,510,c)
);
},
{
closed = 1;
nodes = (
(464,964,l),
(445,964,o),
(435,963,o),
(426,938,c),
(403,875,l),
(491,875,l),
(525,930,ls),
(531,944,o),
(525,964,o),
(509,964,c)
);
}
);
};
layerId = "258ED206-D907-4350-8EBA-CBDDA1C16BF7";
shapes = (
{
closed = 1;
nodes = (
(544,785,l),
(553,850,o),
(507,899,o),
(442,899,c),
(386,899,o),
(335,863,o),
(327,809,c),
(318,741,o),
(364,693,o),
(429,693,c),
(486,693,o),
(536,728,o),
(544,785,c)
);
},
{
closed = 1;
nodes = (
(484,806,l),
(480,775,o),
(451,746,o),
(420,746,c),
(398,746,o),
(381,763,o),
(384,784,c),
(388,816,o),
(419,842,o),
(449,842,c),
(472,842,o),
(487,828,o),
(484,806,c)
);
},
{
closed = 1;
nodes = (
(322,742,l),
(305,742,o),
(301,740,o),
(294,724,c),
(-37,42,ls),
(-47,20,o),
(-37,0,o),
(-22,0,c),
(130,0,ls),
(144,0,o),
(148,2,o),
(152,10,c),
(208,127,ls),
(210,134,o),
(219,144,o),
(227,144,c),
(428,144,ls),
(438,144,o),
(438,144,o),
(440,137,c),
(460,22,ls),
(461,9,o),
(471,0,o),
(481,0,c),
(677,0,ls),
(692,0,o),
(693,15,o),
(690,29,c),
(553,710,ls),
(551,726,o),
(537,742,o),
(520,742,c)
);
},
{
closed = 1;
nodes = (
(412,339,l),
(414,326,o),
(405,314,o),
(394,314,c),
(291,314,ls),
(279,314,o),
(281,317,o),
(288,330,c),
(369,499,ls),
(371,506,o),
(379,517,o),
(381,510,c)
);
},
{
closed = 1;
nodes = (
(464,964,l),
(445,964,o),
(435,963,o),
(426,938,c),
(403,875,l),
(491,875,l),
(525,930,ls),
(531,944,o),
(525,964,o),
(509,964,c)
);
}
);
width = 710;
},
{
background = {
shapes = (
{
closed = 1;
nodes = (
(493,800,l),
(501,856,o),
(462,900,o),
(405,900,c),
(351,900,o),
(301,858,o),
(294,806,c),
(286,747,o),
(324,702,o),
(381,702,c),
(436,702,o),
(485,744,o),
(493,800,c)
);
},
{
closed = 1;
nodes = (
(451,803,l),
(446,771,o),
(416,742,o),
(382,742,c),
(352,742,o),
(329,769,o),
(333,799,c),
(338,835,o),
(371,860,o),
(403,860,c),
(435,860,o),
(455,837,o),
(451,803,c)
);
},
{
closed = 1;
nodes = (
(369,742,l),
(360,742,o),
(357,740,o),
(353,732,c),
(3,10,l),
(1,5,o),
(5,0,o),
(11,0,c),
(33,0,ls),
(39,0,o),
(41,1,o),
(44,6,c),
(153,230,ls),
(155,235,o),
(158,238,o),
(164,238,c),
(460,238,ls),
(466,238,o),
(467,237,o),
(468,232,c),
(514,9,ls),
(514,3,o),
(518,0,o),
(525,0,c),
(552,0,ls),
(559,0,o),
(561,3,o),
(560,9,c),
(417,731,l),
(417,738,o),
(411,742,o),
(401,742,c)
);
},
{
closed = 1;
nodes = (
(459,289,l),
(460,283,o),
(457,278,o),
(449,278,c),
(180,278,ls),
(174,278,o),
(174,278,o),
(178,285,c),
(367,676,ls),
(373,690,o),
(379,692,o),
(381,679,c)
);
},
{
closed = 1;
nodes = (
(436,964,l),
(425,964,o),
(421,961,o),
(418,952,c),
(389,875,l),
(427,875,l),
(469,947,ls),
(473,957,o),
(470,964,o),
(459,964,c)
);
}
);
};
layerId = "91AB5BCA-6A50-42DA-B2F7-8181BF189245";
shapes = (
{
closed = 1;
nodes = (
(493,800,l),
(501,856,o),
(462,900,o),
(405,900,c),
(351,900,o),
(301,858,o),
(294,806,c),
(286,747,o),
(324,702,o),
(381,702,c),
(436,702,o),
(485,744,o),
(493,800,c)
);
},
{
closed = 1;
nodes = (
(451,803,l),
(446,771,o),
(416,742,o),
(382,742,c),
(352,742,o),
(329,769,o),
(333,799,c),
(338,835,o),
(371,860,o),
(403,860,c),
(435,860,o),
(455,837,o),
(451,803,c)
);
},
{
closed = 1;
nodes = (
(369,742,l),
(360,742,o),
(357,740,o),
(353,732,c),
(3,10,l),
(1,5,o),
(5,0,o),
(11,0,c),
(33,0,ls),
(39,0,o),
(41,1,o),
(44,6,c),
(153,230,ls),
(155,235,o),
(158,238,o),
(164,238,c),
(460,238,ls),
(466,238,o),
(467,237,o),
(468,232,c),
(514,9,ls),
(514,3,o),
(518,0,o),
(525,0,c),
(552,0,ls),
(559,0,o),
(561,3,o),
(560,9,c),
(417,731,l),
(417,738,o),
(411,742,o),
(401,742,c)
);
},
{
closed = 1;
nodes = (
(459,289,l),
(460,283,o),
(457,278,o),
(449,278,c),
(180,278,ls),
(174,278,o),
(174,278,o),
(178,285,c),
(367,676,ls),
(373,690,o),
(379,692,o),
(381,679,c)
);
},
{
closed = 1;
nodes = (
(436,964,l),
(425,964,o),
(421,961,o),
(418,952,c),
(389,875,l),
(427,875,l),
(469,947,ls),
(473,957,o),
(470,964,o),
(459,964,c)
);
}
);
width = 637;
}
);
unicode = 506;
},
{
glyphname = AE;
kernLeft = AE;
kernRight = E;
lastChange = "2024-09-04 11:48:04 +0000";
layers = (
{
anchors = (
{
name = top;
pos = (784,742);
}
);
background = {
anchors = (
{
name = top;
pos = (784,742);
}
);
shapes = (
{
closed = 1;
nodes = (
(1050,164,l),
(725,164,ls),
(716,164,o),
(716,161,o),
(718,172,c),
(732,272,ls),
(733,280,o),
(745,292,o),
(755,292,c),
(940,292,ls),
(953,292,o),
(954,294,o),
(955,303,c),
(973,427,ls),
(975,440,o),
(965,453,o),
(951,453,c),
(771,453,ls),
(761,453,o),
(758,454,o),
(760,468,c),
(771,553,ls),
(773,566,o),
(787,578,o),
(802,578,c),
(1102,578,ls),
(1120,578,o),
(1125,583,o),
(1127,599,c),
(1144,715,ls),
(1146,728,o),
(1138,742,o),
(1126,742,c),
(477,742,ls),
(460,742,o),
(454,740,o),
(444,724,c),
(-7,42,ls),
(-21,20,o),
(-12,0,o),
(3,0,c),
(155,0,ls),
(169,0,o),
(175,2,o),
(180,10,c),
(256,128,l),
(259,135,o),
(269,144,o),
(277,144,c),
(478,144,ls),
(488,144,o),
(487,145,o),
(486,136,c),
(471,31,ls),
(469,14,o),
(478,0,o),
(498,0,c),
(1033,0,ls),
(1050,0,o),
(1053,4,o),
(1055,16,c),
(1072,139,ls),
(1074,153,o),
(1064,164,o),
(1050,164,c)
);
},
{
closed = 1;
nodes = (
(488,314,l),
(371,314,ls),
(359,314,o),
(363,317,o),
(373,330,c),
(505,532,ls),
(524,562,o),
(547,571,o),
(543,541,c),
(515,340,ls),
(513,327,o),
(500,314,o),
(488,314,c)
);
}
);
};
layerId = "258ED206-D907-4350-8EBA-CBDDA1C16BF7";
shapes = (
{
closed = 1;
nodes = (
(1050,164,l),
(725,164,ls),
(716,164,o),
(716,161,o),
(718,172,c),
(732,272,ls),
(733,280,o),
(745,292,o),
(755,292,c),
(940,292,ls),
(953,292,o),
(954,294,o),
(955,303,c),
(973,427,ls),
(975,440,o),
(965,453,o),
(951,453,c),
(771,453,ls),
(761,453,o),
(758,454,o),
(760,468,c),
(771,553,ls),
(773,566,o),
(787,578,o),
(802,578,c),
(1102,578,ls),
(1120,578,o),
(1125,583,o),
(1127,599,c),
(1144,715,ls),
(1146,728,o),
(1138,742,o),
(1126,742,c),
(477,742,ls),
(460,742,o),
(454,740,o),
(444,724,c),
(-7,42,ls),
(-21,20,o),
(-12,0,o),
(3,0,c),
(155,0,ls),
(169,0,o),
(175,2,o),
(180,10,c),
(256,128,l),
(259,135,o),
(269,144,o),
(277,144,c),
(478,144,ls),
(488,144,o),
(487,145,o),
(486,136,c),
(471,31,ls),
(469,14,o),
(478,0,o),
(498,0,c),
(1033,0,ls),
(1050,0,o),
(1053,4,o),
(1055,16,c),
(1072,139,ls),
(1074,153,o),
(1064,164,o),
(1050,164,c)
);
},
{
closed = 1;
nodes = (
(488,314,l),
(371,314,ls),
(359,314,o),
(363,317,o),
(373,330,c),
(505,532,ls),
(524,562,o),
(547,571,o),
(543,541,c),
(515,340,ls),
(513,327,o),
(500,314,o),
(488,314,c)
);
}
);
width = 1123;
},
{
anchors = (
{
name = top;
pos = (749,742);
}
);
background = {
anchors = (
{
name = top;
pos = (749,742);
}
);
shapes = (
{
closed = 1;
nodes = (
(871,40,l),
(518,40,ls),
(511,40,o),
(510,40,o),
(512,48,c),
(553,345,ls),
(554,353,o),
(558,355,o),
(565,355,c),
(833,355,ls),
(839,355,o),
(840,355,o),
(840,361,c),
(844,387,ls),
(845,392,o),
(842,395,o),
(837,395,c),
(568,395,ls),
(561,395,o),
(560,395,o),
(561,401,c),
(602,692,ls),
(603,700,o),
(606,702,o),
(613,702,c),
(951,702,ls),
(957,702,o),
(958,702,o),
(959,708,c),
(963,734,ls),
(964,739,o),
(961,742,o),
(956,742,c),
(551,742,ls),
(542,742,o),
(538,740,o),
(533,732,c),
(17,10,ls),
(13,5,o),
(17,0,o),
(23,0,c),
(48,0,ls),
(54,0,o),
(57,1,o),
(61,6,c),
(221,230,ls),
(225,235,o),
(228,238,o),
(234,238,c),
(488,238,ls),
(491,238,o),
(492,237,o),
(492,234,c),
(460,11,ls),
(459,3,o),
(462,0,o),
(469,0,c),
(869,0,ls),
(874,0,o),
(875,1,o),
(876,6,c),
(879,32,ls),
(880,38,o),
(877,40,o),
(871,40,c)
);
},
{
closed = 1;
nodes = (
(489,278,l),
(257,278,ls),
(251,278,o),
(252,278,o),
(257,285,c),
(540,676,ls),
(550,690,o),
(555,692,o),
(554,679,c),
(499,288,ls),
(499,283,o),
(495,278,o),
(489,278,c)
);
}
);
};
layerId = "91AB5BCA-6A50-42DA-B2F7-8181BF189245";
shapes = (
{
closed = 1;
nodes = (
(871,40,l),
(518,40,ls),
(511,40,o),
(510,40,o),
(512,48,c),
(553,345,ls),
(554,353,o),
(558,355,o),
(565,355,c),
(833,355,ls),
(839,355,o),
(840,355,o),
(840,361,c),
(844,387,ls),
(845,392,o),
(842,395,o),
(837,395,c),
(568,395,ls),
(561,395,o),
(560,395,o),
(561,401,c),
(602,692,ls),
(603,700,o),
(606,702,o),
(613,702,c),
(951,702,ls),
(957,702,o),
(958,702,o),
(959,708,c),
(963,734,ls),
(964,739,o),
(961,742,o),
(956,742,c),
(551,742,ls),
(542,742,o),
(538,740,o),
(533,732,c),
(17,10,ls),
(13,5,o),
(17,0,o),
(23,0,c),
(48,0,ls),
(54,0,o),
(57,1,o),
(61,6,c),
(221,230,ls),
(225,235,o),
(228,238,o),
(234,238,c),
(488,238,ls),
(491,238,o),
(492,237,o),
(492,234,c),
(460,11,ls),
(459,3,o),
(462,0,o),
(469,0,c),
(869,0,ls),
(874,0,o),
(875,1,o),
(876,6,c),
(879,32,ls),
(880,38,o),
(877,40,o),
(871,40,c)
);
},
{
closed = 1;
nodes = (
(489,278,l),
(257,278,ls),
(251,278,o),
(252,278,o),
(257,285,c),
(540,676,ls),
(550,690,o),
(555,692,o),
(554,679,c),
(499,288,ls),
(499,283,o),
(495,278,o),
(489,278,c)
);
}
);
width = 964;
}
);
metricLeft = A;
metricRight = E;
unicode = 198;
},
{
glyphname = B;
kernRight = B;
lastChange = "2024-09-04 11:48:04 +0000";
layers = (
{
background = {
shapes = (
{
closed = 1;
nodes = (
(32,0,l),
(361,0,ls),
(529,0,o),
(702,38,o),
(702,223,c),
(702,294,o),
(665,341,o),
(574,372,c),
(567,374,o),
(567,380,o),
(577,383,c),
(666,413,o),
(732,466,o),
(732,565,c),
(732,680,o),
(629,742,o),
(438,742,c),
(140,742,ls),
(125,742,o),
(118,737,o),
(116,722,c),
(19,28,ls),
(16,7,o),
(18,0,o),
(32,0,c)
);
},
{
closed = 1;
nodes = (
(276,150,l),
(266,150,o),
(263,152,o),
(265,166,c),
(280,271,ls),
(282,288,o),
(292,298,o),
(311,298,c),
(400,298,ls),
(446,298,o),
(471,278,o),
(471,247,c),
(471,191,o),
(417,150,o),
(366,150,c)
);
},
{
closed = 1;
nodes = (
(318,452,l),
(308,452,o),
(306,454,o),
(308,468,c),
(321,566,ls),
(323,583,o),
(333,592,o),
(352,592,c),
(434,592,ls),
(477,592,o),
(506,574,o),
(506,541,c),
(506,490,o),
(458,452,o),
(413,452,c)
);
}
);
};
layerId = "258ED206-D907-4350-8EBA-CBDDA1C16BF7";
shapes = (
{
closed = 1;
nodes = (
(32,0,l),
(361,0,ls),
(529,0,o),
(702,38,o),
(702,223,c),
(702,294,o),
(665,341,o),
(574,372,c),
(567,374,o),
(567,380,o),
(577,383,c),
(666,413,o),
(732,466,o),
(732,565,c),
(732,680,o),
(629,742,o),
(438,742,c),
(140,742,ls),
(125,742,o),
(118,737,o),
(116,722,c),
(19,28,ls),
(16,7,o),
(18,0,o),
(32,0,c)
);
},
{
closed = 1;
nodes = (
(276,150,l),
(266,150,o),
(263,152,o),
(265,166,c),
(281,278,ls),
(283,293,o),
(287,298,o),
(301,298,c),
(400,298,ls),
(446,298,o),
(471,278,o),
(471,247,c),
(471,191,o),
(417,150,o),
(366,150,c)
);
},
{
closed = 1;
nodes = (
(318,452,l),
(308,452,o),
(306,454,o),
(308,468,c),
(321,571,ls),
(323,586,o),
(329,592,o),
(347,592,c),
(434,592,ls),
(477,592,o),
(506,574,o),
(506,541,c),
(506,490,o),
(458,452,o),
(413,452,c)
);
}
);
width = 739;
},
{
background = {
shapes = (
{
closed = 1;
nodes = (
(86,0,l),
(302,0,ls),
(458,0,o),
(601,59,o),
(601,227,c),
(601,309,o),
(552,358,o),
(477,372,c),
(470,374,o),
(470,379,o),
(478,381,c),
(576,411,o),
(633,479,o),
(633,579,c),
(633,685,o),
(546,742,o),
(394,742,c),
(191,742,ls),
(184,742,o),
(181,739,o),
(180,731,c),
(78,9,ls),
(77,4,o),
(81,0,o),
(86,0,c)
);
},
{
closed = 1;
nodes = (
(138,40,l),
(133,40,o),
(129,42,o),
(130,49,c),
(171,345,ls),
(172,352,o),
(177,355,o),
(185,355,c),
(354,355,ls),
(469,355,o),
(553,319,o),
(553,221,c),
(553,67,o),
(418,40,o),
(293,40,c)
);
},
{
closed = 1;
nodes = (
(187,395,l),
(182,395,o),
(179,398,o),
(180,405,c),
(220,693,ls),
(221,699,o),
(225,702,o),
(231,702,c),
(386,702,ls),
(510,702,o),
(585,662,o),
(585,573,c),
(585,452,o),
(485,395,o),
(357,395,c)
);
}
);
};
layerId = "91AB5BCA-6A50-42DA-B2F7-8181BF189245";
shapes = (
{
closed = 1;
nodes = (
(86,0,l),
(302,0,ls),
(458,0,o),
(601,59,o),
(601,227,c),
(601,309,o),
(552,358,o),
(477,372,c),
(470,374,o),
(470,379,o),
(478,381,c),
(576,411,o),
(633,479,o),
(633,579,c),
(633,685,o),
(546,742,o),
(394,742,c),
(191,742,ls),
(184,742,o),
(181,739,o),
(180,731,c),
(78,9,ls),
(77,4,o),
(81,0,o),
(86,0,c)
);
},
{
closed = 1;
nodes = (
(138,40,l),
(133,40,o),
(129,42,o),
(130,49,c),
(171,345,ls),
(172,352,o),
(177,355,o),
(185,355,c),
(354,355,ls),
(469,355,o),
(553,319,o),
(553,221,c),
(553,67,o),
(418,40,o),
(293,40,c)
);
},
{
closed = 1;
nodes = (
(187,395,l),
(182,395,o),
(179,398,o),
(180,405,c),
(220,693,ls),
(221,699,o),
(225,702,o),
(231,702,c),
(386,702,ls),
(510,702,o),
(585,662,o),
(585,573,c),
(585,452,o),
(485,395,o),
(357,395,c)
);
}
);
width = 684;
}
);
unicode = 66;
},
{
glyphname = C;
kernLeft = O;
kernRight = C;
lastChange = "2024-09-04 11:48:04 +0000";
layers = (
{
anchors = (
{
name = bottom;
pos = (346,0);
},
{
name = top;
pos = (452,742);
}
);
background = {
anchors = (
{
name = bottom;
pos = (346,0);
},
{
name = top;
pos = (452,742);
}
);
shapes = (
{
closed = 1;
nodes = (
(445,752,l),
(184,752,o),
(43,550,o),
(43,317,c),
(43,125,o),
(157,-10,o),
(352,-10,c),
(579,-10,o),
(687,162,o),
(703,210,c),
(712,236,o),
(712,247,o),
(704,249,c),
(569,281,ls),
(553,285,o),
(544,283,o),
(538,270,c),
(497,187,o),
(437,154,o),
(366,154,c),
(306,154,o),
(275,185,o),
(275,276,c),
(275,391,o),
(306,598,o),
(446,598,c),
(508,598,o),
(525,559,o),
(529,506,c),
(530,487,o),
(535,475,o),
(547,476,c),
(716,486,ls),
(731,487,o),
(735,495,o),
(734,511,c),
(728,650,o),
(618,752,o),
(445,752,c)
);
}
);
};
layerId = "258ED206-D907-4350-8EBA-CBDDA1C16BF7";
shapes = (
{
closed = 1;
nodes = (
(445,752,l),
(184,752,o),
(43,550,o),
(43,317,c),
(43,125,o),
(157,-10,o),
(352,-10,c),
(579,-10,o),
(687,162,o),
(703,210,c),
(712,236,o),
(712,247,o),
(704,249,c),
(569,281,ls),
(553,285,o),
(544,283,o),
(538,270,c),
(497,187,o),
(437,154,o),
(366,154,c),
(306,154,o),
(275,185,o),
(275,276,c),
(275,391,o),
(306,598,o),
(446,598,c),
(508,598,o),
(525,559,o),
(529,506,c),
(530,487,o),
(535,475,o),
(547,476,c),
(716,486,ls),
(731,487,o),
(735,495,o),
(734,511,c),
(728,650,o),
(618,752,o),
(445,752,c)
);
}
);
width = 737;
},
{
anchors = (
{
name = bottom;
pos = (344,0);
},
{
name = top;
pos = (442,742);
}
);
background = {
anchors = (
{
name = bottom;
pos = (344,0);
},
{
name = top;
pos = (442,742);
}
);
shapes = (
{
closed = 1;
nodes = (
(444,752,l),
(184,753,o),
(86,491,o),
(86,276,c),
(86,93,o),
(177,-10,o),
(344,-10,c),
(464,-10,o),
(573,59,o),
(625,169,c),
(627,174,o),
(625,177,o),
(622,178,c),
(592,189,ls),
(587,191,o),
(584,190,o),
(583,188,c),
(529,81,o),
(453,32,o),
(348,32,c),
(202,32,o),
(133,118,o),
(133,275,c),
(133,472,o),
(216,710,o),
(440,710,c),
(540,710,o),
(612,647,o),
(622,554,c),
(623,547,o),
(625,544,o),
(629,544,c),
(663,547,ls),
(668,547,o),
(670,550,o),
(670,554,c),
(672,658,o),
(567,752,o),
(444,752,c)
);
}
);
};
guides = (
{
angle = 90;
pos = (636,369);
}
);
layerId = "91AB5BCA-6A50-42DA-B2F7-8181BF189245";
shapes = (
{
closed = 1;
nodes = (
(444,752,l),
(184,753,o),
(86,491,o),
(86,276,c),
(86,93,o),
(177,-10,o),
(344,-10,c),
(464,-10,o),
(573,59,o),
(625,169,c),
(627,174,o),
(625,177,o),
(622,178,c),
(592,189,ls),
(587,191,o),
(584,190,o),
(583,188,c),
(529,81,o),
(453,32,o),
(348,32,c),
(202,32,o),
(133,118,o),
(133,275,c),
(133,472,o),
(216,710,o),
(440,710,c),
(540,710,o),
(612,647,o),
(622,554,c),
(623,547,o),
(625,544,o),
(629,544,c),
(663,547,ls),
(668,547,o),
(670,550,o),
(670,554,c),
(672,658,o),
(567,752,o),
(444,752,c)
);
}
);
width = 695;
}
);
unicode = 67;
},
{
glyphname = D;
kernRight = O;
lastChange = "2024-09-04 11:48:04 +0000";
layers = (
{
anchors = (
{
name = center;
pos = (405,371);
},
{
name = top;
pos = (457,742);
}
);
background = {
anchors = (
{
name = center;
pos = (405,371);
},
{
name = top;
pos = (457,742);
}
);
shapes = (
{
closed = 1;
nodes = (
(48,0,l),
(311,0,ls),
(580,0,o),
(759,172,o),
(759,429,c),
(759,609,o),
(632,742,o),
(391,742,c),
(141,742,ls),
(122,742,o),
(118,739,o),
(116,723,c),
(20,36,ls),
(17,14,o),
(28,0,o),
(48,0,c)
);
},
{
closed = 1;
nodes = (
(281,157,l),
(270,157,o),
(266,164,o),
(268,176,c),
(321,565,ls),
(323,578,o),
(329,585,o),
(342,585,c),
(401,585,ls),
(476,585,o),
(523,536,o),
(523,442,c),
(523,286,o),
(466,157,o),
(338,157,c)
);
}
);
};
layerId = "258ED206-D907-4350-8EBA-CBDDA1C16BF7";
shapes = (
{
closed = 1;
nodes = (
(48,0,l),
(311,0,ls),
(580,0,o),
(759,172,o),
(759,429,c),
(759,609,o),
(632,742,o),
(391,742,c),
(141,742,ls),
(122,742,o),
(118,739,o),
(116,723,c),
(20,36,ls),
(17,14,o),
(28,0,o),
(48,0,c)
);
},
{
closed = 1;
nodes = (
(281,157,l),
(270,157,o),
(266,164,o),
(268,176,c),
(321,565,ls),
(323,578,o),
(329,585,o),
(342,585,c),
(401,585,ls),
(476,585,o),
(523,536,o),
(523,442,c),
(523,286,o),
(466,157,o),
(338,157,c)
);
}
);
width = 771;
},
{
anchors = (
{
name = center;
pos = (357,371);
},
{
name = top;
pos = (403,742);
}
);
background = {
anchors = (
{
name = center;
pos = (357,371);
},
{
name = top;
pos = (403,742);
}
);
shapes = (
{
closed = 1;
nodes = (
(87,0,l),
(196,0,ls),
(506,0,o),
(648,165,o),
(648,465,c),
(648,652,o),
(544,742,o),
(304,742,c),
(191,742,ls),
(186,742,o),
(181,740,o),
(180,735,c),
(78,11,ls),
(77,4,o),
(81,0,o),
(87,0,c)
);
},
{
closed = 1;
nodes = (
(141,40,l),
(133,40,o),
(129,42,o),
(131,53,c),
(219,690,ls),
(220,698,o),
(223,701,o),
(230,701,c),
(293,701,ls),
(500,701,o),
(600,644,o),
(600,465,c),
(600,186,o),
(485,40,o),
(194,40,c)
);
}
);
};
layerId = "91AB5BCA-6A50-42DA-B2F7-8181BF189245";
shapes = (
{
closed = 1;
nodes = (
(87,0,l),
(196,0,ls),
(506,0,o),
(648,165,o),
(648,465,c),
(648,652,o),
(544,742,o),
(304,742,c),
(191,742,ls),
(186,742,o),
(181,740,o),
(180,735,c),
(78,11,ls),
(77,4,o),
(81,0,o),
(87,0,c)
);
},
{
closed = 1;
nodes = (
(141,40,l),
(133,40,o),
(129,42,o),
(131,53,c),
(219,690,ls),
(220,698,o),
(223,701,o),
(230,701,c),
(293,701,ls),
(500,701,o),
(600,644,o),
(600,465,c),
(600,186,o),
(485,40,o),
(194,40,c)
);
}
);
width = 703;
}
);
unicode = 68;
},
{
glyphname = Eth;
kernRight = O;
lastChange = "2024-09-04 11:48:04 +0000";
layers = (
{
background = {
shapes = (
{
closed = 1;
nodes = (
(452,408,l),
(454,420,o),
(445,434,o),
(434,434,c),
(63,434,ls),
(51,434,o),
(47,432,o),
(45,417,c),
(32,324,ls),
(30,307,o),
(38,293,o),
(58,293,c),
(407,293,ls),
(430,293,o),
(436,295,o),
(439,315,c)
);
},
{
pos = (-17,0);
ref = D;
}
);
};
layerId = "258ED206-D907-4350-8EBA-CBDDA1C16BF7";
shapes = (
{
closed = 1;
nodes = (
(432,408,l),
(434,420,o),
(425,434,o),
(414,434,c),
(43,434,ls),
(31,434,o),
(27,432,o),
(25,417,c),
(12,324,ls),
(10,307,o),
(18,293,o),
(38,293,c),
(387,293,ls),
(410,293,o),
(416,295,o),
(419,315,c)
);
},
{
pos = (-17,0);
ref = D;
}
);
width = 754;
},
{
background = {
shapes = (
{
closed = 1;
nodes = (
(359,386,l),
(360,391,o),
(357,395,o),
(352,395,c),
(59,395,ls),
(54,395,o),
(53,393,o),
(52,387,c),
(49,364,ls),
(48,357,o),
(50,353,o),
(58,353,c),
(342,353,ls),
(351,353,o),
(355,355,o),
(356,363,c)
);
},
{
pos = (-37,0);
ref = D;
}
);
};
layerId = "91AB5BCA-6A50-42DA-B2F7-8181BF189245";
shapes = (
{
closed = 1;
nodes = (
(339,386,l),
(340,391,o),
(337,395,o),
(332,395,c),
(39,395,ls),
(34,395,o),
(33,393,o),
(32,387,c),
(29,364,ls),
(28,357,o),
(30,353,o),
(38,353,c),
(322,353,ls),
(331,353,o),
(335,355,o),
(336,363,c)
);
},
{
pos = (-37,0);
ref = D;
}
);
width = 666;
}
);
metricRight = D;
unicode = 208;
},
{
glyphname = E;
kernRight = E;
lastChange = "2024-09-04 11:48:04 +0000";
layers = (
{
anchors = (
{
name = bottom;
pos = (299,0);
},
{
name = ogonek;
pos = (574,10);
},
{
name = top;
pos = (403,742);
}
);
background = {
anchors = (
{
name = bottom;
pos = (299,0);
},
{
name = ogonek;
pos = (574,10);
},
{
name = top;
pos = (403,742);
}
);
shapes = (
{
closed = 1;
nodes = (
(117,725,l),
(19,31,ls),
(17,14,o),
(26,0,o),
(46,0,c),
(581,0,ls),
(598,0,o),
(601,4,o),
(603,16,c),
(620,139,ls),
(622,153,o),
(612,164,o),
(598,164,c),
(273,164,ls),
(264,164,o),
(264,161,o),
(266,172,c),
(280,272,ls),
(281,280,o),
(293,292,o),
(303,292,c),
(488,292,ls),
(501,292,o),
(502,294,o),
(503,303,c),
(521,427,ls),
(523,440,o),
(513,453,o),
(499,453,c),
(319,453,ls),
(309,453,o),
(306,454,o),
(308,468,c),
(319,553,ls),
(321,566,o),
(335,578,o),
(350,578,c),
(650,578,ls),
(668,578,o),
(673,583,o),
(675,599,c),
(692,715,ls),
(694,728,o),
(686,742,o),
(674,742,c),
(134,742,ls),
(122,742,o),
(119,740,o),
(117,725,c)
);
}
);
};
layerId = "258ED206-D907-4350-8EBA-CBDDA1C16BF7";
shapes = (
{
closed = 1;
nodes = (
(117,725,l),
(19,31,ls),
(16,10,o),
(22,0,o),
(43,0,c),
(581,0,ls),
(598,0,o),
(601,4,o),
(603,16,c),
(620,145,ls),
(622,159,o),
(620,164,o),
(606,164,c),
(273,164,ls),
(266,164,o),
(265,168,o),
(266,177,c),
(280,276,ls),
(282,288,o),
(285,292,o),
(295,292,c),
(488,292,ls),
(500,292,o),
(503,295,o),
(504,305,c),
(522,436,ls),
(524,448,o),
(522,453,o),
(508,453,c),
(319,453,ls),
(309,453,o),
(306,454,o),
(308,468,c),
(321,560,ls),
(323,575,o),
(328,578,o),
(340,578,c),
(650,578,ls),
(668,578,o),
(673,583,o),
(675,599,c),
(692,715,ls),
(695,733,o),
(690,742,o),
(678,742,c),
(134,742,ls),
(122,742,o),
(119,740,o),
(117,725,c)
);
}
);
width = 671;
},
{
anchors = (
{
name = bottom;
pos = (327,0);
},
{
name = ogonek;
pos = (513,10);
},
{
name = top;
pos = (412,742);
}
);
background = {
shapes = (
{
closed = 1;
nodes = (
(180,733,l),
(78,11,ls),
(77,3,o),
(80,0,o),
(87,0,c),
(517,0,ls),
(522,0,o),
(523,1,o),
(524,6,c),
(527,32,ls),
(528,38,o),
(525,40,o),
(519,40,c),
(136,40,ls),
(129,40,o),
(128,40,o),
(130,48,c),
(171,345,ls),
(172,353,o),
(176,355,o),
(183,355,c),
(471,355,ls),
(477,355,o),
(478,355,o),
(478,361,c),
(482,387,ls),
(483,392,o),
(480,395,o),
(475,395,c),
(186,395,ls),
(179,395,o),
(178,395,o),
(179,401,c),
(220,692,ls),
(221,700,o),
(224,702,o),
(231,702,c),
(599,702,ls),
(605,702,o),
(606,702,o),
(607,708,c),
(611,734,ls),
(612,739,o),
(609,742,o),
(604,742,c),
(189,742,ls),
(182,742,o),
(181,741,o),
(180,733,c)
);
}
);
};
layerId = "91AB5BCA-6A50-42DA-B2F7-8181BF189245";
shapes = (
{
closed = 1;
nodes = (
(180,733,l),
(78,11,ls),
(77,3,o),
(80,0,o),
(87,0,c),
(517,0,ls),
(522,0,o),
(523,1,o),
(524,6,c),
(527,32,ls),
(528,38,o),
(525,40,o),
(519,40,c),
(136,40,ls),
(130,40,o),
(129,42,o),
(130,48,c),
(171,345,ls),
(172,353,o),
(174,355,o),
(181,355,c),
(469,355,ls),
(475,355,o),
(477,356,o),
(478,362,c),
(482,387,ls),
(483,392,o),
(482,395,o),
(477,395,c),
(185,395,ls),
(179,395,o),
(178,397,o),
(179,401,c),
(220,694,ls),
(221,700,o),
(223,702,o),
(230,702,c),
(598,702,ls),
(604,702,o),
(607,704,o),
(608,710,c),
(611,734,ls),
(612,739,o),
(611,742,o),
(606,742,c),
(189,742,ls),
(182,742,o),
(181,741,o),
(180,733,c)
);
}
);
width = 612;
}
);
unicode = 69;
},
{
glyphname = Schwa;
lastChange = "2024-09-04 11:48:04 +0000";
layers = (
{
background = {
shapes = (
{
closed = 1;
nodes = (
(534,458,l),
(531,437,o),
(518,425,o),
(505,425,c),
(72,425,ls),
(50,425,o),
(53,420,o),
(50,403,c),
(14,142,o),
(117,-10,o),
(354,-10,c),
(543,-10,o),
(731,152,o),
(762,369,c),
(793,593,o),
(674,752,o),
(448,752,c),
(306,752,o),
(194,694,o),
(115,577,c),
(106,556,o),
(109,544,o),
(120,538,c),
(250,471,ls),
(265,462,o),
(269,457,o),
(275,459,c),
(331,539,o),
(376,578,o),
(442,578,c),
(536,578,o),
(542,512,o),
(534,458,c)
);
},
{
closed = 1;
nodes = (
(508,290,l),
(483,198,o),
(443,146,o),
(358,146,c),
(294,146,o),
(264,195,o),
(273,256,c),
(276,276,o),
(286,285,o),
(303,285,c)
);
}
);
};
layerId = "258ED206-D907-4350-8EBA-CBDDA1C16BF7";
shapes = (
{
closed = 1;
nodes = (
(534,458,l),
(531,437,o),
(518,425,o),
(505,425,c),
(72,425,ls),
(50,425,o),
(53,420,o),
(50,403,c),
(14,142,o),
(117,-10,o),
(354,-10,c),
(543,-10,o),
(731,152,o),
(762,369,c),
(793,593,o),
(674,752,o),
(448,752,c),
(306,752,o),
(194,694,o),
(115,577,c),
(106,556,o),
(109,544,o),
(120,538,c),
(250,471,ls),
(265,462,o),
(269,457,o),
(275,459,c),
(331,539,o),
(376,578,o),
(442,578,c),
(536,578,o),
(542,512,o),
(534,458,c)
);
},
{
closed = 1;
nodes = (
(508,290,l),
(483,198,o),
(443,146,o),
(358,146,c),
(294,146,o),
(264,195,o),
(273,256,c),
(276,276,o),
(286,285,o),
(303,285,c)
);
}
);
width = 778;
},
{
background = {
shapes = (
{
closed = 1;
nodes = (
(644,388,l),
(643,382,o),
(641,380,o),
(636,380,c),
(101,380,ls),
(93,380,o),
(94,376,o),
(93,371,c),
(65,175,o),
(106,-10,o),
(342,-10,c),
(570,-10,o),
(667,179,o),
(693,364,c),
(716,530,o),
(696,752,o),
(445,752,c),
(218,752,o),
(149,561,o),
(127,524,c),
(126,518,o),
(125,514,o),
(129,513,c),
(165,500,ls),
(169,499,o),
(170,497,o),
(172,498,c),
(189,530,o),
(233,709,o),
(443,709,c),
(660,709,o),
(661,505,o),
(644,388,c)
);
},
{
closed = 1;
nodes = (
(637,339,l),
(614,192,o),
(541,33,o),
(344,33,c),
(148,33,o),
(120,191,o),
(139,330,c),
(140,335,o),
(143,338,o),
(149,338,c)
);
}
);
};
layerId = "91AB5BCA-6A50-42DA-B2F7-8181BF189245";
shapes = (
{
closed = 1;
nodes = (
(644,388,l),
(643,382,o),
(641,380,o),
(636,380,c),
(101,380,ls),
(93,380,o),
(94,376,o),
(93,371,c),
(65,175,o),
(106,-10,o),
(342,-10,c),
(570,-10,o),
(667,179,o),
(693,364,c),
(716,530,o),
(696,752,o),
(445,752,c),
(218,752,o),
(149,561,o),
(127,524,c),
(126,518,o),
(125,514,o),
(129,513,c),
(165,500,ls),
(169,499,o),
(170,497,o),
(172,498,c),
(189,530,o),
(233,709,o),
(443,709,c),
(660,709,o),
(661,505,o),
(644,388,c)
);
},
{
closed = 1;
nodes = (
(637,339,l),
(614,192,o),
(541,33,o),
(344,33,c),
(148,33,o),
(120,191,o),
(139,330,c),
(140,335,o),
(143,338,o),
(149,338,c)
);
}
);
width = 757;
}
);
metricLeft = O;
metricRight = O;
unicode = 399;
},
{
glyphname = F;
kernRight = F;
lastChange = "2024-09-04 11:48:04 +0000";
layers = (
{
background = {
shapes = (
{
closed = 1;
nodes = (
(117,725,l),
(19,31,ls),
(15,4,o),
(17,0,o),
(38,0,c),
(211,0,ls),
(234,0,o),
(242,2,o),
(245,23,c),
(279,265,ls),
(282,284,o),
(285,286,o),
(295,286,c),
(485,286,ls),
(499,286,o),
(503,288,o),
(505,300,c),
(524,432,ls),
(525,443,o),
(523,445,o),
(512,445,c),
(317,445,ls),
(306,445,o),
(304,447,o),
(306,459,c),
(320,556,ls),
(322,574,o),
(324,578,o),
(340,578,c),
(644,578,ls),
(662,578,o),
(666,583,o),
(668,599,c),
(686,723,ls),
(688,738,o),
(687,742,o),
(675,742,c),
(134,742,ls),
(123,742,o),
(119,740,o),
(117,725,c)
);
}
);
};
layerId = "258ED206-D907-4350-8EBA-CBDDA1C16BF7";
shapes = (
{
closed = 1;
nodes = (
(117,725,l),
(19,31,ls),
(15,4,o),
(17,0,o),
(38,0,c),
(219,0,ls),
(239,0,o),
(242,3,o),
(245,23,c),
(279,265,ls),
(282,284,o),
(285,286,o),
(295,286,c),
(485,286,ls),
(499,286,o),
(503,288,o),
(505,300,c),
(524,432,ls),
(525,443,o),
(523,445,o),
(512,445,c),
(317,445,ls),
(306,445,o),
(304,447,o),
(306,459,c),
(320,556,ls),
(322,574,o),
(325,578,o),
(335,578,c),
(644,578,ls),
(662,578,o),
(666,583,o),
(668,599,c),
(686,723,ls),
(688,737,o),
(686,742,o),
(675,742,c),
(134,742,ls),
(123,742,o),
(119,740,o),
(117,725,c)
);
}
);
width = 650;
},
{
background = {
shapes = (
{
closed = 1;
nodes = (
(180,732,l),
(78,11,ls),
(77,3,o),
(77,0,o),
(84,0,c),
(114,0,ls),
(119,0,o),
(123,1,o),
(124,6,c),
(169,332,ls),
(171,340,o),
(172,342,o),
(179,342,c),
(479,342,ls),
(485,342,o),
(488,345,o),
(488,351,c),
(490,375,ls),
(490,380,o),
(488,382,o),
(483,382,c),
(185,382,ls),
(178,382,o),
(177,385,o),
(178,391,c),
(220,692,ls),
(221,700,o),
(224,702,o),
(231,702,c),
(589,702,ls),
(595,702,o),
(597,704,o),
(598,710,c),
(601,734,ls),
(602,739,o),
(599,742,o),
(594,742,c),
(190,742,ls),
(183,742,o),
(181,741,o),
(180,732,c)
);
}
);
};
layerId = "91AB5BCA-6A50-42DA-B2F7-8181BF189245";
shapes = (
{
closed = 1;
nodes = (
(180,732,l),
(78,11,ls),
(77,3,o),
(77,0,o),
(84,0,c),
(114,0,ls),
(119,0,o),
(123,1,o),
(124,6,c),
(169,332,ls),
(171,340,o),
(172,342,o),
(179,342,c),
(479,342,ls),
(485,342,o),
(488,345,o),
(488,351,c),
(490,375,ls),
(490,380,o),
(488,382,o),
(483,382,c),
(185,382,ls),
(178,382,o),
(177,385,o),
(178,391,c),
(220,692,ls),
(221,700,o),
(224,702,o),
(231,702,c),
(589,702,ls),
(595,702,o),
(597,704,o),
(598,710,c),
(601,734,ls),
(602,739,o),
(599,742,o),
(594,742,c),
(190,742,ls),
(183,742,o),
(181,741,o),
(180,732,c)
);
}
);
width = 583;
}
);
unicode = 70;
},
{
glyphname = G;
kernLeft = O;
kernRight = G;
lastChange = "2024-09-04 11:48:04 +0000";
layers = (
{
anchors = (
{
name = bottom;
pos = (345,0);
},
{
name = top;
pos = (449,742);
}
);
background = {
anchors = (
{
name = bottom;
pos = (345,0);
},
{
name = top;
pos = (449,742);
}
);
shapes = (
{
closed = 1;
nodes = (
(349,-10,l),
(463,-10,o),
(521,38,o),
(556,73,c),
(568,85,o),
(576,85,o),
(580,76,c),
(610,17,ls),
(616,4,o),
(623,0,o),
(635,0,c),
(670,0,ls),
(680,0,o),
(687,5,o),
(688,14,c),
(735,348,ls),
(739,367,o),
(733,375,o),
(715,375,c),
(416,377,ls),
(403,377,o),
(398,371,o),
(397,362,c),
(385,258,ls),
(384,246,o),
(386,242,o),
(395,242,c),
(491,242,ls),
(505,242,o),
(507,239,o),
(501,228,c),
(496,220,ls),
(469,176,o),
(431,146,o),
(371,146,c),
(299,146,o),
(257,187,o),
(282,363,c),
(306,538,o),
(365,597,o),
(443,597,c),
(511,597,o),
(533,553,o),
(543,503,c),
(548,477,o),
(554,471,o),
(561,472,c),
(733,497,ls),
(743,498,o),
(745,503,o),
(744,522,c),
(738,635,o),
(637,752,o),
(453,752,c),
(243,752,o),
(78,605,o),
(46,379,c),
(14,151,o),
(134,-10,o),
(349,-10,c)
);
}
);
};
layerId = "258ED206-D907-4350-8EBA-CBDDA1C16BF7";
shapes = (
{
closed = 1;
nodes = (
(349,-10,l),
(463,-10,o),
(521,38,o),
(556,73,c),
(566,83,o),
(575,85,o),
(580,76,c),
(610,17,ls),
(616,4,o),
(623,0,o),
(635,0,c),
(670,0,ls),
(680,0,o),
(687,5,o),
(688,14,c),
(736,354,ls),
(738,371,o),
(735,375,o),
(715,375,c),
(409,377,ls),
(401,377,o),
(398,373,o),
(397,364,c),
(385,258,ls),
(384,246,o),
(386,242,o),
(395,242,c),
(491,242,ls),
(505,242,o),
(507,237,o),
(501,228,c),
(496,220,ls),
(469,176,o),
(431,146,o),
(371,146,c),
(313,146,o),
(275,172,o),
(275,274,c),
(275,413,o),
(316,597,o),
(443,597,c),
(511,597,o),
(533,553,o),
(543,503,c),
(548,477,o),
(551,471,o),
(558,472,c),
(735,497,ls),
(743,498,o),
(744,506,o),
(744,522,c),
(738,635,o),
(637,752,o),
(453,752,c),
(210,752,o),
(41,556,o),
(41,308,c),
(41,118,o),
(157,-10,o),
(349,-10,c)
);
}
);
width = 761;
},
{
anchors = (
{
name = bottom;
pos = (342,0);
},
{
name = top;
pos = (441,742);
}
);
background = {
anchors = (
{
name = bottom;
pos = (342,0);
},
{
name = top;
pos = (441,742);
}
);
shapes = (
{
closed = 1;
nodes = (
(336,-10,l),
(446,-10,o),
(531,45,o),
(575,116,c),
(580,124,o),
(584,122,o),
(583,116,c),
(568,10,ls),
(567,2,o),
(570,0,o),
(579,0,c),
(596,0,ls),
(604,0,o),
(607,2,o),
(608,10,c),
(659,370,ls),
(659,374,o),
(657,377,o),
(653,377,c),
(417,377,ls),
(414,377,o),
(413,376,o),
(412,372,c),
(409,349,ls),
(408,343,o),
(411,342,o),
(416,342,c),
(605,342,ls),
(613,342,o),
(615,340,o),
(614,334,c),
(603,256,ls),
(590,162,o),
(498,32,o),
(339,32,c),
(177,32,o),
(110,152,o),
(141,372,c),
(171,583,o),
(277,710,o),
(439,710,c),
(544,710,o),
(618,641,o),
(621,553,c),
(621,546,o),
(622,543,o),
(626,544,c),
(664,550,ls),
(668,551,o),
(669,553,o),
(669,557,c),
(672,662,o),
(564,752,o),
(440,752,c),
(260,752,o),
(127,615,o),
(93,370,c),
(59,130,o),
(150,-10,o),
(336,-10,c)
);
}
);
};
layerId = "91AB5BCA-6A50-42DA-B2F7-8181BF189245";
shapes = (
{
closed = 1;
nodes = (
(336,-10,l),
(446,-10,o),
(531,45,o),
(575,116,c),
(580,123,o),
(584,123,o),
(583,116,c),
(568,10,ls),
(567,2,o),
(570,0,o),
(579,0,c),
(596,0,ls),
(604,0,o),
(607,2,o),
(608,10,c),
(659,370,ls),
(660,374,o),
(657,377,o),
(653,377,c),
(417,377,ls),
(414,377,o),
(413,376,o),
(412,372,c),
(409,349,ls),
(408,343,o),
(411,342,o),
(416,342,c),
(605,342,ls),
(613,342,o),
(615,341,o),
(614,334,c),
(603,256,ls),
(590,162,o),
(498,32,o),
(339,32,c),
(203,32,o),
(134,117,o),
(134,275,c),
(134,499,o),
(232,710,o),
(439,710,c),
(544,710,o),
(618,640,o),
(621,553,c),
(621,545,o),
(622,542,o),
(627,543,c),
(664,549,ls),
(668,550,o),
(669,551,o),
(669,557,c),
(671,662,o),
(564,752,o),
(440,752,c),
(208,752,o),
(86,524,o),
(86,276,c),
(86,94,o),
(176,-10,o),
(336,-10,c)
);
}
);
width = 730;
}
);
unicode = 71;
},
{
glyphname = Gacute;
kernLeft = O;
lastChange = "2024-09-04 11:48:04 +0000";
layers = (
{
background = {
shapes = (
{
closed = 1;
nodes = (
(128,45,o),
(78,141,cs,{
name = inserted;
}),
(54,189,o,{
name = inserted;
}),
(41,245,o),
(41,308,c),
(41,473,o),
(114,614,o),
(240,693,cs,{
name = inserted;
}),
(303,733,o,{
name = inserted;
}),
(374,752,o),
(453,752,c),
(571,752,o),
(659,704,o),
(706,634,cs,{
name = inserted;
}),
(730,598,o,{
name = inserted;
}),
(743,562,o),
(744,522,c),
(744,505,o),
(743,498,o),
(735,497,c),
(558,472,l),
(551,471,o),
(548,478,o),
(543,503,c),
(531,562,o),
(506,597,o),
(443,597,c),
(364,597,o),
(313,524,o),
(292,425,cs,{
name = inserted;
}),
(280,375,o,{
name = inserted;
}),
(275,326,o),
(275,274,c),
(275,178,o),
(308,146,o),
(371,146,c),
(425,146,o,{
name = inserted;
}),
(467,170,o),
(496,220,c),
(501,228,l),
(504,232,o,{
name = inserted;
}),
(504,235,o),
(504,236,c),
(504,240,o,{
name = inserted;
}),
(500,242,o),
(491,242,c),
(395,242,l),
(386,242,o),
(384,246,o),
(385,258,c),
(397,364,l),
(398,373,o,{
name = inserted;
}),
(402,377,o),
(409,377,c),
(715,375,l),
(735,375,o),
(739,371,o),
(736,354,c),
(688,14,l),
(687,5,o,{
name = inserted;
}),
(681,0,o),
(670,0,c),
(635,0,l),
(623,0,o),
(615,4,o),
(610,17,c),
(580,76,l),
(579,80,o,{
name = inserted;
}),
(575,82,o),
(571,82,c),
(567,82,o,{
name = inserted;
}),
(563,80,o),
(556,73,c),
(508,25,o),
(451,-10,o),
(349,-10,c),
(222,-10,o)
);
},
{
closed = 1;
nodes = (
(615,862,o,{
name = inserted;
}),
(615,859,o),
(615,855,c),
(615,846,o),
(611,841,o),
(596,837,c),
(355,781,l),
(354,781,o,{
name = inserted;
}),
(351,780,o),
(347,780,c),
(336,780,o,{
name = inserted;
}),
(330,787,o),
(326,800,c),
(317,843,l),
(316,850,o,{
name = inserted;
}),
(315,854,o),
(315,854,c),
(315,859,o,{
name = inserted;
}),
(318,863,o),
(322,864,c),
(575,965,l),
(576,966,o,{
name = inserted;
}),
(578,966,o),
(579,966,c),
(586,966,o),
(592,957,o),
(595,946,c),
(614,865,l)
);
}
);
};
layerId = "258ED206-D907-4350-8EBA-CBDDA1C16BF7";
shapes = (
{
ref = G;
},
{
pos = (572,212);
ref = acutecomb;
}
);
width = 761;
},
{
layerId = "91AB5BCA-6A50-42DA-B2F7-8181BF189245";
shapes = (
{
ref = G;
},
{
pos = (540,212);
ref = acutecomb;
}
);
width = 730;
}
);
unicode = 500;
},
{
glyphname = H;
lastChange = "2024-09-04 11:48:04 +0000";
layers = (
{
anchors = (
{
name = bottom;
pos = (341,0);
},
{
name = top;
pos = (447,742);
}
);
background = {
anchors = (
{
name = bottom;
pos = (341,0);
},
{
name = top;
pos = (447,742);
}
);
shapes = (
{
closed = 1;
nodes = (
(471,297,l),
(481,297,o),
(487,296,o),
(486,288,c),
(450,28,ls),
(447,7,o),
(452,0,o),
(475,0,c),
(650,0,ls),
(671,0,o),
(673,2,o),
(675,19,c),
(773,713,ls),
(776,737,o),
(773,742,o),
(763,742,c),
(566,742,ls),
(555,742,o),
(550,740,o),
(548,727,c),
(515,495,ls),
(513,482,o),
(509,469,o),
(498,469,c),
(322,469,ls),
(311,469,o),
(308,473,o),
(310,486,c),
(343,725,ls),
(345,738,o),
(344,742,o),
(333,742,c),
(134,742,ls),
(123,742,o),
(119,740,o),
(117,725,c),
(18,22,ls),
(16,5,o),
(17,0,o),
(38,0,c),
(213,0,ls),
(236,0,o),
(242,2,o),
(245,23,c),
(281,276,ls),
(283,293,o),
(289,297,o),
(299,297,c)
);
}
);
};
layerId = "258ED206-D907-4350-8EBA-CBDDA1C16BF7";
shapes = (
{
closed = 1;
nodes = (
(471,297,l),
(481,297,o),
(487,296,o),
(486,288,c),
(450,28,ls),
(447,7,o),
(452,0,o),
(475,0,c),
(650,0,ls),
(671,0,o),
(673,2,o),
(675,19,c),
(773,713,ls),
(776,737,o),
(773,742,o),
(763,742,c),
(566,742,ls),
(555,742,o),
(550,740,o),
(548,727,c),
(515,495,ls),
(513,482,o),
(509,469,o),
(498,469,c),
(322,469,ls),
(311,469,o),
(308,473,o),
(310,486,c),
(343,725,ls),
(345,738,o),
(344,742,o),
(333,742,c),
(134,742,ls),
(123,742,o),
(119,740,o),
(117,725,c),
(18,22,ls),
(16,5,o),
(17,0,o),
(38,0,c),
(213,0,ls),
(236,0,o),
(242,2,o),
(245,23,c),
(281,276,ls),
(283,293,o),
(289,297,o),
(299,297,c)
);
}
);
width = 762;
},
{
anchors = (
{
name = bottom;
pos = (326,0);
},
{
name = top;
pos = (430,742);
}
);
background = {
anchors = (
{
name = bottom;
pos = (326,0);
},
{
name = top;
pos = (430,742);
}
);
shapes = (
{
closed = 1;
nodes = (
(573,366,l),
(578,366,o),
(579,365,o),
(578,360,c),
(529,10,ls),
(528,3,o),
(532,0,o),
(539,0,c),
(566,0,ls),
(572,0,o),
(574,2,o),
(575,9,c),
(676,731,ls),
(678,739,o),
(675,742,o),
(668,742,c),
(639,742,ls),
(633,742,o),
(632,740,o),
(631,734,c),
(586,415,ls),
(585,409,o),
(582,406,o),
(576,406,c),
(188,406,ls),
(181,406,o),
(180,406,o),
(181,414,c),
(225,731,ls),
(227,739,o),
(224,742,o),
(217,742,c),
(189,742,ls),
(182,742,o),
(181,741,o),
(180,733,c),
(78,11,ls),
(77,4,o),
(80,0,o),
(87,0,c),
(114,0,ls),
(121,0,o),
(123,2,o),
(124,8,c),
(173,359,ls),
(174,362,o),
(177,366,o),
(181,366,c)
);
}
);
};
layerId = "91AB5BCA-6A50-42DA-B2F7-8181BF189245";
shapes = (
{
closed = 1;
nodes = (
(573,366,l),
(578,366,o),
(579,365,o),
(578,360,c),
(529,10,ls),
(528,3,o),
(532,0,o),
(539,0,c),
(566,0,ls),
(572,0,o),
(574,2,o),
(575,9,c),
(676,731,ls),
(678,739,o),
(675,742,o),
(668,742,c),
(639,742,ls),
(633,742,o),
(632,740,o),
(631,734,c),
(586,415,ls),
(585,409,o),
(582,406,o),
(576,406,c),
(188,406,ls),
(181,406,o),
(180,406,o),
(181,414,c),
(225,731,ls),
(227,739,o),
(224,742,o),
(217,742,c),
(189,742,ls),
(182,742,o),
(181,741,o),
(180,733,c),
(78,11,ls),
(77,4,o),
(80,0,o),
(87,0,c),
(114,0,ls),
(121,0,o),
(123,2,o),
(124,8,c),
(173,359,ls),
(174,362,o),
(177,366,o),
(181,366,c)
);
}
);
width = 725;
}
);
unicode = 72;
},
{
glyphname = Hbar;
lastChange = "2024-09-04 11:48:04 +0000";
layers = (
{
background = {
shapes = (
{
closed = 1;
nodes = (
(851,634,l),
(852,645,o),
(844,658,o),
(834,658,c),
(67,658,ls),
(57,658,o),
(55,657,o),
(53,644,c),
(45,583,ls),
(43,568,o),
(50,555,o),
(67,555,c),
(815,555,ls),
(835,555,o),
(840,556,o),
(842,573,c)
);
},
{
pos = (-12,0);
ref = H;
}
);
};
layerId = "258ED206-D907-4350-8EBA-CBDDA1C16BF7";
shapes = (
{
closed = 1;
nodes = (
(851,634,l),
(852,645,o),
(844,658,o),
(834,658,c),
(67,658,ls),
(57,658,o),
(55,657,o),
(53,644,c),
(45,583,ls),
(43,568,o),
(50,555,o),
(67,555,c),
(815,555,ls),
(835,555,o),
(840,556,o),
(842,573,c)
);
},
{
pos = (-12,0);
ref = H;
}
);
width = 799;
},
{
background = {
shapes = (
{
closed = 1;
nodes = (
(750,609,l),
(751,614,o),
(749,618,o),
(744,618,c),
(61,618,ls),
(56,618,o),
(54,616,o),
(53,610,c),
(51,589,ls),
(50,582,o),
(52,578,o),
(60,578,c),
(734,578,ls),
(743,578,o),
(746,580,o),
(747,588,c)
);
},
{
pos = (-38,0);
ref = H;
}
);
};
layerId = "91AB5BCA-6A50-42DA-B2F7-8181BF189245";
shapes = (
{
closed = 1;
nodes = (
(750,609,l),
(751,614,o),
(749,618,o),
(744,618,c),
(61,618,ls),
(56,618,o),
(54,616,o),
(53,610,c),
(51,589,ls),
(50,582,o),
(52,578,o),
(60,578,c),
(734,578,ls),
(743,578,o),
(746,580,o),
(747,588,c)
);
},
{
pos = (-38,0);
ref = H;
}
);
width = 707;
}
);
unicode = 294;
},
{
glyphname = I;
lastChange = "2024-09-04 11:48:04 +0000";
layers = (
{
anchors = (
{
name = bottom;
pos = (128,0);
},
{
name = ogonek;
pos = (211,10);
},
{
name = top;
pos = (233,742);
}
);
background = {
anchors = (
{
name = bottom;
pos = (128,0);
},
{
name = ogonek;
pos = (211,10);
},
{
name = top;
pos = (233,742);
}
);
shapes = (
{
closed = 1;
nodes = (
(134,742,l),
(123,742,o),
(119,740,o),
(117,725,c),
(19,31,ls),
(17,14,o),
(25,0,o),
(46,0,c),
(213,0,ls),
(236,0,o),
(242,2,o),
(245,23,c),
(342,715,ls),
(344,728,o),
(336,742,o),
(324,742,c)
);
}
);
};
layerId = "258ED206-D907-4350-8EBA-CBDDA1C16BF7";
shapes = (
{
closed = 1;
nodes = (
(134,742,l),
(123,742,o),
(119,740,o),
(117,725,c),
(19,31,ls),
(17,14,o),
(18,0,o),
(39,0,c),
(213,0,ls),
(236,0,o),
(242,2,o),
(245,23,c),
(342,715,ls),
(344,731,o),
(341,742,o),
(328,742,c)
);
}
);
width = 331;
},
{
anchors = (
{
name = bottom;
pos = (100,0);
},
{
name = ogonek;
pos = (115,11);
},
{
name = top;
pos = (207,742);
}
);
background = {
anchors = (
{
name = bottom;
pos = (100,0);
},
{
name = ogonek;
pos = (113,10);
},
{
name = top;
pos = (207,742);
}
);
shapes = (
{
closed = 1;
nodes = (
(189,742,l),
(182,742,o),
(181,741,o),
(180,733,c),
(78,11,ls),
(77,3,o),
(80,0,o),
(89,0,c),
(112,0,ls),
(122,0,o),
(123,1,o),
(124,11,c),
(225,731,ls),
(227,739,o),
(224,742,o),
(217,742,c)
);
}
);
};
layerId = "91AB5BCA-6A50-42DA-B2F7-8181BF189245";
shapes = (
{
closed = 1;
nodes = (
(189,742,l),
(182,742,o),
(181,741,o),
(180,733,c),
(78,11,ls),
(77,3,o),
(80,0,o),
(89,0,c),
(112,0,ls),
(122,0,o),
(123,1,o),
(124,11,c),
(225,731,ls),
(227,739,o),
(224,742,o),
(217,742,c)
);
}
);
width = 274;
}
);
unicode = 73;
},
{
glyphname = J;
kernLeft = J;
kernRight = J;
lastChange = "2024-09-04 11:48:04 +0000";
layers = (
{
anchors = (
{
name = top;
pos = (310,742);
}
);
background = {
anchors = (
{
name = top;
pos = (310,742);
}
);
shapes = (
{
closed = 1;
nodes = (
(412,206,l),
(483,715,ls),
(485,728,o),
(477,742,o),
(465,742,c),
(276,742,ls),
(264,742,o),
(260,740,o),
(258,725,c),
(194,274,ls),
(185,206,o),
(147,175,o),
(94,175,c),
(76,175,o),
(60,179,o),
(40,180,c),
(28,183,o),
(25,180,o),
(22,165,c),
(-4,51,ls),
(-9,23,o),
(-3,12,o),
(23,5,c),
(64,-6,o),
(106,-10,o),
(151,-10,c),
(303,-10,o),
(389,42,o),
(412,206,c)
);
}
);
};
layerId = "258ED206-D907-4350-8EBA-CBDDA1C16BF7";
shapes = (
{
closed = 1;
nodes = (
(412,206,l),
(483,715,ls),
(486,733,o),
(483,742,o),
(471,742,c),
(276,742,ls),
(264,742,o),
(260,740,o),
(258,725,c),
(194,274,ls),
(185,206,o),
(147,175,o),
(94,175,c),
(76,175,o),
(60,177,o),
(40,180,c),
(29,182,o),
(24,177,o),
(21,162,c),
(-7,31,ls),
(-10,16,o),
(-3,12,o),
(23,5,c),
(64,-6,o),
(106,-10,o),
(151,-10,c),
(303,-10,o),
(389,42,o),
(412,206,c)
);
}
);
width = 467;
},
{
anchors = (
{
name = top;
pos = (333,742);
}
);
background = {
anchors = (
{
name = top;
pos = (333,742);
}
);
shapes = (
{
closed = 1;
nodes = (
(272,143,l),
(354,731,ls),
(355,738,o),
(353,742,o),
(347,742,c),
(317,742,ls),
(311,742,o),
(310,740,o),
(309,734,c),
(228,155,ls),
(214,62,o),
(188,34,o),
(122,34,c),
(74,34,o),
(54,49,o),
(33,58,c),
(30,60,o),
(28,61,o),
(27,56,c),
(12,25,ls),
(12,21,o),
(14,18,o),
(18,16,c),
(23,11,o),
(65,-10,o),
(121,-10,c),
(217,-10,o),
(259,48,o),
(272,143,c)
);
}
);
};
layerId = "91AB5BCA-6A50-42DA-B2F7-8181BF189245";
shapes = (
{
closed = 1;
nodes = (
(272,143,l),
(354,731,ls),
(355,738,o),
(353,742,o),
(347,742,c),
(317,742,ls),
(311,742,o),
(310,740,o),
(309,734,c),
(228,155,ls),
(215,67,o),
(190,34,o),
(124,34,c),
(83,34,o),
(54,47,o),
(40,54,c),
(30,59,o),
(28,58,o),
(27,55,c),
(12,25,ls),
(10,21,o),
(13,18,o),
(18,15,c),
(25,11,o),
(64,-10,o),
(121,-10,c),
(217,-10,o),
(259,48,o),
(272,143,c)
);
}
);
width = 399;
}
);
unicode = 74;
},
{
glyphname = K;
kernRight = K;
lastChange = "2024-09-04 11:48:04 +0000";
layers = (
{
anchors = (
{
name = bottom;
pos = (334,0);
},
{
name = top;
pos = (438,742);
}
);
background = {
anchors = (
{
name = bottom;
pos = (334,0);
},
{
name = top;
pos = (438,742);
}
);
shapes = (
{
closed = 1;
nodes = (
(709,26,l),
(554,475,ls),
(551,489,o),
(556,496,o),
(566,507,c),
(760,709,ls),
(774,724,o),
(778,742,o),
(756,742,c),
(584,742,ls),
(560,742,o),
(554,741,o),
(541,726,c),
(319,468,l),
(311,458,o),
(304,446,o),
(307,462,c),
(342,715,ls),
(344,728,o),
(336,742,o),
(324,742,c),
(134,742,ls),
(123,742,o),
(119,740,o),
(117,725,c),
(19,31,ls),
(17,14,o),
(25,0,o),
(46,0,c),
(213,0,ls),
(236,0,o),
(242,2,o),
(245,23,c),
(266,174,ls),
(268,184,o),
(273,192,o),
(279,198,c),
(363,288,ls),
(373,301,o),
(381,313,o),
(385,303,c),
(469,25,ls),
(472,10,o),
(486,0,o),
(503,0,c),
(698,0,ls),
(718,0,o),
(715,10,o),
(709,26,c)
);
}
);
};
layerId = "258ED206-D907-4350-8EBA-CBDDA1C16BF7";
shapes = (
{
closed = 1;
nodes = (
(709,26,l),
(554,475,ls),
(551,489,o),
(556,496,o),
(566,507,c),
(768,718,ls),
(782,732,o),
(778,742,o),
(756,742,c),
(584,742,ls),
(560,742,o),
(554,741,o),
(541,726,c),
(319,468,l),
(311,458,o),
(304,446,o),
(307,462,c),
(342,715,ls),
(344,728,o),
(336,742,o),
(324,742,c),
(134,742,ls),
(123,742,o),
(119,740,o),
(117,725,c),
(19,31,ls),
(17,14,o),
(20,0,o),
(37,0,c),
(213,0,ls),
(236,0,o),
(243,6,o),
(245,23,c),
(266,174,ls),
(268,184,o),
(273,192,o),
(279,198,c),
(363,288,ls),
(373,301,o),
(381,313,o),
(385,303,c),
(469,25,ls),
(472,10,o),
(480,0,o),
(497,0,c),
(692,0,ls),
(712,0,o),
(715,10,o),
(709,26,c)
);
}
);
width = 772;
},
{
anchors = (
{
name = bottom;
pos = (306,0);
},
{
name = top;
pos = (440,742);
}
);
background = {
anchors = (
{
name = bottom;
pos = (306,0);
},
{
name = top;
pos = (440,742);
}
);
shapes = (
{
closed = 1;
nodes = (
(586,6,l),
(367,444,ls),
(367,448,o),
(368,448,o),
(370,450,c),
(669,733,ls),
(673,737,o),
(671,742,o),
(665,742,c),
(627,742,ls),
(621,742,o),
(619,742,o),
(616,739,c),
(174,323,ls),
(168,318,o),
(167,316,o),
(168,322,c),
(226,733,ls),
(227,739,o),
(223,742,o),
(218,742,c),
(188,742,ls),
(182,742,o),
(181,740,o),
(180,735,c),
(78,10,ls),
(77,3,o),
(81,0,o),
(88,0,c),
(114,0,ls),
(121,0,o),
(123,2,o),
(124,8,c),
(157,245,ls),
(158,253,o),
(162,256,o),
(169,262,c),
(321,408,ls),
(327,413,o),
(330,416,o),
(333,410,c),
(535,6,ls),
(536,3,o),
(540,0,o),
(545,0,c),
(584,0,ls),
(588,0,o),
(588,2,o),
(586,6,c)
);
}
);
};
layerId = "91AB5BCA-6A50-42DA-B2F7-8181BF189245";
shapes = (
{
closed = 1;
nodes = (
(584,10,l),
(367,444,ls),
(365,448,o),
(368,448,o),
(370,450,c),
(669,733,ls),
(673,737,o),
(673,742,o),
(667,742,c),
(629,742,ls),
(623,742,o),
(618,741,o),
(614,737,c),
(174,323,ls),
(168,318,o),
(167,316,o),
(168,322,c),
(226,733,ls),
(227,739,o),
(223,742,o),
(218,742,c),
(188,742,ls),
(182,742,o),
(181,740,o),
(180,735,c),
(78,10,ls),
(77,3,o),
(81,0,o),
(88,0,c),
(114,0,ls),
(121,0,o),
(123,2,o),
(124,8,c),
(157,245,ls),
(158,253,o),
(162,256,o),
(169,262,c),
(321,408,ls),
(327,413,o),
(330,416,o),
(333,410,c),
(535,6,ls),
(536,3,o),
(539,0,o),
(544,0,c),
(583,0,ls),
(587,0,o),
(588,3,o),
(584,10,c)
);
}
);
width = 674;
}
);
unicode = 75;
},
{
glyphname = L;
kernRight = L;
lastChange = "2024-09-04 11:48:04 +0000";
layers = (
{
anchors = (
{
name = bottom;
pos = (277,0);
},
{
name = top;
pos = (235,742);
},
{
name = topright;
pos = (577,742);
}
);
background = {
anchors = (
{
name = bottom;
pos = (277,0);
},
{
name = top;
pos = (235,742);
},
{
name = topright;
pos = (577,742);
}
);
shapes = (
{
closed = 1;
nodes = (
(116,722,l),
(19,31,ls),
(17,11,o),
(25,0,o),
(43,0,c),
(557,0,ls),
(573,0,o),
(578,3,o),
(580,16,c),
(597,139,ls),
(599,155,o),
(594,164,o),
(582,164,c),
(278,164,ls),
(269,164,o),
(265,170,o),
(267,181,c),
(342,715,ls),
(345,732,o),
(340,742,o),
(330,742,c),
(134,742,ls),
(123,742,o),
(118,737,o),
(116,722,c)
);
}
);
};
layerId = "258ED206-D907-4350-8EBA-CBDDA1C16BF7";
shapes = (
{
closed = 1;
nodes = (
(116,722,l),
(19,31,ls),
(17,11,o),
(25,0,o),
(43,0,c),
(557,0,ls),
(573,0,o),
(578,3,o),
(580,16,c),
(597,139,ls),
(599,155,o),
(594,164,o),
(582,164,c),
(278,164,ls),
(269,164,o),
(265,170,o),
(267,181,c),
(342,715,ls),
(345,732,o),
(340,742,o),
(330,742,c),
(134,742,ls),
(123,742,o),
(118,737,o),
(116,722,c)
);
}
);
width = 643;
},
{
anchors = (
{
name = bottom;
pos = (282,0);
},
{
name = top;
pos = (204,742);
},
{
name = topright;
pos = (490,742);
}
);
background = {
anchors = (
{
name = bottom;
pos = (282,0);
},
{
name = top;
pos = (204,742);
},
{
name = topright;
pos = (490,742);
}
);
shapes = (
{
closed = 1;
nodes = (
(180,733,l),
(78,11,ls),
(77,4,o),
(80,0,o),
(87,0,c),
(497,0,ls),
(502,0,o),
(503,1,o),
(504,6,c),
(507,32,ls),
(508,38,o),
(506,40,o),
(499,40,c),
(136,40,ls),
(129,40,o),
(128,41,o),
(130,48,c),
(225,731,ls),
(227,739,o),
(224,742,o),
(217,742,c),
(189,742,ls),
(182,742,o),
(181,741,o),
(180,733,c)
);
}
);
};
layerId = "91AB5BCA-6A50-42DA-B2F7-8181BF189245";
shapes = (
{
closed = 1;
nodes = (
(180,733,l),
(78,11,ls),
(77,4,o),
(80,0,o),
(87,0,c),
(497,0,ls),
(502,0,o),
(503,1,o),
(504,6,c),
(507,32,ls),
(508,38,o),
(506,40,o),
(499,40,c),
(136,40,ls),
(129,40,o),
(128,41,o),
(130,48,c),
(225,731,ls),
(226,738,o),
(226,742,o),
(219,742,c),
(191,742,ls),
(184,742,o),
(181,741,o),
(180,733,c)
);
}
);
width = 587;
}
);
unicode = 76;
},
{
glyphname = Lslash;
lastChange = "2024-09-04 11:48:04 +0000";
layers = (
{
background = {
shapes = (
{
closed = 1;
nodes = (
(476,528,l),
(478,544,o),
(469,559,o),
(452,554,c),
(31,445,ls),
(19,442,o),
(16,442,o),
(14,427,c),
(-3,307,ls),
(-5,290,o),
(2,275,o),
(23,281,c),
(441,395,ls),
(456,399,o),
(458,403,o),
(460,415,c)
);
},
{
pos = (-37,0);
ref = L;
}
);
};
layerId = "258ED206-D907-4350-8EBA-CBDDA1C16BF7";
shapes = (
{
closed = 1;
nodes = (
(446,528,l),
(448,544,o),
(439,558,o),
(422,554,c),
(1,445,ls),
(-11,442,o),
(-14,442,o),
(-16,427,c),
(-33,307,ls),
(-35,290,o),
(-28,275,o),
(-7,281,c),
(411,395,ls),
(426,399,o),
(428,403,o),
(430,415,c)
);
},
{
pos = (-37,0);
ref = L;
}
);
width = 606;
},
{
background = {
shapes = (
{
closed = 1;
nodes = (
(350,431,l),
(351,435,o),
(348,438,o),
(343,437,c),
(51,365,ls),
(48,364,o),
(47,362,o),
(46,357,c),
(43,333,ls),
(42,328,o),
(45,326,o),
(50,327,c),
(341,400,ls),
(345,401,o),
(346,403,o),
(347,407,c)
);
},
{
pos = (-37,0);
ref = L;
}
);
};
layerId = "91AB5BCA-6A50-42DA-B2F7-8181BF189245";
shapes = (
{
closed = 1;
nodes = (
(350,431,l),
(351,435,o),
(348,438,o),
(343,437,c),
(51,365,ls),
(48,364,o),
(47,362,o),
(46,357,c),
(43,333,ls),
(42,328,o),
(45,326,o),
(50,327,c),
(341,400,ls),
(345,401,o),
(346,403,o),
(347,407,c)
);
},
{
pos = (-37,0);
ref = L;
}
);
width = 550;
}
);
metricRight = L;
unicode = 321;
},
{
glyphname = M;
lastChange = "2024-09-04 11:48:04 +0000";
layers = (
{
background = {
shapes = (
{
closed = 1;
nodes = (
(45,0,l),
(178,0,ls),
(196,0,o),
(195,-2,o),
(198,16,c),
(260,458,ls),
(262,471,o),
(272,486,o),
(275,470,c),
(357,23,ls),
(358,11,o),
(368,0,o),
(380,0,c),
(485,0,ls),
(496,0,o),
(502,2,o),
(508,13,c),
(717,468,ls),
(721,480,o),
(730,491,o),
(728,480,c),
(665,31,ls),
(663,14,o),
(671,0,o),
(691,0,c),
(860,0,ls),
(883,0,o),
(888,2,o),
(891,23,c),
(988,715,ls),
(990,728,o),
(982,742,o),
(970,742,c),
(681,742,ls),
(667,742,o),
(661,736,o),
(654,718,c),
(517,411,ls),
(513,402,o),
(506,390,o),
(503,401,c),
(443,719,ls),
(441,733,o),
(433,742,o),
(416,742,c),
(136,742,ls),
(121,742,o),
(119,741,o),
(117,725,c),
(20,34,ls),
(17,17,o),
(29,0,o),
(45,0,c)
);
}
);
};
layerId = "258ED206-D907-4350-8EBA-CBDDA1C16BF7";
shapes = (
{
closed = 1;
nodes = (
(35,0,l),
(178,0,ls),
(191,0,o),
(196,3,o),
(198,16,c),
(262,467,ls),
(264,479,o),
(273,480,o),
(276,465,c),
(357,23,ls),
(361,4,o),
(368,0,o),
(380,0,c),
(485,0,ls),
(496,0,o),
(502,2,o),
(508,13,c),
(717,468,ls),
(723,481,o),
(729,481,o),
(727,470,c),
(665,31,ls),
(661,6,o),
(671,0,o),
(691,0,c),
(860,0,ls),
(883,0,o),
(888,2,o),
(891,23,c),
(990,726,ls),
(992,737,o),
(988,742,o),
(977,742,c),
(681,742,ls),
(667,742,o),
(661,736,o),
(654,718,c),
(513,403,ls),
(510,396,o),
(504,395,o),
(503,403,c),
(443,719,ls),
(440,733,o),
(433,742,o),
(416,742,c),
(136,742,ls),
(121,742,o),
(119,741,o),
(117,725,c),
(20,34,ls),
(16,5,o),
(19,0,o),
(35,0,c)
);
}
);
width = 977;
},
{
background = {
shapes = (
{
closed = 1;
nodes = (
(87,0,l),
(112,0,ls),
(119,0,o),
(121,2,o),
(122,8,c),
(208,621,ls),
(209,625,o),
(211,626,o),
(211,623,c),
(370,11,ls),
(371,4,o),
(377,0,o),
(388,0,c),
(415,0,ls),
(424,0,o),
(427,2,o),
(431,10,c),
(768,626,ls),
(768,629,o),
(771,633,o),
(770,628,c),
(683,10,ls),
(682,3,o),
(686,0,o),
(693,0,c),
(720,0,ls),
(726,0,o),
(728,2,o),
(729,9,c),
(830,731,ls),
(832,739,o),
(829,742,o),
(822,742,c),
(793,742,ls),
(787,742,o),
(785,741,o),
(782,736,c),
(416,66,ls),
(409,52,o),
(404,50,o),
(401,63,c),
(227,733,l),
(227,739,o),
(223,742,o),
(215,742,c),
(189,742,ls),
(182,742,o),
(181,741,o),
(180,733,c),
(78,11,ls),
(77,4,o),
(80,0,o),
(87,0,c)
);
}
);
};
guides = (
{
pos = (43,566);
}
);
layerId = "91AB5BCA-6A50-42DA-B2F7-8181BF189245";
shapes = (
{
closed = 1;
nodes = (
(84,0,l),
(112,0,ls),
(119,0,o),
(121,2,o),
(122,8,c),
(208,620,ls),
(209,624,o),
(211,624,o),
(212,620,c),
(370,11,ls),
(372,2,o),
(374,0,o),
(382,0,c),
(415,0,ls),
(424,0,o),
(427,2,o),
(431,10,c),
(767,624,ls),
(768,626,o),
(770,627,o),
(769,622,c),
(683,10,ls),
(682,3,o),
(686,0,o),
(693,0,c),
(720,0,ls),
(726,0,o),
(728,2,o),
(729,9,c),
(830,731,ls),
(831,739,o),
(829,742,o),
(822,742,c),
(793,742,ls),
(787,742,o),
(785,741,o),
(782,736,c),
(416,66,ls),
(409,52,o),
(404,50,o),
(401,63,c),
(226,736,ls),
(225,740,o),
(223,742,o),
(218,742,c),
(189,742,ls),
(182,742,o),
(181,741,o),
(180,733,c),
(78,11,ls),
(77,2,o),
(77,0,o),
(84,0,c)
);
}
);
width = 879;
}
);
unicode = 77;
},
{
glyphname = N;
lastChange = "2024-09-04 11:48:04 +0000";
layers = (
{
anchors = (
{
name = bottom;
pos = (344,0);
},
{
name = top;
pos = (448,742);
}
);
background = {
anchors = (
{
name = bottom;
pos = (344,0);
},
{
name = top;
pos = (448,742);
}
);
shapes = (
{
closed = 1;
nodes = (
(612,742,l),
(597,742,o),
(594,740,o),
(592,727,c),
(546,400,ls),
(544,384,o),
(533,374,o),
(526,386,c),
(331,719,ls),
(324,734,o),
(317,742,o),
(300,742,c),
(137,742,ls),
(122,742,o),
(119,741,o),
(117,725,c),
(18,26,ls),
(16,11,o),
(29,0,o),
(44,0,c),
(180,0,ls),
(198,0,o),
(201,0,o),
(202,16,c),
(253,380,ls),
(254,387,o),
(263,400,o),
(267,393,c),
(492,20,ls),
(498,7,o),
(505,0,o),
(516,0,c),
(653,0,ls),
(666,0,o),
(672,1,o),
(673,12,c),
(773,719,ls),
(774,730,o),
(767,742,o),
(757,742,c)
);
}
);
};
layerId = "258ED206-D907-4350-8EBA-CBDDA1C16BF7";
shapes = (
{
closed = 1;
nodes = (
(612,742,l),
(597,742,o),
(594,740,o),
(592,727,c),
(545,392,ls),
(543,377,o),
(533,375,o),
(526,387,c),
(331,719,ls),
(323,733,o),
(316,742,o),
(300,742,c),
(137,742,ls),
(122,742,o),
(119,740,o),
(117,725,c),
(18,26,ls),
(16,11,o),
(19,0,o),
(34,0,c),
(178,0,ls),
(196,0,o),
(200,3,o),
(202,19,c),
(254,385,ls),
(256,400,o),
(263,400,o),
(267,393,c),
(492,20,ls),
(500,7,o),
(506,0,o),
(516,0,c),
(653,0,ls),
(666,0,o),
(672,2,o),
(673,12,c),
(774,726,ls),
(775,736,o),
(772,742,o),
(762,742,c)
);
}
);
width = 761;
},
{
anchors = (
{
name = bottom;
pos = (322,0);
},
{
name = top;
pos = (461,742);
}
);
background = {
anchors = (
{
name = bottom;
pos = (322,0);
},
{
name = top;
pos = (461,742);
}
);
shapes = (
{
closed = 1;
nodes = (
(671,742,l),
(665,742,o),
(664,740,o),
(663,734,c),
(575,108,ls),
(574,102,o),
(565,94,o),
(559,104,c),
(221,734,ls),
(218,740,o),
(215,742,o),
(207,742,c),
(189,742,l),
(182,742,o),
(181,741,o),
(180,733,c),
(78,11,ls),
(77,4,o),
(80,0,o),
(87,0,c),
(112,0,ls),
(119,0,o),
(121,2,o),
(122,8,c),
(210,636,ls),
(211,644,o),
(218,648,o),
(223,638,c),
(563,7,ls),
(567,0,o),
(573,0,o),
(581,0,c),
(596,0,ls),
(602,0,o),
(604,2,o),
(605,9,c),
(706,731,ls),
(708,739,o),
(705,742,o),
(698,742,c)
);
}
);
};
guides = (
{
pos = (48,576);
}
);
layerId = "91AB5BCA-6A50-42DA-B2F7-8181BF189245";
shapes = (
{
closed = 1;
nodes = (
(671,742,l),
(665,742,o),
(664,740,o),
(663,734,c),
(575,108,ls),
(573,94,o),
(565,93,o),
(559,104,c),
(221,734,ls),
(218,740,o),
(215,742,o),
(207,742,c),
(189,742,ls),
(182,742,o),
(181,741,o),
(180,733,c),
(78,11,ls),
(77,4,o),
(80,0,o),
(87,0,c),
(112,0,ls),
(119,0,o),
(121,2,o),
(122,8,c),
(210,636,ls),
(211,646,o),
(218,648,o),
(223,638,c),
(563,7,ls),
(567,0,o),
(573,0,o),
(581,0,c),
(596,0,ls),
(602,0,o),
(604,2,o),
(605,9,c),
(706,731,ls),
(707,739,o),
(705,742,o),
(698,742,c)
);
}
);
width = 755;
}
);
unicode = 78;
},
{
glyphname = Eng;
lastChange = "2024-09-04 11:48:04 +0000";
layers = (
{
background = {
shapes = (
{
closed = 1;
nodes = (
(757,742,l),
(612,742,ls),
(597,742,o),
(594,740,o),
(592,727,c),
(552,440,ls),
(549,424,o),
(539,414,o),
(532,426,c),
(331,719,ls),
(323,734,o),
(317,742,o),
(300,742,c),
(137,742,ls),
(122,742,o),
(119,741,o),
(117,725,c),
(18,26,ls),
(16,11,o),
(29,0,o),
(44,0,c),
(180,0,ls),
(198,0,o),
(201,0,o),
(202,16,c),
(253,380,l),
(254,387,o),
(263,399,o),
(268,392,c),
(464,97,l),
(462,94,ls),
(452,37,o),
(414,10,o),
(365,10,c),
(347,10,o),
(325,14,o),
(305,15,c),
(293,18,o),
(290,15,o),
(287,0,c),
(261,-114,ls),
(256,-142,o),
(268,-158,o),
(294,-161,c),
(334,-170,o),
(377,-175,o),
(422,-175,c),
(570,-175,o),
(655,-120,o),
(678,41,c),
(773,719,ls),
(774,730,o),
(767,742,o),
(757,742,c)
);
}
);
};
guides = (
{
angle = 82.0656;
pos = (572,584);
}
);
layerId = "258ED206-D907-4350-8EBA-CBDDA1C16BF7";
shapes = (
{
closed = 1;
nodes = (
(757,742,l),
(612,742,ls),
(597,742,o),
(594,740,o),
(592,727,c),
(552,440,ls),
(550,423,o),
(539,415,o),
(532,426,c),
(331,719,ls),
(323,734,o),
(314,742,o),
(297,742,c),
(137,742,ls),
(122,742,o),
(119,737,o),
(117,724,c),
(18,26,ls),
(16,11,o),
(29,0,o),
(44,0,c),
(180,0,ls),
(198,0,o),
(201,0,o),
(202,16,c),
(253,380,ls),
(255,395,o),
(263,399,o),
(268,392,c),
(480,73,l),
(478,63,ls),
(467,10,o),
(454,-13,o),
(401,-13,c),
(383,-13,o),
(322,-6,o),
(302,-2,c),
(291,0,o),
(287,-2,o),
(284,-17,c),
(261,-114,ls),
(256,-142,o),
(268,-158,o),
(294,-161,c),
(334,-170,o),
(377,-175,o),
(422,-175,c),
(570,-175,o),
(655,-120,o),
(678,41,c),
(773,719,ls),
(775,733,o),
(770,742,o),
(757,742,c)
);
}
);
width = 761;
},
{
background = {
shapes = (
{
closed = 1;
nodes = (
(698,742,l),
(672,742,ls),
(666,742,o),
(665,740,o),
(664,734,c),
(576,108,ls),
(575,102,o),
(566,93,o),
(560,103,c),
(223,734,ls),
(220,740,o),
(217,742,o),
(210,742,c),
(189,742,ls),
(182,742,o),
(181,741,o),
(180,733,c),
(78,11,ls),
(77,4,o),
(80,0,o),
(87,0,c),
(112,0,ls),
(119,0,o),
(121,2,o),
(122,8,c),
(211,639,ls),
(212,647,o),
(215,651,o),
(221,641,c),
(559,12,l),
(552,-40,ls),
(542,-111,o),
(507,-135,o),
(452,-135,c),
(423,-135,o),
(400,-128,o),
(383,-123,c),
(380,-120,o),
(379,-120,o),
(377,-125,c),
(371,-150,l),
(370,-154,o),
(372,-157,o),
(375,-159,c),
(381,-164,o),
(412,-175,o),
(454,-175,c),
(547,-175,o),
(586,-125,o),
(597,-47,c),
(706,731,ls),
(708,739,o),
(705,742,o),
(698,742,c)
);
}
);
};
layerId = "91AB5BCA-6A50-42DA-B2F7-8181BF189245";
shapes = (
{
closed = 1;
nodes = (
(698,742,l),
(672,742,ls),
(666,742,o),
(665,740,o),
(664,734,c),
(576,108,ls),
(575,102,o),
(566,93,o),
(560,103,c),
(223,734,ls),
(220,740,o),
(217,742,o),
(210,742,c),
(189,742,ls),
(182,742,o),
(181,741,o),
(180,733,c),
(78,11,ls),
(77,4,o),
(80,0,o),
(87,0,c),
(112,0,ls),
(119,0,o),
(121,2,o),
(122,8,c),
(211,639,ls),
(212,647,o),
(215,651,o),
(221,641,c),
(559,12,l),
(552,-40,ls),
(542,-111,o),
(507,-135,o),
(452,-135,c),
(423,-135,o),
(400,-128,o),
(383,-123,c),
(380,-120,o),
(379,-120,o),
(377,-125,c),
(371,-150,l),
(370,-154,o),
(372,-157,o),
(375,-159,c),
(381,-164,o),
(412,-175,o),
(454,-175,c),
(547,-175,o),
(586,-125,o),
(597,-47,c),
(706,731,ls),
(708,739,o),
(705,742,o),
(698,742,c)
);
}
);
width = 755;
}
);
metricLeft = N;
metricRight = N;
unicode = 330;
},
{
glyphname = O;
kernLeft = O;
kernRight = O;
lastChange = "2024-09-04 11:48:04 +0000";
layers = (
{
anchors = (
{
name = bottom;
pos = (355,0);
},
{
name = ogonek;
pos = (447,10);
},
{
name = top;
pos = (457,742);
},
{
name = topright;
pos = (495,740);
}
);
background = {
shapes = (
{
closed = 1;
nodes = (
(360,-10,l),
(574,-10,o),
(730,133,o),
(762,358,c),
(795,595,o),
(670,752,o),
(451,752,c),
(238,752,o),
(79,607,o),
(47,380,c),
(14,144,o),
(135,-10,o),
(360,-10,c)
);
},
{
closed = 1;
nodes = (
(366,146,l),
(281,146,o),
(260,200,o),
(282,355,c),
(306,525,o),
(355,598,o),
(446,598,c),
(527,598,o),
(549,537,o),
(527,377,c),
(504,212,o),
(457,146,o),
(366,146,c)
);
}
);
};
layerId = "258ED206-D907-4350-8EBA-CBDDA1C16BF7";
shapes = (
{
closed = 1;
nodes = (
(360,-10,l),
(574,-10,o),
(730,133,o),
(762,358,c),
(766,383,o),
(767,408,o),
(767,431,c),
(767,627,o),
(647,752,o),
(451,752,c),
(238,752,o),
(79,607,o),
(47,380,c),
(43,354,o),
(42,329,o),
(42,306,c),
(42,112,o),
(160,-10,o),
(360,-10,c)
);
},
{
closed = 1;
nodes = (
(366,146,l),
(302,146,o),
(274,177,o),
(274,260,c),
(274,286,o),
(277,318,o),
(282,355,c),
(306,525,o),
(355,598,o),
(446,598,c),
(508,598,o),
(535,563,o),
(535,476,c),
(535,448,o),
(532,415,o),
(527,377,c),
(504,212,o),
(457,146,o),
(366,146,c)
);
}
);
width = 780;
},
{
anchors = (
{
name = bottom;
pos = (344,0);
},
{
name = ogonek;
pos = (415,9);
},
{
name = top;
pos = (446,742);
},
{
name = topright;
pos = (399,742);
}
);
background = {
shapes = (
{
closed = 1;
nodes = (
(342,-10,l),
(529,-10,o),
(660,121,o),
(694,367,c),
(729,617,o),
(634,752,o),
(446,752,c),
(259,752,o),
(128,618,o),
(93,369,c),
(58,122,o),
(152,-10,o),
(342,-10,c)
);
},
{
closed = 1;
nodes = (
(346,32,l),
(181,32,o),
(109,142,o),
(140,367,c),
(173,596,o),
(279,710,o),
(445,710,c),
(608,710,o),
(679,599,o),
(647,371,c),
(615,143,o),
(512,32,o),
(346,32,c)
);
}
);
};
guides = (
{
angle = 90;
pos = (-576,431);
},
{
angle = 90;
pos = (381,640);
}
);
layerId = "91AB5BCA-6A50-42DA-B2F7-8181BF189245";
shapes = (
{
closed = 1;
nodes = (
(342,-10,l),
(529,-10,o),
(660,121,o),
(694,367,c),
(699,401,o),
(701,433,o),
(701,463,c),
(701,652,o),
(608,752,o),
(446,752,c),
(259,752,o),
(128,618,o),
(93,369,c),
(88,335,o),
(86,303,o),
(86,273,c),
(86,88,o),
(178,-10,o),
(342,-10,c)
);
},
{
closed = 1;
nodes = (
(346,32,l),
(206,32,o),
(133,111,o),
(133,273,c),
(133,301,o),
(135,333,o),
(140,367,c),
(173,596,o),
(279,710,o),
(445,710,c),
(582,710,o),
(654,631,o),
(654,470,c),
(654,440,o),
(652,407,o),
(647,371,c),
(615,143,o),
(512,32,o),
(346,32,c)
);
}
);
width = 758;
}
);
unicode = 79;
},
{
glyphname = Oslash;
lastChange = "2024-09-04 11:48:04 +0000";
layers = (
{
anchors = (
{
name = top;
pos = (460,742);
}
);
background = {
anchors = (
{
name = top;
pos = (460,742);
}
);
shapes = (
{
closed = 1;
nodes = (
(832,682,l),
(784,738,ls),
(779,746,o),
(767,752,o),
(755,741,c),
(679,670,l),
(627,720,o),
(551,752,o),
(454,752,c),
(241,752,o),
(82,607,o),
(50,380,c),
(37,289,o),
(48,214,o),
(74,154,c),
(-8,88,ls),
(-21,76,o),
(-15,66,o),
(-2,51,c),
(32,11,ls),
(45,-5,o),
(56,-12,o),
(73,3,c),
(141,66,l),
(192,19,o),
(267,-10,o),
(363,-10,c),
(577,-10,o),
(733,133,o),
(765,358,c),
(778,447,o),
(767,521,o),
(742,580,c),
(834,655,l),
(844,664,o),
(838,674,o),
(832,682,c)
);
},
{
closed = 1;
nodes = (
(285,355,l),
(309,525,o),
(358,598,o),
(449,598,c),
(489,598,o),
(516,585,o),
(529,544,c),
(280,324,l),
(282,336,o),
(284,348,o),
(285,355,c)
);
},
{
closed = 1;
nodes = (
(530,377,l),
(507,212,o),
(460,146,o),
(369,146,c),
(329,146,o),
(302,156,o),
(287,190,c),
(534,409,l),
(533,397,o),
(531,385,o),
(530,377,c)
);
}
);
};
layerId = "258ED206-D907-4350-8EBA-CBDDA1C16BF7";
shapes = (
{
closed = 1;
nodes = (
(832,682,l),
(784,738,ls),
(779,746,o),
(767,752,o),
(755,741,c),
(679,670,l),
(627,720,o),
(551,752,o),
(454,752,c),
(241,752,o),
(82,607,o),
(50,380,c),
(37,289,o),
(48,214,o),
(74,154,c),
(-8,88,ls),
(-21,76,o),
(-15,66,o),
(-2,51,c),
(32,11,ls),
(45,-5,o),
(56,-12,o),
(73,3,c),
(141,66,l),
(192,19,o),
(267,-10,o),
(363,-10,c),
(577,-10,o),
(733,133,o),
(765,358,c),
(778,447,o),
(767,521,o),
(742,580,c),
(834,655,l),
(844,664,o),
(838,674,o),
(832,682,c)
);
},
{
closed = 1;
nodes = (
(285,355,l),
(309,525,o),
(358,598,o),
(449,598,c),
(489,598,o),
(516,585,o),
(529,544,c),
(280,324,l),
(282,336,o),
(284,348,o),
(285,355,c)
);
},
{
closed = 1;
nodes = (
(530,377,l),
(507,212,o),
(460,146,o),
(369,146,c),
(329,146,o),
(302,156,o),
(287,190,c),
(534,409,l),
(533,397,o),
(531,385,o),
(530,377,c)
);
}
);
width = 786;
},
{
anchors = (
{
name = top;
pos = (422,742);
}
);
background = {
anchors = (
{
name = top;
pos = (422,742);
}
);
shapes = (
{
closed = 1;
nodes = (
(748,726,l),
(726,748,l),
(721,752,o),
(717,752,o),
(713,747,c),
(625,658,l),
(582,719,o),
(513,752,o),
(421,752,c),
(234,752,o),
(103,618,o),
(68,369,c),
(53,267,o),
(62,185,o),
(89,124,c),
(-10,27,l),
(-15,22,o),
(-13,19,o),
(-7,12,c),
(8,-4,l),
(15,-10,o),
(20,-12,o),
(27,-4,c),
(112,82,l),
(155,22,o),
(224,-10,o),
(317,-10,c),
(504,-10,o),
(635,121,o),
(669,367,c),
(684,471,o),
(676,554,o),
(648,616,c),
(749,715,l),
(753,719,o),
(750,723,o),
(748,726,c)
);
},
{
closed = 1;
nodes = (
(118,367,l),
(151,596,o),
(253,709,o),
(419,709,c),
(500,709,o),
(559,682,o),
(593,626,c),
(125,160,l),
(109,213,o),
(106,282,o),
(118,367,c)
);
},
{
closed = 1;
nodes = (
(619,371,l),
(587,143,o),
(487,33,o),
(321,33,c),
(239,33,o),
(180,60,o),
(145,116,c),
(612,581,l),
(629,527,o),
(631,457,o),
(619,371,c)
);
}
);
};
layerId = "91AB5BCA-6A50-42DA-B2F7-8181BF189245";
shapes = (
{
closed = 1;
nodes = (
(748,726,l),
(726,748,l),
(721,752,o),
(717,752,o),
(713,747,c),
(625,658,l),
(582,719,o),
(513,752,o),
(421,752,c),
(234,752,o),
(103,618,o),
(68,369,c),
(53,267,o),
(62,185,o),
(89,124,c),
(-10,27,l),
(-15,22,o),
(-13,19,o),
(-7,12,c),
(8,-4,l),
(15,-10,o),
(20,-12,o),
(27,-4,c),
(112,82,l),
(155,22,o),
(224,-10,o),
(317,-10,c),
(504,-10,o),
(635,121,o),
(669,367,c),
(684,471,o),
(676,554,o),
(648,616,c),
(749,715,l),
(753,719,o),
(750,723,o),
(748,726,c)
);
},
{
closed = 1;
nodes = (
(118,367,l),
(151,596,o),
(253,709,o),
(419,709,c),
(500,709,o),
(559,682,o),
(593,626,c),
(125,160,l),
(109,213,o),
(106,282,o),
(118,367,c)
);
},
{
closed = 1;
nodes = (
(619,371,l),
(587,143,o),
(487,33,o),
(321,33,c),
(239,33,o),
(180,60,o),
(145,116,c),
(612,581,l),
(629,527,o),
(631,457,o),
(619,371,c)
);
}
);
width = 708;
}
);
unicode = 216;
},
{
glyphname = OE;
kernLeft = O;
lastChange = "2024-09-04 11:48:04 +0000";
layers = (
{
background = {
shapes = (
{
closed = 1;
nodes = (
(1057,164,l),
(732,164,ls),
(723,164,o),
(723,161,o),
(725,172,c),
(739,272,ls),
(740,280,o),
(752,292,o),
(762,292,c),
(947,292,ls),
(960,292,o),
(961,294,o),
(962,303,c),
(980,427,ls),
(982,440,o),
(972,453,o),
(958,453,c),
(778,453,ls),
(768,453,o),
(765,454,o),
(767,468,c),
(778,553,ls),
(780,566,o),
(794,578,o),
(809,578,c),
(1109,578,ls),
(1127,578,o),
(1132,583,o),
(1134,599,c),
(1151,715,ls),
(1153,728,o),
(1145,742,o),
(1133,742,c),
(669,742,l),
(662,742,o),
(655,742,o),
(648,742,c),
(607,741,l),
(573,748,o),
(530,752,o),
(475,752,c),
(238,752,o),
(79,607,o),
(47,380,c),
(14,144,o),
(135,-10,o),
(372,-10,c),
(424,-10,o),
(472,-8,o),
(511,-1,c),
(561,0,l),
(568,0,o),
(575,0,o),
(582,0,c),
(1040,0,ls),
(1057,0,o),
(1060,4,o),
(1062,16,c),
(1079,139,ls),
(1081,153,o),
(1071,164,o),
(1057,164,c)
);
},
{
closed = 1;
nodes = (
(366,146,l),
(281,146,o),
(260,200,o),
(282,355,c),
(306,525,o),
(355,598,o),
(446,598,c),
(527,598,o),
(549,537,o),
(527,377,c),
(504,212,o),
(457,146,o),
(366,146,c)
);
}
);
};
layerId = "258ED206-D907-4350-8EBA-CBDDA1C16BF7";
shapes = (
{
closed = 1;
nodes = (
(1057,164,l),
(732,164,ls),
(723,164,o),
(723,161,o),
(725,172,c),
(739,272,ls),
(740,280,o),
(752,292,o),
(762,292,c),
(947,292,ls),
(960,292,o),
(961,294,o),
(962,303,c),
(980,427,ls),
(982,440,o),
(972,453,o),
(958,453,c),
(778,453,ls),
(768,453,o),
(765,454,o),
(767,468,c),
(778,553,ls),
(780,566,o),
(794,578,o),
(809,578,c),
(1109,578,ls),
(1127,578,o),
(1132,583,o),
(1134,599,c),
(1151,715,ls),
(1153,728,o),
(1145,742,o),
(1133,742,c),
(669,742,l),
(662,742,o),
(655,742,o),
(648,742,c),
(607,741,l),
(573,748,o),
(530,752,o),
(475,752,c),
(238,752,o),
(79,607,o),
(47,380,c),
(14,144,o),
(135,-10,o),
(372,-10,c),
(424,-10,o),
(472,-8,o),
(511,-1,c),
(561,0,l),
(568,0,o),
(575,0,o),
(582,0,c),
(1040,0,ls),
(1057,0,o),
(1060,4,o),
(1062,16,c),
(1079,139,ls),
(1081,153,o),
(1071,164,o),
(1057,164,c)
);
},
{
closed = 1;
nodes = (
(366,146,l),
(281,146,o),
(260,200,o),
(282,355,c),
(306,525,o),
(355,598,o),
(446,598,c),
(527,598,o),
(549,537,o),
(527,377,c),
(504,212,o),
(457,146,o),
(366,146,c)
);
}
);
width = 1130;
},
{
background = {
shapes = (
{
closed = 1;
nodes = (
(1029,40,l),
(656,40,ls),
(649,40,o),
(648,40,o),
(650,48,c),
(691,345,ls),
(692,353,o),
(696,355,o),
(703,355,c),
(980,355,ls),
(986,355,o),
(987,355,o),
(987,361,c),
(991,387,ls),
(992,392,o),
(989,395,o),
(984,395,c),
(706,395,ls),
(699,395,o),
(698,395,o),
(699,401,c),
(740,692,ls),
(741,700,o),
(744,702,o),
(751,702,c),
(1109,702,ls),
(1115,702,o),
(1116,702,o),
(1117,708,c),
(1121,734,ls),
(1122,739,o),
(1119,742,o),
(1114,742,c),
(709,742,ls),
(702,742,o),
(701,741,o),
(700,733,c),
(681,599,l),
(645,699,o),
(564,752,o),
(446,752,c),
(259,752,o),
(128,618,o),
(93,369,c),
(58,122,o),
(152,-10,o),
(342,-10,c),
(458,-10,o),
(553,40,o),
(617,139,c),
(598,11,ls),
(597,3,o),
(600,0,o),
(607,0,c),
(1027,0,ls),
(1032,0,o),
(1033,1,o),
(1034,6,c),
(1037,32,ls),
(1038,38,o),
(1035,40,o),
(1029,40,c)
);
},
{
closed = 1;
nodes = (
(346,32,l),
(181,32,o),
(109,142,o),
(140,367,c),
(173,596,o),
(279,710,o),
(445,710,c),
(608,710,o),
(676,599,o),
(644,371,c),
(612,143,o),
(512,32,o),
(346,32,c)
);
}
);
};
layerId = "91AB5BCA-6A50-42DA-B2F7-8181BF189245";
shapes = (
{
closed = 1;
nodes = (
(1029,40,l),
(656,40,ls),
(649,40,o),
(648,40,o),
(650,48,c),
(691,345,ls),
(692,353,o),
(696,355,o),
(703,355,c),
(980,355,ls),
(986,355,o),
(987,355,o),
(987,361,c),
(991,387,ls),
(992,392,o),
(989,395,o),
(984,395,c),
(706,395,ls),
(699,395,o),
(698,395,o),
(699,401,c),
(740,692,ls),
(741,700,o),
(744,702,o),
(751,702,c),
(1109,702,ls),
(1115,702,o),
(1116,702,o),
(1117,708,c),
(1121,734,ls),
(1122,739,o),
(1119,742,o),
(1114,742,c),
(709,742,ls),
(702,742,o),
(701,741,o),
(700,733,c),
(681,599,l),
(645,699,o),
(564,752,o),
(446,752,c),
(259,752,o),
(128,618,o),
(93,369,c),
(58,122,o),
(152,-10,o),
(342,-10,c),
(458,-10,o),
(553,40,o),
(617,139,c),
(598,11,ls),
(597,3,o),
(600,0,o),
(607,0,c),
(1027,0,ls),
(1032,0,o),
(1033,1,o),
(1034,6,c),
(1037,32,ls),
(1038,38,o),
(1035,40,o),
(1029,40,c)
);
},
{
closed = 1;
nodes = (
(346,32,l),
(181,32,o),
(109,142,o),
(140,367,c),
(173,596,o),
(279,710,o),
(445,710,c),
(608,710,o),
(676,599,o),
(644,371,c),
(612,143,o),
(512,32,o),
(346,32,c)
);
}
);
width = 1122;
}
);
metricLeft = O;
metricRight = E;
unicode = 338;
},
{
glyphname = P;
kernRight = P;
lastChange = "2024-09-04 11:48:04 +0000";
layers = (
{
background = {
shapes = (
{
closed = 1;
nodes = (
(735,490,l),
(758,656,o),
(629,742,o),
(465,742,c),
(134,742,ls),
(122,742,o),
(119,740,o),
(117,725,c),
(19,31,ls),
(17,14,o),
(25,0,o),
(45,0,c),
(213,0,ls),
(236,0,o),
(242,2,o),
(245,23,c),
(277,249,ls),
(278,256,o),
(286,266,o),
(295,266,c),
(432,266,ls),
(595,266,o),
(715,349,o),
(735,490,c)
);
},
{
closed = 1;
nodes = (
(506,515,l),
(499,467,o),
(461,426,o),
(413,426,c),
(315,426,ls),
(302,426,o),
(302,427,o),
(304,442,c),
(320,555,ls),
(322,570,o),
(334,582,o),
(351,582,c),
(437,582,ls),
(483,582,o),
(512,558,o),
(506,515,c)
);
}
);
};
layerId = "258ED206-D907-4350-8EBA-CBDDA1C16BF7";
shapes = (
{
closed = 1;
nodes = (
(432,266,l),
(605,266,o),
(738,364,o),
(738,527,c),
(738,669,o),
(616,742,o),
(465,742,c),
(134,742,ls),
(122,742,o),
(119,740,o),
(117,725,c),
(19,31,ls),
(15,9,o),
(19,0,o),
(36,0,c),
(213,0,ls),
(236,0,o),
(242,2,o),
(245,23,c),
(277,249,ls),
(278,259,o),
(281,266,o),
(295,266,c)
);
},
{
closed = 1;
nodes = (
(507,526,l),
(507,478,o),
(466,426,o),
(413,426,c),
(315,426,ls),
(306,426,o),
(302,427,o),
(304,442,c),
(320,560,ls),
(322,575,o),
(327,582,o),
(344,582,c),
(437,582,ls),
(479,582,o),
(507,562,o),
(507,526,c)
);
}
);
width = 731;
},
{
background = {
shapes = (
{
closed = 1;
nodes = (
(649,533,l),
(670,683,o),
(566,742,o),
(411,742,c),
(189,742,ls),
(182,742,o),
(181,741,o),
(180,733,c),
(78,9,ls),
(77,4,o),
(81,0,o),
(86,0,c),
(116,0,ls),
(121,0,o),
(123,2,o),
(124,8,c),
(167,317,ls),
(168,323,o),
(172,327,o),
(178,327,c),
(361,327,ls),
(512,327,o),
(628,386,o),
(649,533,c)
);
},
{
closed = 1;
nodes = (
(602,540,l),
(584,416,o),
(492,367,o),
(364,367,c),
(180,367,ls),
(175,367,o),
(175,369,o),
(176,376,c),
(220,693,ls),
(221,699,o),
(225,702,o),
(231,702,c),
(406,702,ls),
(541,702,o),
(619,663,o),
(602,540,c)
);
}
);
};
layerId = "91AB5BCA-6A50-42DA-B2F7-8181BF189245";
shapes = (
{
closed = 1;
nodes = (
(361,327,l),
(533,327,o),
(652,408,o),
(652,570,c),
(652,693,o),
(553,742,o),
(411,742,c),
(189,742,ls),
(182,742,o),
(181,739,o),
(180,731,c),
(78,9,ls),
(77,4,o),
(81,0,o),
(86,0,c),
(116,0,ls),
(121,0,o),
(123,2,o),
(124,8,c),
(167,317,ls),
(168,323,o),
(172,327,o),
(178,327,c)
);
},
{
closed = 1;
nodes = (
(604,572,l),
(604,436,o),
(511,367,o),
(364,367,c),
(183,367,ls),
(176,367,o),
(175,370,o),
(176,379,c),
(220,693,ls),
(221,699,o),
(225,702,o),
(231,702,c),
(406,702,ls),
(529,702,o),
(604,670,o),
(604,572,c)
);
}
);
width = 674;
}
);
unicode = 80;
},
{
glyphname = Thorn;
lastChange = "2024-09-04 11:48:04 +0000";
layers = (
{
background = {
shapes = (
{
closed = 1;
nodes = (
(729,361,l),
(752,524,o),
(623,608,o),
(459,608,c),
(333,608,ls),
(326,608,o),
(327,606,o),
(328,614,c),
(342,715,ls),
(344,728,o),
(336,742,o),
(324,742,c),
(134,742,ls),
(123,742,o),
(119,740,o),
(117,725,c),
(19,31,ls),
(17,14,o),
(25,0,o),
(45,0,c),
(213,0,ls),
(236,0,o),
(242,2,o),
(245,23,c),
(259,125,ls),
(260,132,o),
(269,142,o),
(278,142,c),
(428,142,ls),
(591,142,o),
(710,223,o),
(729,361,c)
);
},
{
closed = 1;
nodes = (
(501,386,l),
(495,341,o),
(456,302,o),
(408,302,c),
(297,302,ls),
(284,302,o),
(284,303,o),
(286,318,c),
(301,421,ls),
(303,436,o),
(315,448,o),
(332,448,c),
(431,448,ls),
(477,448,o),
(507,426,o),
(501,386,c)
);
}
);
};
layerId = "258ED206-D907-4350-8EBA-CBDDA1C16BF7";
shapes = (
{
closed = 1;
nodes = (
(729,361,l),
(752,524,o),
(623,608,o),
(459,608,c),
(333,608,ls),
(326,608,o),
(327,606,o),
(328,614,c),
(342,715,ls),
(344,728,o),
(336,742,o),
(324,742,c),
(134,742,ls),
(123,742,o),
(119,740,o),
(117,725,c),
(19,31,ls),
(17,14,o),
(25,0,o),
(45,0,c),
(213,0,ls),
(236,0,o),
(242,2,o),
(245,23,c),
(259,125,ls),
(260,132,o),
(269,142,o),
(278,142,c),
(428,142,ls),
(591,142,o),
(710,223,o),
(729,361,c)
);
},
{
closed = 1;
nodes = (
(501,386,l),
(495,341,o),
(456,302,o),
(408,302,c),
(297,302,ls),
(284,302,o),
(284,303,o),
(286,318,c),
(301,421,ls),
(303,436,o),
(315,448,o),
(332,448,c),
(431,448,ls),
(477,448,o),
(507,426,o),
(501,386,c)
);
}
);
width = 743;
},
{
background = {
shapes = (
{
closed = 1;
nodes = (
(628,388,l),
(647,521,o),
(544,579,o),
(388,579,c),
(209,579,ls),
(205,579,o),
(204,580,o),
(205,583,c),
(225,731,ls),
(227,739,o),
(224,742,o),
(217,742,c),
(189,742,ls),
(182,742,o),
(181,741,o),
(180,733,c),
(78,9,ls),
(77,4,o),
(81,0,o),
(86,0,c),
(116,0,ls),
(121,0,o),
(123,2,o),
(124,8,c),
(147,172,ls),
(148,178,o),
(151,182,o),
(157,182,c),
(340,182,ls),
(490,182,o),
(607,238,o),
(628,388,c)
);
},
{
closed = 1;
nodes = (
(581,392,l),
(564,269,o),
(472,222,o),
(344,222,c),
(160,222,ls),
(155,222,o),
(154,224,o),
(155,231,c),
(197,530,ls),
(198,536,o),
(203,539,o),
(209,539,c),
(384,539,ls),
(519,539,o),
(596,502,o),
(581,392,c)
);
}
);
};
layerId = "91AB5BCA-6A50-42DA-B2F7-8181BF189245";
shapes = (
{
closed = 1;
nodes = (
(628,388,l),
(647,521,o),
(544,579,o),
(388,579,c),
(209,579,ls),
(205,579,o),
(204,580,o),
(205,583,c),
(225,731,ls),
(227,739,o),
(224,742,o),
(217,742,c),
(189,742,ls),
(182,742,o),
(181,741,o),
(180,733,c),
(78,9,ls),
(77,4,o),
(81,0,o),
(86,0,c),
(116,0,ls),
(121,0,o),
(123,2,o),
(124,8,c),
(147,172,ls),
(148,178,o),
(151,182,o),
(157,182,c),
(340,182,ls),
(490,182,o),
(607,238,o),
(628,388,c)
);
},
{
closed = 1;
nodes = (
(581,392,l),
(564,269,o),
(472,222,o),
(344,222,c),
(160,222,ls),
(155,222,o),
(154,224,o),
(155,231,c),
(197,530,ls),
(198,536,o),
(203,539,o),
(209,539,c),
(384,539,ls),
(519,539,o),
(596,502,o),
(581,392,c)
);
}
);
width = 673;
}
);
metricLeft = P;
metricRight = P;
unicode = 222;
},
{
glyphname = Q;
kernLeft = O;
kernRight = O;
lastChange = "2024-09-04 11:48:04 +0000";
layers = (
{
background = {
shapes = (
{
closed = 1;
nodes = (
(47,380,l),
(14,144,o),
(135,-10,o),
(360,-10,c),
(382,-10,o),
(403,-8,o),
(429,-1,c),
(441,2,o),
(446,0,o),
(450,-7,c),
(495,-85,o),
(555,-128,o),
(659,-128,c),
(691,-128,o),
(695,-125,o),
(698,-103,c),
(714,14,ls),
(715,25,o),
(711,28,o),
(699,28,c),
(660,28,o),
(617,55,o),
(614,63,c),
(612,68,o),
(615,74,o),
(621,79,c),
(699,148,o),
(747,243,o),
(763,358,c),
(796,595,o),
(671,752,o),
(451,752,c),
(238,752,o),
(79,607,o),
(47,380,c)
);
},
{
closed = 1;
nodes = (
(282,356,l),
(306,526,o),
(355,598,o),
(446,598,c),
(528,598,o),
(550,538,o),
(528,378,c),
(505,212,o),
(458,146,o),
(366,146,c),
(281,146,o),
(260,200,o),
(282,356,c)
);
}
);
};
layerId = "258ED206-D907-4350-8EBA-CBDDA1C16BF7";
shapes = (
{
closed = 1;
nodes = (
(47,380,l),
(43,354,o),
(42,329,o),
(42,306,c),
(42,112,o),
(160,-10,o),
(360,-10,c),
(382,-10,o),
(403,-8,o),
(429,-1,c),
(439,2,o),
(445,1,o),
(450,-7,c),
(499,-89,o),
(572,-128,o),
(659,-128,c),
(691,-128,o),
(695,-125,o),
(698,-103,c),
(714,11,ls),
(716,22,o),
(711,25,o),
(699,27,c),
(661,32,o),
(626,45,o),
(614,63,c),
(611,68,o),
(615,74,o),
(621,79,c),
(699,148,o),
(747,243,o),
(763,358,c),
(767,383,o),
(768,408,o),
(768,431,c),
(768,627,o),
(648,752,o),
(451,752,c),
(238,752,o),
(79,607,o),
(47,380,c)
);
},
{
closed = 1;
nodes = (
(282,356,l),
(306,526,o),
(355,598,o),
(446,598,c),
(508,598,o),
(536,563,o),
(536,476,c),
(536,449,o),
(533,416,o),
(528,378,c),
(505,212,o),
(458,146,o),
(366,146,c),
(302,146,o),
(274,177,o),
(274,260,c),
(274,287,o),
(277,318,o),
(282,356,c)
);
}
);
width = 782;
},
{
background = {
shapes = (
{
closed = 1;
nodes = (
(93,371,l),
(57,117,o),
(157,-10,o),
(342,-10,c),
(367,-10,o),
(398,-7,o),
(424,-1,c),
(431,1,o),
(436,0,o),
(438,-3,c),
(490,-95,o),
(553,-122,o),
(598,-122,c),
(611,-122,o),
(616,-121,o),
(617,-110,c),
(620,-88,ls),
(621,-85,o),
(619,-81,o),
(613,-80,c),
(540,-70,o),
(483,-12,o),
(486,14,c),
(487,19,o),
(489,21,o),
(495,24,c),
(599,82,o),
(669,188,o),
(694,367,c),
(730,619,o),
(634,752,o),
(445,752,c),
(258,752,o),
(128,621,o),
(93,371,c)
);
},
{
closed = 1;
nodes = (
(140,365,l),
(172,591,o),
(276,710,o),
(444,710,c),
(610,710,o),
(678,593,o),
(647,371,c),
(615,142,o),
(509,32,o),
(344,32,c),
(181,32,o),
(108,140,o),
(140,365,c)
);
}
);
};
layerId = "91AB5BCA-6A50-42DA-B2F7-8181BF189245";
shapes = (
{
closed = 1;
nodes = (
(93,371,l),
(88,337,o),
(86,304,o),
(86,275,c),
(86,85,o),
(182,-10,o),
(342,-10,c),
(367,-10,o),
(398,-7,o),
(424,-1,c),
(431,1,o),
(436,0,o),
(438,-3,c),
(486,-95,o),
(559,-122,o),
(595,-122,c),
(608,-122,o),
(615,-121,o),
(616,-116,c),
(620,-88,ls),
(621,-83,o),
(619,-80,o),
(613,-79,c),
(542,-69,o),
(486,-15,o),
(486,12,c),
(486,17,o),
(488,20,o),
(495,24,c),
(600,82,o),
(669,188,o),
(694,367,c),
(699,402,o),
(701,435,o),
(701,465,c),
(701,653,o),
(608,752,o),
(445,752,c),
(258,752,o),
(128,621,o),
(93,371,c)
);
},
{
closed = 1;
nodes = (
(140,365,l),
(172,591,o),
(276,710,o),
(444,710,c),
(584,710,o),
(654,627,o),
(654,468,c),
(654,438,o),
(652,406,o),
(647,371,c),
(615,142,o),
(509,32,o),
(344,32,c),
(206,32,o),
(133,109,o),
(133,269,c),
(133,298,o),
(135,330,o),
(140,365,c)
);
}
);
width = 758;
}
);
unicode = 81;
},
{
glyphname = R;
kernRight = R;
lastChange = "2024-09-04 11:48:04 +0000";
layers = (
{
anchors = (
{
name = bottom;
pos = (331,0);
},
{
name = top;
pos = (425,742);
}
);
background = {
anchors = (
{
name = bottom;
pos = (331,0);
},
{
name = top;
pos = (425,742);
}
);
shapes = (
{
closed = 1;
nodes = (
(667,27,l),
(579,307,ls),
(578,315,o),
(585,326,o),
(595,327,c),
(672,358,o),
(733,430,o),
(746,519,c),
(765,658,o),
(661,742,o),
(468,742,c),
(134,742,ls),
(122,742,o),
(119,740,o),
(117,725,c),
(19,31,ls),
(17,14,o),
(25,0,o),
(45,0,c),
(213,0,ls),
(236,0,o),
(242,2,o),
(245,23,c),
(281,278,ls),
(281,281,o),
(290,295,o),
(299,295,c),
(345,295,ls),
(364,295,o),
(369,295,o),
(372,284,c),
(430,26,ls),
(431,12,o),
(442,0,o),
(456,0,c),
(650,0,ls),
(666,0,o),
(671,10,o),
(667,27,c)
);
},
{
closed = 1;
nodes = (
(417,444,l),
(317,444,ls),
(304,444,o),
(304,444,o),
(306,459,c),
(322,568,ls),
(324,583,o),
(335,594,o),
(352,594,c),
(440,594,ls),
(485,594,o),
(518,573,o),
(512,527,c),
(505,479,o),
(468,444,o),
(417,444,c)
);
}
);
};
layerId = "258ED206-D907-4350-8EBA-CBDDA1C16BF7";
shapes = (
{
closed = 1;
nodes = (
(667,27,l),
(579,307,ls),
(576,315,o),
(577,320,o),
(595,327,c),
(686,363,o),
(748,454,o),
(748,551,c),
(748,671,o),
(646,742,o),
(468,742,c),
(134,742,ls),
(122,742,o),
(119,740,o),
(117,725,c),
(19,31,ls),
(17,14,o),
(21,0,o),
(41,0,c),
(209,0,ls),
(232,0,o),
(242,2,o),
(245,23,c),
(282,283,ls),
(283,291,o),
(286,295,o),
(297,295,c),
(357,295,ls),
(368,295,o),
(370,292,o),
(372,284,c),
(430,26,ls),
(434,6,o),
(442,0,o),
(456,0,c),
(650,0,ls),
(667,0,o),
(673,8,o),
(667,27,c)
);
},
{
closed = 1;
nodes = (
(417,444,l),
(317,444,ls),
(309,444,o),
(304,446,o),
(306,459,c),
(323,574,ls),
(325,589,o),
(328,594,o),
(338,594,c),
(440,594,ls),
(481,594,o),
(513,576,o),
(513,537,c),
(513,489,o),
(474,444,o),
(417,444,c)
);
}
);
width = 739;
},
{
anchors = (
{
name = bottom;
pos = (304,0);
},
{
name = top;
pos = (401,742);
}
);
background = {
anchors = (
{
name = bottom;
pos = (304,0);
},
{
name = top;
pos = (401,742);
}
);
shapes = (
{
closed = 1;
nodes = (
(564,13,l),
(465,358,l),
(465,361,o),
(468,365,o),
(473,365,c),
(544,384,o),
(633,434,o),
(650,556,c),
(667,679,o),
(591,742,o),
(447,742,c),
(189,742,ls),
(182,742,o),
(181,741,o),
(180,733,c),
(78,10,ls),
(77,4,o),
(80,0,o),
(88,0,c),
(114,0,ls),
(122,0,o),
(123,2,o),
(124,10,c),
(171,343,ls),
(172,350,o),
(177,355,o),
(186,355,c),
(402,355,ls),
(415,355,o),
(418,353,o),
(420,346,c),
(516,10,ls),
(517,4,o),
(520,0,o),
(527,0,c),
(555,0,ls),
(562,0,o),
(566,6,o),
(564,13,c)
);
},
{
closed = 1;
nodes = (
(363,395,l),
(184,395,ls),
(179,395,o),
(179,397,o),
(179,403,c),
(220,693,ls),
(221,699,o),
(225,702,o),
(233,702,c),
(442,702,ls),
(563,702,o),
(616,654,o),
(601,553,c),
(586,440,o),
(506,395,o),
(363,395,c)
);
}
);
};
layerId = "91AB5BCA-6A50-42DA-B2F7-8181BF189245";
shapes = (
{
closed = 1;
nodes = (
(564,13,l),
(465,358,ls),
(464,361,o),
(468,364,o),
(473,365,c),
(583,392,o),
(652,475,o),
(652,589,c),
(652,690,o),
(578,742,o),
(447,742,c),
(189,742,ls),
(182,742,o),
(181,741,o),
(180,733,c),
(78,10,ls),
(77,4,o),
(80,0,o),
(88,0,c),
(114,0,ls),
(122,0,o),
(123,2,o),
(124,10,c),
(171,343,ls),
(172,353,o),
(175,355,o),
(183,355,c),
(402,355,ls),
(415,355,o),
(418,353,o),
(420,346,c),
(516,10,ls),
(517,4,o),
(520,0,o),
(527,0,c),
(555,0,ls),
(566,0,o),
(567,4,o),
(564,13,c)
);
},
{
closed = 1;
nodes = (
(363,395,l),
(185,395,ls),
(180,395,o),
(178,397,o),
(179,403,c),
(220,693,ls),
(221,699,o),
(225,702,o),
(233,702,c),
(442,702,ls),
(550,702,o),
(603,664,o),
(603,584,c),
(603,445,o),
(510,395,o),
(363,395,c)
);
}
);
width = 679;
}
);
unicode = 82;
},
{
glyphname = S;
kernLeft = S;
kernRight = S;
lastChange = "2024-09-04 11:48:04 +0000";
layers = (
{
anchors = (
{
name = bottom;
pos = (318,0);
},
{
name = top;
pos = (422,742);
}
);
background = {
anchors = (
{
name = bottom;
pos = (318,0);
},
{
name = top;
pos = (422,742);
}
);
shapes = (
{
closed = 1;
nodes = (
(539,552,l),
(551,541,o),
(561,530,o),
(570,536,c),
(685,610,ls),
(697,618,o),
(693,627,o),
(684,639,c),
(640,698,o),
(541,752,o),
(410,752,c),
(238,752,o),
(107,660,o),
(84,526,c),
(66,420,o),
(127,338,o),
(241,303,c),
(388,258,ls),
(431,245,o),
(455,227,o),
(448,193,c),
(438,141,o),
(375,134,o),
(314,138,c),
(233,143,o),
(206,168,o),
(164,214,c),
(155,224,o),
(143,237,o),
(121,224,c),
(15,159,ls),
(5,153,o),
(2,149,o),
(12,131,c),
(59,46,o),
(165,-10,o),
(321,-10,c),
(520,-10,o),
(647,81,o),
(668,223,c),
(684,329,o),
(632,392,o),
(513,431,c),
(353,483,ls),
(325,492,o),
(287,508,o),
(294,545,c),
(301,579,o),
(341,598,o),
(402,598,c),
(472,598,o),
(515,573,o),
(539,552,c)
);
}
);
};
layerId = "258ED206-D907-4350-8EBA-CBDDA1C16BF7";
shapes = (
{
closed = 1;
nodes = (
(539,552,l),
(551,541,o),
(561,530,o),
(570,536,c),
(685,610,ls),
(696,617,o),
(693,626,o),
(684,639,c),
(640,698,o),
(541,752,o),
(410,752,c),
(235,752,o),
(81,649,o),
(81,490,c),
(81,402,o),
(140,334,o),
(241,303,c),
(388,258,ls),
(426,247,o),
(449,231,o),
(449,204,c),
(449,152,o),
(396,137,o),
(341,137,c),
(238,137,o),
(210,163,o),
(164,214,c),
(153,227,o),
(140,235,o),
(121,224,c),
(15,159,ls),
(3,152,o),
(5,145,o),
(12,131,c),
(59,46,o),
(165,-10,o),
(321,-10,c),
(516,-10,o),
(671,85,o),
(671,259,c),
(671,344,o),
(618,397,o),
(513,431,c),
(353,483,ls),
(327,491,o),
(293,505,o),
(293,536,c),
(293,576,o),
(336,598,o),
(402,598,c),
(472,598,o),
(515,573,o),
(539,552,c)
);
}
);
width = 701;
},
{
anchors = (
{
name = bottom;
pos = (286,0);
},
{
name = top;
pos = (386,742);
}
);
background = {
anchors = (
{
name = bottom;
pos = (286,0);
},
{
name = top;
pos = (386,742);
}
);
shapes = (
{
closed = 1;
nodes = (
(552,629,l),
(557,621,o),
(558,617,o),
(564,621,c),
(589,641,ls),
(596,646,o),
(592,651,o),
(588,654,c),
(540,715,o),
(478,752,o),
(384,752,c),
(248,752,o),
(145,682,o),
(127,558,c),
(118,493,o),
(139,421,o),
(241,380,c),
(384,322,ls),
(487,280,o),
(503,240,o),
(495,182,c),
(480,74,o),
(394,32,o),
(274,32,c),
(168,32,o),
(125,68,o),
(79,139,c),
(75,146,o),
(71,149,o),
(60,142,c),
(48,134,ls),
(37,127,o),
(37,121,o),
(41,115,c),
(88,30,o),
(160,-10,o),
(272,-10,c),
(422,-10,o),
(524,59,o),
(541,180,c),
(553,265,o),
(518,326,o),
(406,369,c),
(275,419,ls),
(173,458,o),
(167,517,o),
(173,555,c),
(187,655,o),
(270,710,o),
(380,710,c),
(463,710,o),
(519,675,o),
(552,629,c)
);
}
);
};
layerId = "91AB5BCA-6A50-42DA-B2F7-8181BF189245";
shapes = (
{
closed = 1;
nodes = (
(552,629,l),
(559,620,o),
(561,619,o),
(564,621,c),
(589,641,ls),
(594,645,o),
(594,647,o),
(588,654,c),
(540,715,o),
(478,752,o),
(384,752,c),
(239,752,o),
(125,666,o),
(125,531,c),
(125,474,o),
(153,415,o),
(241,380,c),
(384,322,ls),
(473,286,o),
(497,251,o),
(497,205,c),
(497,87,o),
(406,32,o),
(274,32,c),
(168,32,o),
(125,68,o),
(79,139,c),
(74,147,o),
(68,148,o),
(60,142,c),
(48,134,ls),
(39,129,o),
(38,121,o),
(41,115,c),
(88,30,o),
(160,-10,o),
(272,-10,c),
(426,-10,o),
(543,67,o),
(543,210,c),
(543,280,o),
(504,331,o),
(406,369,c),
(275,419,ls),
(189,452,o),
(171,499,o),
(171,535,c),
(171,640,o),
(261,710,o),
(380,710,c),
(463,710,o),
(519,675,o),
(552,629,c)
);
}
);
width = 618;
}
);
unicode = 83;
},
{
glyphname = T;
kernLeft = T;
kernRight = T;
lastChange = "2024-09-04 11:48:04 +0000";
layers = (
{
anchors = (
{
name = bottom;
pos = (315,0);
},
{
name = top;
pos = (419,742);
}
);
background = {
anchors = (
{
name = bottom;
pos = (315,0);
},
{
name = top;
pos = (419,742);
}
);
shapes = (
{
closed = 1;
nodes = (
(76,606,l),
(74,592,o),
(85,581,o),
(99,581,c),
(275,581,ls),
(283,581,o),
(283,583,o),
(281,573,c),
(204,26,ls),
(203,13,o),
(212,0,o),
(223,0,c),
(413,0,ls),
(424,0,o),
(428,1,o),
(430,16,c),
(507,565,ls),
(508,572,o),
(517,581,o),
(525,581,c),
(702,581,ls),
(715,581,o),
(720,580,o),
(722,594,c),
(739,713,ls),
(741,726,o),
(731,742,o),
(714,742,c),
(116,742,ls),
(99,742,o),
(94,738,o),
(93,725,c)
);
}
);
};
layerId = "258ED206-D907-4350-8EBA-CBDDA1C16BF7";
shapes = (
{
closed = 1;
nodes = (
(75,597,l),
(73,585,o),
(78,581,o),
(92,581,c),
(271,581,ls),
(279,581,o),
(282,578,o),
(281,569,c),
(204,26,ls),
(201,7,o),
(205,0,o),
(223,0,c),
(411,0,ls),
(422,0,o),
(428,4,o),
(430,19,c),
(507,565,ls),
(509,577,o),
(511,581,o),
(525,581,c),
(702,581,ls),
(715,581,o),
(720,583,o),
(722,594,c),
(740,725,ls),
(742,737,o),
(741,742,o),
(724,742,c),
(116,742,ls),
(99,742,o),
(95,738,o),
(93,725,c)
);
}
);
width = 704;
},
{
anchors = (
{
name = bottom;
pos = (286,0);
},
{
name = top;
pos = (390,742);
}
);
background = {
anchors = (
{
name = bottom;
pos = (286,0);
},
{
name = top;
pos = (390,742);
}
);
shapes = (
{
closed = 1;
nodes = (
(110,710,l),
(109,704,o),
(111,702,o),
(117,702,c),
(351,702,ls),
(359,702,o),
(360,702,o),
(359,694,c),
(263,11,ls),
(262,3,o),
(265,0,o),
(273,0,c),
(300,0,ls),
(307,0,o),
(308,1,o),
(309,9,c),
(405,692,ls),
(406,700,o),
(409,702,o),
(417,702,c),
(630,702,ls),
(636,702,o),
(637,702,o),
(638,708,c),
(642,734,ls),
(643,739,o),
(640,742,o),
(635,742,c),
(120,742,ls),
(115,742,o),
(114,741,o),
(113,736,c)
);
}
);
};
layerId = "91AB5BCA-6A50-42DA-B2F7-8181BF189245";
shapes = (
{
closed = 1;
nodes = (
(110,710,l),
(109,704,o),
(111,702,o),
(117,702,c),
(348,702,ls),
(357,702,o),
(360,699,o),
(359,690,c),
(263,11,ls),
(262,3,o),
(263,0,o),
(271,0,c),
(300,0,ls),
(307,0,o),
(308,1,o),
(309,9,c),
(405,692,ls),
(406,700,o),
(409,702,o),
(417,702,c),
(628,702,ls),
(634,702,o),
(637,704,o),
(638,710,c),
(642,734,ls),
(643,739,o),
(642,742,o),
(637,742,c),
(120,742,ls),
(115,742,o),
(114,741,o),
(113,736,c)
);
}
);
width = 623;
}
);
unicode = 84;
},
{
glyphname = Tbar;
lastChange = "2024-09-04 11:48:04 +0000";
layers = (
{
background = {
shapes = (
{
closed = 1;
nodes = (
(609,396,l),
(611,408,o),
(602,422,o),
(591,422,c),
(190,422,ls),
(178,422,o),
(175,420,o),
(173,405,c),
(160,312,ls),
(157,295,o),
(165,281,o),
(185,281,c),
(564,281,ls),
(587,281,o),
(594,283,o),
(596,303,c)
);
},
{
ref = T;
}
);
};
layerId = "258ED206-D907-4350-8EBA-CBDDA1C16BF7";
shapes = (
{
closed = 1;
nodes = (
(589,396,l),
(591,408,o),
(582,422,o),
(571,422,c),
(170,422,ls),
(158,422,o),
(155,420,o),
(153,405,c),
(140,312,ls),
(138,295,o),
(145,281,o),
(165,281,c),
(544,281,ls),
(567,281,o),
(573,283,o),
(576,303,c)
);
},
{
ref = T;
}
);
width = 704;
},
{
background = {
shapes = (
{
closed = 1;
nodes = (
(559,393,l),
(560,398,o),
(557,402,o),
(552,402,c),
(200,402,ls),
(195,402,o),
(194,400,o),
(193,394,c),
(190,371,ls),
(189,364,o),
(191,360,o),
(199,360,c),
(542,360,ls),
(551,360,o),
(555,362,o),
(556,370,c)
);
},
{
ref = T;
}
);
};
guides = (
{
angle = 90;
pos = (212,188);
}
);
layerId = "91AB5BCA-6A50-42DA-B2F7-8181BF189245";
shapes = (
{
closed = 1;
nodes = (
(527,393,l),
(528,398,o),
(525,402,o),
(520,402,c),
(168,402,ls),
(163,402,o),
(162,400,o),
(161,394,c),
(158,371,ls),
(157,364,o),
(159,360,o),
(167,360,c),
(510,360,ls),
(519,360,o),
(523,362,o),
(524,370,c)
);
},
{
ref = T;
}
);
width = 623;
}
);
metricLeft = T;
metricRight = T;
unicode = 358;
},
{
glyphname = U;
kernLeft = U;
kernRight = U;
lastChange = "2024-09-04 11:48:04 +0000";
layers = (
{
anchors = (
{
name = bottom;
pos = (327,0);
},
{
name = ogonek;
pos = (440,10);
},
{
name = top;
pos = (448,742);
},
{
name = topright;
pos = (627,739);
}
);
background = {
anchors = (
{
name = ogonek;
pos = (440,10);
},
{
name = top;
pos = (448,742);
}
);
shapes = (
{
closed = 1;
nodes = (
(687,287,l),
(747,715,ls),
(749,728,o),
(741,742,o),
(729,742,c),
(579,742,ls),
(567,742,o),
(564,740,o),
(562,725,c),
(502,298,ls),
(486,187,o),
(423,149,o),
(357,149,c),
(293,149,o),
(259,181,o),
(274,283,c),
(334,715,ls),
(336,728,o),
(328,742,o),
(316,742,c),
(126,742,ls),
(115,742,o),
(111,740,o),
(109,725,c),
(52,319,ls),
(22,110,o),
(90,-10,o),
(333,-10,c),
(520,-10,o),
(655,56,o),
(687,287,c)
);
}
);
};
layerId = "258ED206-D907-4350-8EBA-CBDDA1C16BF7";
shapes = (
{
closed = 1;
nodes = (
(687,287,l),
(747,715,ls),
(749,728,o),
(741,742,o),
(729,742,c),
(579,742,ls),
(567,742,o),
(564,740,o),
(562,725,c),
(502,298,ls),
(486,187,o),
(423,149,o),
(357,149,c),
(303,149,o),
(270,172,o),
(270,240,c),
(270,253,o),
(272,267,o),
(274,283,c),
(334,715,ls),
(336,728,o),
(328,742,o),
(316,742,c),
(126,742,ls),
(115,742,o),
(111,740,o),
(109,725,c),
(52,319,ls),
(48,289,o),
(45,260,o),
(45,234,c),
(45,78,o),
(125,-10,o),
(333,-10,c),
(520,-10,o),
(655,56,o),
(687,287,c)
);
}
);
width = 728;
},
{
anchors = (
{
name = bottom;
pos = (314,0);
},
{
name = ogonek;
pos = (387,9);
},
{
name = top;
pos = (422,742);
},
{
name = topright;
pos = (518,742);
}
);
background = {
anchors = (
{
name = ogonek;
pos = (387,9);
},
{
name = top;
pos = (422,742);
}
);
shapes = (
{
closed = 1;
nodes = (
(593,229,l),
(664,732,ls),
(664,738,o),
(662,742,o),
(656,742,c),
(632,742,ls),
(626,742,o),
(625,740,o),
(624,734,c),
(553,230,ls),
(535,98,o),
(457,32,o),
(318,32,c),
(183,32,o),
(126,95,o),
(144,225,c),
(215,731,ls),
(217,739,o),
(214,742,o),
(206,742,c),
(178,742,ls),
(172,742,o),
(171,740,o),
(170,732,c),
(101,246,ls),
(77,72,o),
(145,-10,o),
(314,-10,c),
(479,-10,o),
(570,68,o),
(593,229,c)
);
}
);
};
layerId = "91AB5BCA-6A50-42DA-B2F7-8181BF189245";
shapes = (
{
closed = 1;
nodes = (
(593,229,l),
(664,732,ls),
(664,738,o),
(662,742,o),
(656,742,c),
(632,742,ls),
(626,742,o),
(625,740,o),
(624,734,c),
(553,230,ls),
(535,98,o),
(457,32,o),
(318,32,c),
(199,32,o),
(141,81,o),
(141,181,c),
(141,195,o),
(142,209,o),
(144,225,c),
(215,731,ls),
(217,739,o),
(214,742,o),
(206,742,c),
(178,742,ls),
(172,742,o),
(171,740,o),
(170,732,c),
(101,246,ls),
(98,223,o),
(96,202,o),
(96,183,c),
(96,52,o),
(167,-10,o),
(314,-10,c),
(479,-10,o),
(570,68,o),
(593,229,c)
);
}
);
width = 702;
}
);
unicode = 85;
},
{
glyphname = V;
kernLeft = V;
kernRight = V;
lastChange = "2024-09-04 11:48:04 +0000";
layers = (
{
background = {
shapes = (
{
closed = 1;
nodes = (
(770,742,l),
(621,742,ls),
(609,742,o),
(601,739,o),
(596,726,c),
(408,288,ls),
(405,278,o),
(399,268,o),
(398,277,c),
(324,716,ls),
(323,729,o),
(313,742,o),
(301,742,c),
(108,742,ls),
(92,742,o),
(87,733,o),
(91,718,c),
(227,30,ls),
(229,13,o),
(242,0,o),
(262,0,c),
(424,0,ls),
(444,0,o),
(453,3,o),
(461,20,c),
(790,708,ls),
(796,723,o),
(786,742,o),
(770,742,c)
);
}
);
};
layerId = "258ED206-D907-4350-8EBA-CBDDA1C16BF7";
shapes = (
{
closed = 1;
nodes = (
(780,742,l),
(621,742,ls),
(609,742,o),
(601,739,o),
(596,726,c),
(406,283,ls),
(401,272,o),
(398,272,o),
(396,284,c),
(324,716,ls),
(321,734,o),
(317,742,o),
(305,742,c),
(108,742,ls),
(92,742,o),
(87,733,o),
(91,718,c),
(229,20,ls),
(232,4,o),
(242,0,o),
(262,0,c),
(424,0,ls),
(444,0,o),
(453,3,o),
(461,20,c),
(794,717,ls),
(801,732,o),
(796,742,o),
(780,742,c)
);
}
);
width = 751;
},
{
background = {
shapes = (
{
closed = 1;
nodes = (
(696,742,l),
(671,742,ls),
(665,742,o),
(663,741,o),
(660,736,c),
(321,66,ls),
(315,52,o),
(309,50,o),
(306,63,c),
(162,733,ls),
(162,739,o),
(158,742,o),
(150,742,c),
(127,742,ls),
(120,742,o),
(118,739,o),
(119,733,c),
(273,11,ls),
(273,4,o),
(280,0,o),
(291,0,c),
(323,0,ls),
(332,0,o),
(335,2,o),
(339,10,c),
(704,732,ls),
(705,737,o),
(702,742,o),
(696,742,c)
);
}
);
};
layerId = "91AB5BCA-6A50-42DA-B2F7-8181BF189245";
shapes = (
{
closed = 1;
nodes = (
(700,742,l),
(671,742,ls),
(665,742,o),
(663,741,o),
(660,736,c),
(319,61,ls),
(314,52,o),
(309,51,o),
(306,63,c),
(162,733,ls),
(161,740,o),
(158,742,o),
(150,742,c),
(127,742,ls),
(120,742,o),
(118,739,o),
(119,733,c),
(273,11,ls),
(275,2,o),
(280,0,o),
(291,0,c),
(323,0,ls),
(332,0,o),
(335,2,o),
(339,10,c),
(704,732,ls),
(707,739,o),
(706,742,o),
(700,742,c)
);
}
);
width = 690;
}
);
unicode = 86;
},
{
glyphname = W;
kernLeft = W;
kernRight = W;
lastChange = "2024-09-04 11:48:04 +0000";
layers = (
{
anchors = (
{
name = top;
pos = (623,742);
}
);
background = {
anchors = (
{
name = top;
pos = (623,742);
}
);
shapes = (
{
closed = 1;
nodes = (
(1115,742,l),
(999,742,ls),
(978,742,o),
(973,739,o),
(968,726,c),
(812,345,ls),
(810,337,o),
(801,328,o),
(800,336,c),
(742,716,ls),
(741,729,o),
(733,742,o),
(712,742,c),
(572,742,ls),
(551,742,o),
(546,739,o),
(541,726,c),
(382,351,ls),
(379,340,o),
(372,330,o),
(370,345,c),
(315,716,ls),
(314,729,o),
(306,742,o),
(285,742,c),
(120,742,ls),
(94,742,o),
(87,730,o),
(90,707,c),
(200,30,ls),
(203,13,o),
(214,0,o),
(234,0,c),
(377,0,ls),
(398,0,o),
(405,3,o),
(413,20,c),
(566,370,ls),
(575,390,o),
(581,398,o),
(582,382,c),
(638,30,ls),
(640,13,o),
(652,0,o),
(672,0,c),
(810,0,ls),
(830,0,o),
(837,3,o),
(846,20,c),
(1145,697,ls),
(1153,720,o),
(1141,742,o),
(1115,742,c)
);
}
);
};
layerId = "258ED206-D907-4350-8EBA-CBDDA1C16BF7";
shapes = (
{
closed = 1;
nodes = (
(1133,742,l),
(999,742,ls),
(978,742,o),
(973,739,o),
(968,726,c),
(811,343,ls),
(807,332,o),
(800,333,o),
(799,341,c),
(742,716,ls),
(740,732,o),
(738,742,o),
(717,742,c),
(573,742,ls),
(552,742,o),
(546,739,o),
(541,726,c),
(381,348,ls),
(376,335,o),
(371,335,o),
(369,349,c),
(315,716,ls),
(313,731,o),
(306,742,o),
(285,742,c),
(118,742,ls),
(92,742,o),
(86,730,o),
(90,707,c),
(200,24,ls),
(203,7,o),
(212,0,o),
(232,0,c),
(377,0,ls),
(398,0,o),
(405,3,o),
(413,20,c),
(570,380,ls),
(575,391,o),
(580,392,o),
(582,380,c),
(639,21,ls),
(642,4,o),
(652,0,o),
(672,0,c),
(810,0,ls),
(830,0,o),
(837,3,o),
(846,20,c),
(1145,697,ls),
(1160,732,o),
(1159,742,o),
(1133,742,c)
);
}
);
width = 1109;
},
{
anchors = (
{
name = top;
pos = (580,742);
}
);
background = {
anchors = (
{
name = top;
pos = (580,742);
}
);
shapes = (
{
closed = 1;
nodes = (
(1026,742,l),
(1001,742,ls),
(995,742,o),
(991,741,o),
(989,736,c),
(706,73,ls),
(701,59,o),
(697,57,o),
(695,70,c),
(602,733,ls),
(602,739,o),
(599,742,o),
(591,742,c),
(566,742,ls),
(557,742,o),
(555,739,o),
(553,736,c),
(270,73,ls),
(265,59,o),
(261,57,o),
(259,70,c),
(166,733,ls),
(166,739,o),
(163,742,o),
(155,742,c),
(130,742,ls),
(123,742,o),
(121,739,o),
(122,733,c),
(223,11,ls),
(223,4,o),
(230,0,o),
(240,0,c),
(272,0,ls),
(282,0,o),
(285,2,o),
(288,10,c),
(565,657,ls),
(566,661,o),
(568,663,o),
(568,659,c),
(659,11,ls),
(659,4,o),
(666,0,o),
(676,0,c),
(708,0,ls),
(718,0,o),
(721,2,o),
(724,10,c),
(1034,732,ls),
(1034,737,o),
(1032,742,o),
(1026,742,c)
);
}
);
};
guides = (
{
pos = (47,125);
}
);
layerId = "91AB5BCA-6A50-42DA-B2F7-8181BF189245";
shapes = (
{
closed = 1;
nodes = (
(1026,742,l),
(1001,742,ls),
(995,742,o),
(991,741,o),
(989,736,c),
(706,73,ls),
(701,59,o),
(697,59,o),
(695,70,c),
(602,733,ls),
(601,740,o),
(599,742,o),
(591,742,c),
(566,742,ls),
(557,742,o),
(555,741,o),
(553,736,c),
(270,72,ls),
(265,60,o),
(261,60,o),
(259,72,c),
(166,733,ls),
(165,739,o),
(163,742,o),
(155,742,c),
(130,742,ls),
(123,742,o),
(121,739,o),
(122,733,c),
(223,11,ls),
(224,3,o),
(229,0,o),
(239,0,c),
(271,0,ls),
(281,0,o),
(284,2,o),
(288,10,c),
(564,655,ls),
(566,659,o),
(568,659,o),
(569,655,c),
(659,11,ls),
(660,4,o),
(666,0,o),
(676,0,c),
(708,0,ls),
(718,0,o),
(721,2,o),
(724,10,c),
(1034,732,ls),
(1034,737,o),
(1032,742,o),
(1026,742,c)
);
}
);
width = 1021;
}
);
unicode = 87;
},
{
glyphname = X;
kernLeft = X;
kernRight = X;
lastChange = "2024-09-04 11:48:04 +0000";
layers = (
{
background = {
shapes = (
{
closed = 1;
nodes = (
(686,46,l),
(515,378,ls),
(509,393,o),
(513,400,o),
(524,414,c),
(756,704,ls),
(766,719,o),
(764,742,o),
(740,742,c),
(585,742,ls),
(563,742,o),
(556,740,o),
(546,726,c),
(431,565,ls),
(425,554,o),
(413,544,o),
(409,555,c),
(339,716,ls),
(334,730,o),
(324,742,o),
(302,742,c),
(113,742,ls),
(90,742,o),
(91,727,o),
(99,712,c),
(258,397,ls),
(263,382,o),
(260,376,o),
(247,361,c),
(6,56,ls),
(-24,16,o),
(-9,0,o),
(19,0,c),
(161,0,ls),
(181,0,o),
(194,0,o),
(204,15,c),
(339,204,ls),
(352,223,o),
(359,232,o),
(368,213,c),
(452,25,ls),
(457,11,o),
(472,0,o),
(492,0,c),
(672,0,ls),
(700,0,o),
(706,7,o),
(686,46,c)
);
}
);
};
layerId = "258ED206-D907-4350-8EBA-CBDDA1C16BF7";
shapes = (
{
closed = 1;
nodes = (
(686,46,l),
(515,378,ls),
(509,390,o),
(509,396,o),
(524,414,c),
(756,704,ls),
(766,719,o),
(773,742,o),
(749,742,c),
(585,742,ls),
(563,742,o),
(556,740,o),
(546,726,c),
(427,559,ls),
(420,549,o),
(413,547,o),
(408,559,c),
(338,721,ls),
(331,738,o),
(324,742,o),
(302,742,c),
(113,742,ls),
(94,742,o),
(90,731,o),
(97,717,c),
(258,397,ls),
(263,382,o),
(260,376,o),
(247,361,c),
(6,56,ls),
(-24,16,o),
(-16,0,o),
(12,0,c),
(161,0,ls),
(181,0,o),
(194,0,o),
(204,15,c),
(345,211,ls),
(356,227,o),
(361,228,o),
(368,213,c),
(454,19,ls),
(461,3,o),
(472,0,o),
(492,0,c),
(672,0,ls),
(700,0,o),
(706,7,o),
(686,46,c)
);
}
);
width = 756;
},
{
background = {
shapes = (
{
closed = 1;
nodes = (
(570,9,l),
(376,373,ls),
(373,379,o),
(377,383,o),
(381,389,c),
(664,735,ls),
(666,738,o),
(665,742,o),
(661,742,c),
(620,742,ls),
(616,742,o),
(614,742,o),
(612,739,c),
(361,432,ls),
(353,422,o),
(349,421,o),
(344,429,c),
(180,737,ls),
(179,740,o),
(178,742,o),
(172,742,c),
(133,742,ls),
(129,742,o),
(129,738,o),
(131,735,c),
(315,392,ls),
(319,384,o),
(317,378,o),
(311,371,c),
(18,11,ls),
(12,3,o),
(16,0,o),
(22,0,c),
(58,0,ls),
(61,0,o),
(64,0,o),
(66,3,c),
(328,323,ls),
(340,338,o),
(344,339,o),
(350,328,c),
(524,5,ls),
(526,2,o),
(527,0,o),
(531,0,c),
(567,0,ls),
(573,0,o),
(575,1,o),
(570,9,c)
);
}
);
};
layerId = "91AB5BCA-6A50-42DA-B2F7-8181BF189245";
shapes = (
{
closed = 1;
nodes = (
(570,9,l),
(376,373,ls),
(374,377,o),
(374,380,o),
(378,384,c),
(664,735,ls),
(666,738,o),
(666,742,o),
(662,742,c),
(620,742,ls),
(616,742,o),
(614,741,o),
(612,739,c),
(358,429,ls),
(352,422,o),
(348,422,o),
(344,429,c),
(180,737,ls),
(178,741,o),
(177,742,o),
(172,742,c),
(133,742,ls),
(129,742,o),
(129,739,o),
(131,735,c),
(315,392,ls),
(319,384,o),
(317,378,o),
(311,371,c),
(18,11,ls),
(12,3,o),
(12,0,o),
(18,0,c),
(58,0,ls),
(61,0,o),
(64,1,o),
(66,3,c),
(334,330,ls),
(340,338,o),
(345,337,o),
(350,328,c),
(524,5,ls),
(526,1,o),
(528,0,o),
(531,0,c),
(567,0,ls),
(573,0,o),
(574,2,o),
(570,9,c)
);
}
);
width = 662;
}
);
unicode = 88;
},
{
glyphname = Y;
kernLeft = Y;
kernRight = Y;
lastChange = "2024-09-04 11:48:04 +0000";
layers = (
{
anchors = (
{
name = bottom;
pos = (350,0);
},
{
name = top;
pos = (470,742);
},
{
name = topleft;
pos = (87,742);
}
);
background = {
anchors = (
{
name = top;
pos = (470,742);
}
);
shapes = (
{
closed = 1;
nodes = (
(796,742,l),
(639,742,ls),
(620,742,o),
(615,743,o),
(605,726,c),
(451,503,ls),
(444,491,o),
(438,482,o),
(434,494,c),
(341,716,ls),
(336,732,o),
(330,742,o),
(310,742,c),
(109,742,ls),
(88,742,o),
(86,735,o),
(94,719,c),
(275,337,ls),
(281,322,o),
(283,315,o),
(280,294,c),
(243,31,ls),
(241,14,o),
(249,0,o),
(269,0,c),
(437,0,ls),
(460,0,o),
(466,2,o),
(469,23,c),
(504,269,ls),
(509,311,o),
(514,322,o),
(525,336,c),
(813,714,ls),
(822,727,o),
(813,742,o),
(796,742,c)
);
}
);
};
layerId = "258ED206-D907-4350-8EBA-CBDDA1C16BF7";
shapes = (
{
closed = 1;
nodes = (
(803,742,l),
(638,742,ls),
(619,742,o),
(615,741,o),
(605,726,c),
(445,494,ls),
(440,487,o),
(437,487,o),
(434,494,c),
(341,716,ls),
(334,732,o),
(329,742,o),
(310,742,c),
(109,742,ls),
(88,742,o),
(86,735,o),
(94,719,c),
(275,337,ls),
(281,322,o),
(283,315,o),
(280,294,c),
(242,24,ls),
(240,7,o),
(243,0,o),
(261,0,c),
(437,0,ls),
(460,0,o),
(466,2,o),
(469,23,c),
(504,269,ls),
(509,311,o),
(514,322,o),
(525,336,c),
(816,718,ls),
(823,728,o),
(820,742,o),
(803,742,c)
);
}
);
width = 774;
},
{
anchors = (
{
name = bottom;
pos = (282,0);
},
{
name = top;
pos = (381,742);
},
{
name = topleft;
pos = (87,742);
}
);
background = {
anchors = (
{
name = top;
pos = (381,742);
}
);
shapes = (
{
closed = 1;
nodes = (
(648,742,l),
(622,742,ls),
(613,742,o),
(611,742,o),
(605,734,c),
(345,375,ls),
(336,362,o),
(328,359,o),
(321,375,c),
(162,732,ls),
(159,739,o),
(156,742,o),
(147,742,c),
(124,742,ls),
(114,742,o),
(113,738,o),
(116,731,c),
(302,316,ls),
(305,309,o),
(305,306,o),
(303,296,c),
(263,12,ls),
(262,5,o),
(266,0,o),
(275,0,c),
(294,0,ls),
(305,0,o),
(308,3,o),
(309,12,c),
(351,305,ls),
(352,315,o),
(354,319,o),
(358,325,c),
(654,730,ls),
(659,736,o),
(655,742,o),
(648,742,c)
);
}
);
};
layerId = "91AB5BCA-6A50-42DA-B2F7-8181BF189245";
shapes = (
{
closed = 1;
nodes = (
(650,742,l),
(622,742,ls),
(613,742,o),
(610,741,o),
(605,734,c),
(345,375,ls),
(334,360,o),
(327,361,o),
(321,375,c),
(162,732,ls),
(159,739,o),
(156,742,o),
(147,742,c),
(123,742,ls),
(113,742,o),
(113,738,o),
(116,731,c),
(302,316,ls),
(305,309,o),
(305,306,o),
(303,296,c),
(263,12,ls),
(262,5,o),
(263,0,o),
(272,0,c),
(293,0,ls),
(304,0,o),
(308,3,o),
(309,12,c),
(351,305,ls),
(352,315,o),
(354,319,o),
(358,325,c),
(654,730,ls),
(659,736,o),
(657,742,o),
(650,742,c)
);
}
);
width = 638;
}
);
unicode = 89;
},
{
glyphname = Z;
kernLeft = Z;
kernRight = Z;
lastChange = "2024-09-04 11:48:04 +0000";
layers = (
{
anchors = (
{
name = bottom;
pos = (310,0);
},
{
name = top;
pos = (438,742);
}
);
background = {
anchors = (
{
name = bottom;
pos = (310,0);
},
{
name = top;
pos = (438,742);
}
);
shapes = (
{
closed = 1;
nodes = (
(19,0,l),
(620,0,ls),
(637,0,o),
(640,4,o),
(642,16,c),
(660,141,ls),
(662,155,o),
(651,166,o),
(637,166,c),
(340,166,ls),
(331,166,o),
(327,164,o),
(335,175,c),
(721,625,ls),
(734,643,o),
(737,650,o),
(739,665,c),
(746,716,ls),
(748,728,o),
(739,742,o),
(727,742,c),
(140,742,ls),
(129,742,o),
(126,740,o),
(124,727,c),
(107,607,ls),
(105,589,o),
(112,577,o),
(129,577,c),
(394,577,ls),
(408,577,o),
(404,577,o),
(395,566,c),
(23,126,ls),
(3,99,o),
(2,97,o),
(-1,76,c),
(-7,31,ls),
(-10,11,o),
(-1,0,o),
(19,0,c)
);
}
);
};
layerId = "258ED206-D907-4350-8EBA-CBDDA1C16BF7";
shapes = (
{
closed = 1;
nodes = (
(19,0,l),
(620,0,ls),
(637,0,o),
(640,4,o),
(642,16,c),
(661,149,ls),
(663,163,o),
(660,166,o),
(646,166,c),
(337,166,ls),
(331,166,o),
(330,170,o),
(335,175,c),
(721,625,ls),
(734,643,o),
(737,650,o),
(739,665,c),
(747,720,ls),
(749,733,o),
(745,742,o),
(733,742,c),
(140,742,ls),
(129,742,o),
(126,740,o),
(124,727,c),
(107,607,ls),
(105,589,o),
(112,577,o),
(129,577,c),
(394,577,ls),
(408,577,o),
(404,577,o),
(395,566,c),
(23,126,ls),
(5,104,o),
(1,95,o),
(-1,76,c),
(-7,26,ls),
(-9,6,o),
(-1,0,o),
(19,0,c)
);
}
);
width = 714;
},
{
anchors = (
{
name = bottom;
pos = (275,0);
},
{
name = top;
pos = (372,742);
}
);
background = {
anchors = (
{
name = bottom;
pos = (275,0);
},
{
name = top;
pos = (372,742);
}
);
shapes = (
{
closed = 1;
nodes = (
(27,0,l),
(501,0,ls),
(506,0,o),
(507,2,o),
(508,6,c),
(512,34,ls),
(512,38,o),
(509,40,o),
(505,40,c),
(84,40,ls),
(80,40,o),
(82,42,o),
(85,47,c),
(602,706,ls),
(606,711,o),
(607,713,o),
(608,718,c),
(610,735,ls),
(611,739,o),
(608,742,o),
(604,742,c),
(137,742,ls),
(133,742,o),
(132,741,o),
(131,737,c),
(128,710,ls),
(127,705,o),
(129,702,o),
(134,702,c),
(540,702,ls),
(545,702,o),
(545,701,o),
(542,696,c),
(29,40,ls),
(23,33,o),
(22,29,o),
(21,23,c),
(19,8,ls),
(18,3,o),
(21,0,o),
(27,0,c)
);
}
);
};
layerId = "91AB5BCA-6A50-42DA-B2F7-8181BF189245";
shapes = (
{
closed = 1;
nodes = (
(27,0,l),
(501,0,ls),
(506,0,o),
(507,2,o),
(508,6,c),
(512,34,ls),
(512,38,o),
(509,40,o),
(505,40,c),
(86,40,ls),
(83,40,o),
(81,42,o),
(85,47,c),
(602,706,ls),
(606,711,o),
(607,713,o),
(608,718,c),
(610,735,ls),
(611,740,o),
(608,742,o),
(604,742,c),
(137,742,ls),
(133,742,o),
(132,741,o),
(131,737,c),
(128,710,ls),
(127,705,o),
(129,702,o),
(134,702,c),
(539,702,ls),
(543,702,o),
(545,700,o),
(542,696,c),
(29,40,ls),
(23,33,o),
(22,29,o),
(21,23,c),
(19,8,ls),
(18,3,o),
(21,0,o),
(27,0,c)
);
}
);
width = 600;
}
);
unicode = 90;
},
{
glyphname = a;
kernLeft = a;
kernRight = a;
lastChange = "2024-09-04 11:48:04 +0000";
layers = (
{
anchors = (
{
name = bottom;
pos = (250,0);
},
{
name = ogonek;
pos = (473,10);
},
{
name = top;
pos = (334,530);
}
);
background = {
anchors = (
{
name = ogonek;
pos = (473,10);
},
{
name = top;
pos = (334,530);
}
);
shapes = (
{
closed = 1;
nodes = (
(296,40,l),
(312,57,o),
(321,57,o),
(322,44,c),
(323,32,ls),
(325,13,o),
(326,0,o),
(344,0,c),
(481,0,ls),
(500,0,o),
(500,1,o),
(503,21,c),
(552,369,ls),
(553,379,o),
(554,389,o),
(554,398,c),
(554,481,o),
(498,540,o),
(328,540,c),
(201,540,o),
(109,511,o),
(66,432,c),
(54,401,o),
(63,392,o),
(74,390,c),
(201,364,ls),
(218,361,o),
(223,364,o),
(227,372,c),
(248,415,o),
(286,421,o),
(318,421,c),
(349,421,o),
(363,410,o),
(363,383,c),
(363,379,o),
(363,374,o),
(362,369,c),
(359,352,ls),
(357,339,o),
(349,332,o),
(337,332,c),
(330,332,ls),
(190,332,o),
(-1,280,o),
(-1,123,c),
(-1,47,o),
(53,-10,o),
(147,-10,c),
(205,-10,o),
(262,4,o),
(296,40,c)
);
},
{
closed = 1;
nodes = (
(335,177,l),
(333,162,o),
(320,147,o),
(307,136,c),
(294,125,o),
(270,116,o),
(240,116,c),
(211,116,o),
(196,134,o),
(196,155,c),
(196,216,o),
(278,238,o),
(319,241,c),
(333,242,ls),
(345,243,o),
(344,242,o),
(342,230,c)
);
}
);
};
guides = (
{
angle = 90;
pos = (347,102);
}
);
layerId = "258ED206-D907-4350-8EBA-CBDDA1C16BF7";
shapes = (
{
closed = 1;
nodes = (
(296,40,l),
(312,57,o),
(321,57,o),
(322,44,c),
(323,32,ls),
(325,13,o),
(326,0,o),
(344,0,c),
(481,0,ls),
(500,0,o),
(500,1,o),
(503,21,c),
(552,369,ls),
(553,379,o),
(554,389,o),
(554,398,c),
(554,481,o),
(498,540,o),
(328,540,c),
(201,540,o),
(109,511,o),
(66,432,c),
(54,401,o),
(63,392,o),
(74,390,c),
(201,364,ls),
(218,361,o),
(223,364,o),
(227,372,c),
(248,415,o),
(286,421,o),
(318,421,c),
(349,421,o),
(363,410,o),
(363,383,c),
(363,379,o),
(363,374,o),
(362,369,c),
(359,352,ls),
(357,339,o),
(349,332,o),
(337,332,c),
(330,332,ls),
(190,332,o),
(-1,280,o),
(-1,123,c),
(-1,47,o),
(53,-10,o),
(147,-10,c),
(205,-10,o),
(262,4,o),
(296,40,c)
);
},
{
closed = 1;
nodes = (
(335,177,l),
(333,162,o),
(320,147,o),
(307,136,c),
(294,125,o),
(270,116,o),
(240,116,c),
(211,116,o),
(196,134,o),
(196,155,c),
(196,216,o),
(278,238,o),
(319,241,c),
(333,242,ls),
(345,243,o),
(344,242,o),
(342,230,c)
);
}
);
width = 573;
},
{
anchors = (
{
name = bottom;
pos = (232,0);
},
{
name = ogonek;
pos = (416,14);
},
{
name = top;
pos = (303,530);
}
);
background = {
anchors = (
{
name = ogonek;
pos = (416,14);
},
{
name = top;
pos = (303,530);
}
);
shapes = (
{
closed = 1;
nodes = (
(382,70,l),
(388,77,o),
(391,78,o),
(391,71,c),
(384,10,ls),
(383,3,o),
(387,0,o),
(393,0,c),
(411,0,ls),
(417,0,o),
(420,1,o),
(421,9,c),
(471,366,ls),
(472,376,o),
(473,386,o),
(473,396,c),
(473,486,o),
(410,540,o),
(307,540,c),
(213,540,o),
(139,494,o),
(89,433,c),
(85,427,o),
(86,424,o),
(89,422,c),
(111,407,l),
(115,404,o),
(117,404,o),
(121,408,c),
(175,469,o),
(233,502,o),
(303,502,c),
(383,502,o),
(433,459,o),
(433,388,c),
(433,380,o),
(432,372,o),
(431,364,c),
(427,333,ls),
(426,324,o),
(417,318,o),
(406,317,c),
(300,308,ls),
(166,297,o),
(28,250,o),
(28,113,c),
(28,37,o),
(85,-10,o),
(181,-10,c),
(254,-10,o),
(319,16,o),
(382,70,c)
);
},
{
closed = 1;
nodes = (
(404,172,l),
(400,142,o),
(374,108,o),
(332,78,c),
(291,48,o),
(239,28,o),
(189,28,c),
(116,28,o),
(71,61,o),
(71,118,c),
(71,241,o),
(222,266,o),
(316,273,c),
(406,280,ls),
(415,281,o),
(418,278,o),
(417,267,c)
);
}
);
};
layerId = "91AB5BCA-6A50-42DA-B2F7-8181BF189245";
shapes = (
{
closed = 1;
nodes = (
(382,70,l),
(388,77,o),
(391,78,o),
(391,71,c),
(384,10,ls),
(383,3,o),
(387,0,o),
(393,0,c),
(411,0,ls),
(417,0,o),
(420,1,o),
(421,9,c),
(471,366,ls),
(472,376,o),
(473,386,o),
(473,396,c),
(473,486,o),
(410,540,o),
(307,540,c),
(213,540,o),
(139,494,o),
(89,433,c),
(85,427,o),
(86,424,o),
(89,422,c),
(111,407,l),
(115,404,o),
(117,404,o),
(121,408,c),
(175,469,o),
(233,502,o),
(303,502,c),
(383,502,o),
(433,459,o),
(433,388,c),
(433,380,o),
(432,372,o),
(431,364,c),
(427,333,ls),
(426,324,o),
(417,318,o),
(406,317,c),
(300,308,ls),
(166,297,o),
(28,250,o),
(28,113,c),
(28,37,o),
(85,-10,o),
(181,-10,c),
(254,-10,o),
(319,16,o),
(382,70,c)
);
},
{
closed = 1;
nodes = (
(404,172,l),
(400,142,o),
(374,108,o),
(332,78,c),
(291,48,o),
(239,28,o),
(189,28,c),
(116,28,o),
(71,61,o),
(71,118,c),
(71,241,o),
(222,266,o),
(316,273,c),
(406,280,ls),
(415,281,o),
(418,278,o),
(417,267,c)
);
}
);
width = 538;
}
);
unicode = 97;
},
{
glyphname = ae;
kernLeft = a;
kernRight = e;
lastChange = "2024-09-04 11:48:04 +0000";
layers = (
{
anchors = (
{
name = top;
pos = (492,530);
}
);
background = {
anchors = (
{
name = top;
pos = (492,530);
}
);
shapes = (
{
closed = 1;
nodes = (
(565,229,l),
(876,229,ls),
(893,230,o),
(890,231,o),
(892,243,c),
(918,429,o),
(815,540,o),
(654,540,c),
(606,540,o),
(555,529,o),
(504,500,c),
(473,522,o),
(416,539,o),
(323,540,c),
(174,540,o),
(114,504,o),
(65,432,c),
(59,415,o),
(64,392,o),
(73,390,c),
(200,364,ls),
(217,361,o),
(218,356,o),
(226,364,c),
(247,406,o),
(285,421,o),
(317,421,c),
(353,421,o),
(366,406,o),
(361,369,c),
(358,352,ls),
(357,340,o),
(341,332,o),
(333,332,c),
(310,331,ls),
(117,322,o),
(16,256,o),
(1,154,c),
(-12,58,o),
(42,-10,o),
(159,-10,c),
(247,-10,o),
(314,8,o),
(382,62,c),
(384,69,o),
(392,79,o),
(398,79,c),
(438,24,o),
(508,-10,o),
(596,-10,c),
(704,-10,o),
(773,12,o),
(861,108,c),
(870,124,o),
(863,136,o),
(853,140,c),
(768,177,ls),
(755,182,o),
(754,187,o),
(747,186,c),
(698,139,o),
(664,122,o),
(626,122,c),
(572,122,o),
(534,145,o),
(542,201,c),
(544,218,o),
(555,229,o),
(565,229,c)
);
},
{
closed = 1;
nodes = (
(662,423,l),
(708,423,o),
(717,378,o),
(714,357,c),
(712,340,o),
(702,332,o),
(689,332,c),
(563,327,l),
(570,389,o),
(617,423,o),
(662,423,c)
);
},
{
closed = 1;
nodes = (
(340,222,l),
(332,166,ls),
(327,133,o),
(283,108,o),
(241,108,c),
(206,108,o),
(191,121,o),
(194,145,c),
(202,199,o),
(275,230,o),
(314,233,c),
(328,234,ls),
(340,234,o),
(342,234,o),
(340,222,c)
);
}
);
};
layerId = "258ED206-D907-4350-8EBA-CBDDA1C16BF7";
shapes = (
{
closed = 1;
nodes = (
(565,229,l),
(876,229,ls),
(893,230,o),
(890,231,o),
(892,243,c),
(918,429,o),
(815,540,o),
(654,540,c),
(606,540,o),
(555,529,o),
(504,500,c),
(473,522,o),
(416,539,o),
(323,540,c),
(174,540,o),
(114,504,o),
(65,432,c),
(59,415,o),
(64,392,o),
(73,390,c),
(200,364,ls),
(217,361,o),
(218,356,o),
(226,364,c),
(247,406,o),
(285,421,o),
(317,421,c),
(353,421,o),
(366,406,o),
(361,369,c),
(358,352,ls),
(357,340,o),
(341,332,o),
(333,332,c),
(310,331,ls),
(117,322,o),
(16,256,o),
(1,154,c),
(-12,58,o),
(42,-10,o),
(159,-10,c),
(247,-10,o),
(314,8,o),
(382,62,c),
(384,69,o),
(392,79,o),
(398,79,c),
(438,24,o),
(508,-10,o),
(596,-10,c),
(704,-10,o),
(773,12,o),
(861,108,c),
(870,124,o),
(863,136,o),
(853,140,c),
(768,177,ls),
(755,182,o),
(754,187,o),
(747,186,c),
(698,139,o),
(664,122,o),
(626,122,c),
(572,122,o),
(534,145,o),
(542,201,c),
(544,218,o),
(555,229,o),
(565,229,c)
);
},
{
closed = 1;
nodes = (
(662,423,l),
(708,423,o),
(717,378,o),
(714,357,c),
(712,340,o),
(702,332,o),
(689,332,c),
(563,327,l),
(570,389,o),
(617,423,o),
(662,423,c)
);
},
{
closed = 1;
nodes = (
(340,222,l),
(332,166,ls),
(327,133,o),
(283,108,o),
(241,108,c),
(206,108,o),
(191,121,o),
(194,145,c),
(202,199,o),
(275,230,o),
(314,233,c),
(328,234,ls),
(340,234,o),
(342,234,o),
(340,222,c)
);
}
);
width = 914;
},
{
anchors = (
{
name = top;
pos = (489,530);
}
);
background = {
anchors = (
{
name = top;
pos = (489,530);
}
);
shapes = (
{
closed = 1;
nodes = (
(469,253,l),
(861,254,ls),
(875,254,o),
(879,260,o),
(881,272,c),
(905,443,o),
(826,540,o),
(688,540,c),
(595,540,o),
(517,501,o),
(466,421,c),
(458,500,o),
(407,540,o),
(307,540,c),
(223,540,o),
(140,501,o),
(88,433,c),
(85,427,o),
(85,424,o),
(88,422,c),
(108,407,ls),
(112,404,o),
(113,403,o),
(119,408,c),
(174,469,o),
(232,502,o),
(297,502,c),
(396,502,o),
(442,449,o),
(430,364,c),
(426,333,ls),
(424,324,o),
(416,318,o),
(404,317,c),
(291,308,ls),
(126,294,o),
(43,235,o),
(29,138,c),
(16,46,o),
(71,-10,o),
(176,-10,c),
(306,-10,o),
(374,61,o),
(417,106,c),
(418,110,o),
(420,112,o),
(422,110,c),
(445,66,o),
(488,-10,o),
(611,-10,c),
(707,-10,o),
(795,36,o),
(838,98,c),
(841,105,o),
(839,107,o),
(836,109,c),
(816,124,ls),
(812,127,o),
(811,128,o),
(805,123,c),
(770,82,o),
(720,28,o),
(615,28,c),
(504,28,o),
(431,133,o),
(445,226,c),
(448,248,o),
(452,253,o),
(469,253,c)
);
},
{
closed = 1;
nodes = (
(683,502,l),
(792,502,o),
(858,415,o),
(843,308,c),
(841,295,o),
(839,290,o),
(823,290,c),
(456,290,l),
(474,417,o),
(572,502,o),
(683,502,c)
);
},
{
closed = 1;
nodes = (
(416,266,l),
(404,178,l),
(393,100,o),
(297,34,o),
(188,29,c),
(104,25,o),
(63,70,o),
(72,136,c),
(83,214,o),
(156,260,o),
(308,272,c),
(404,279,ls),
(417,280,o),
(418,276,o),
(416,266,c)
);
}
);
};
layerId = "91AB5BCA-6A50-42DA-B2F7-8181BF189245";
shapes = (
{
closed = 1;
nodes = (
(469,253,l),
(861,254,ls),
(875,254,o),
(879,260,o),
(881,272,c),
(905,443,o),
(826,540,o),
(688,540,c),
(595,540,o),
(517,501,o),
(466,421,c),
(458,500,o),
(407,540,o),
(307,540,c),
(223,540,o),
(140,501,o),
(88,433,c),
(85,427,o),
(85,424,o),
(88,422,c),
(108,407,ls),
(112,404,o),
(113,403,o),
(119,408,c),
(174,469,o),
(232,502,o),
(297,502,c),
(396,502,o),
(442,449,o),
(430,364,c),
(426,333,ls),
(424,324,o),
(416,318,o),
(404,317,c),
(291,308,ls),
(126,294,o),
(43,235,o),
(29,138,c),
(16,46,o),
(71,-10,o),
(176,-10,c),
(306,-10,o),
(374,61,o),
(417,106,c),
(418,110,o),
(420,112,o),
(422,110,c),
(445,66,o),
(488,-10,o),
(611,-10,c),
(707,-10,o),
(795,36,o),
(838,98,c),
(841,105,o),
(839,107,o),
(836,109,c),
(816,124,ls),
(812,127,o),
(811,128,o),
(805,123,c),
(770,82,o),
(720,28,o),
(615,28,c),
(504,28,o),
(431,133,o),
(445,226,c),
(448,248,o),
(452,253,o),
(469,253,c)
);
},
{
closed = 1;
nodes = (
(683,502,l),
(792,502,o),
(858,415,o),
(843,308,c),
(841,295,o),
(839,290,o),
(823,290,c),
(456,290,l),
(474,417,o),
(572,502,o),
(683,502,c)
);
},
{
closed = 1;
nodes = (
(416,266,l),
(404,178,l),
(393,100,o),
(297,34,o),
(188,29,c),
(104,25,o),
(63,70,o),
(72,136,c),
(83,214,o),
(156,260,o),
(308,272,c),
(404,279,ls),
(417,280,o),
(418,276,o),
(416,266,c)
);
}
);
width = 929;
}
);
metricLeft = a;
metricRight = e;
unicode = 230;
},
{
glyphname = b;
kernRight = b;
lastChange = "2024-09-04 11:48:04 +0000";
layers = (
{
background = {
shapes = (
{
closed = 1;
nodes = (
(129,0,l),
(142,0,o),
(149,4,o),
(155,21,c),
(171,65,ls),
(178,84,o),
(187,81,o),
(191,74,c),
(224,20,o),
(277,-10,o),
(335,-10,c),
(522,-10,o),
(597,170,o),
(597,326,c),
(597,459,o),
(533,540,o),
(418,540,c),
(377,540,o),
(336,531,o),
(289,496,c),
(277,487,o),
(272,489,o),
(274,500,c),
(304,715,ls),
(306,728,o),
(306,742,o),
(294,742,c),
(123,742,ls),
(112,742,o),
(108,740,o),
(106,725,c),
(8,31,ls),
(6,14,o),
(14,0,o),
(35,0,c)
);
},
{
closed = 1;
nodes = (
(258,374,l),
(282,399,o),
(310,418,o),
(345,418,c),
(380,418,o),
(398,400,o),
(398,341,c),
(398,267,o),
(378,107,o),
(282,107,c),
(244,107,o),
(222,129,o),
(229,179,c)
);
}
);
};
layerId = "258ED206-D907-4350-8EBA-CBDDA1C16BF7";
shapes = (
{
closed = 1;
nodes = (
(129,0,l),
(142,0,o),
(149,4,o),
(155,21,c),
(171,65,ls),
(178,84,o),
(187,81,o),
(191,74,c),
(224,20,o),
(277,-10,o),
(335,-10,c),
(522,-10,o),
(597,170,o),
(597,326,c),
(597,459,o),
(533,540,o),
(418,540,c),
(377,540,o),
(336,531,o),
(289,496,c),
(277,487,o),
(272,489,o),
(274,500,c),
(304,715,ls),
(306,728,o),
(306,742,o),
(294,742,c),
(123,742,ls),
(112,742,o),
(108,740,o),
(106,725,c),
(8,31,ls),
(6,14,o),
(14,0,o),
(35,0,c)
);
},
{
closed = 1;
nodes = (
(258,374,l),
(282,399,o),
(310,418,o),
(345,418,c),
(380,418,o),
(398,400,o),
(398,341,c),
(398,267,o),
(378,107,o),
(282,107,c),
(244,107,o),
(222,129,o),
(229,179,c)
);
}
);
width = 616;
},
{
background = {
shapes = (
{
closed = 1;
nodes = (
(77,0,l),
(89,0,o),
(91,2,o),
(92,12,c),
(102,63,ls),
(103,72,o),
(109,75,o),
(113,69,c),
(123,51,o),
(164,-10,o),
(268,-10,c),
(455,-10,o),
(538,173,o),
(538,330,c),
(538,450,o),
(484,540,o),
(353,540,c),
(248,540,o),
(184,483,o),
(172,475,c),
(162,466,o),
(159,464,o),
(161,477,c),
(196,730,ls),
(197,738,o),
(195,742,o),
(189,742,c),
(166,742,ls),
(160,742,o),
(158,740,o),
(157,733,c),
(56,14,ls),
(54,4,o),
(58,0,o),
(66,0,c)
);
},
{
closed = 1;
nodes = (
(153,414,l),
(200,462,o),
(269,502,o),
(344,502,c),
(445,502,o),
(495,434,o),
(495,325,c),
(495,182,o),
(417,28,o),
(266,28,c),
(183,28,o),
(107,95,o),
(118,176,c)
);
}
);
};
layerId = "91AB5BCA-6A50-42DA-B2F7-8181BF189245";
shapes = (
{
closed = 1;
nodes = (
(77,0,l),
(89,0,o),
(91,2,o),
(92,12,c),
(102,63,ls),
(103,72,o),
(109,75,o),
(113,69,c),
(123,51,o),
(164,-10,o),
(268,-10,c),
(455,-10,o),
(538,173,o),
(538,330,c),
(538,450,o),
(484,540,o),
(353,540,c),
(248,540,o),
(184,483,o),
(172,475,c),
(162,466,o),
(159,464,o),
(161,477,c),
(196,730,ls),
(197,738,o),
(195,742,o),
(189,742,c),
(166,742,ls),
(160,742,o),
(158,740,o),
(157,733,c),
(56,14,ls),
(54,4,o),
(58,0,o),
(66,0,c)
);
},
{
closed = 1;
nodes = (
(153,414,l),
(200,462,o),
(269,502,o),
(344,502,c),
(445,502,o),
(495,434,o),
(495,325,c),
(495,182,o),
(417,28,o),
(266,28,c),
(183,28,o),
(107,95,o),
(118,176,c)
);
}
);
width = 592;
}
);
unicode = 98;
},
{
glyphname = c;
kernLeft = o;
kernRight = c;
lastChange = "2024-09-04 11:48:04 +0000";
layers = (
{
anchors = (
{
name = bottom;
pos = (260,0);
},
{
name = top;
pos = (335,530);
}
);
background = {
anchors = (
{
name = bottom;
pos = (260,0);
},
{
name = top;
pos = (335,530);
}
);
shapes = (
{
closed = 1;
nodes = (
(329,540,l),
(145,540,o),
(19,398,o),
(19,229,c),
(19,86,o),
(118,-10,o),
(267,-10,c),
(425,-10,o),
(504,100,o),
(520,146,c),
(527,166,o),
(522,177,o),
(511,179,c),
(419,197,ls),
(407,199,o),
(404,199,o),
(401,194,c),
(369,140,o),
(344,114,o),
(285,114,c),
(242,114,o),
(217,136,o),
(217,202,c),
(217,276,o),
(242,414,o),
(332,414,c),
(376,414,o),
(377,383,o),
(379,362,c),
(381,346,o),
(384,335,o),
(395,336,c),
(527,343,ls),
(544,344,o),
(547,347,o),
(547,359,c),
(544,442,o),
(476,540,o),
(329,540,c)
);
}
);
};
layerId = "258ED206-D907-4350-8EBA-CBDDA1C16BF7";
shapes = (
{
closed = 1;
nodes = (
(329,540,l),
(145,540,o),
(19,398,o),
(19,229,c),
(19,86,o),
(118,-10,o),
(267,-10,c),
(425,-10,o),
(504,100,o),
(520,146,c),
(527,166,o),
(522,177,o),
(511,179,c),
(419,197,ls),
(407,199,o),
(404,199,o),
(401,194,c),
(369,140,o),
(344,114,o),
(285,114,c),
(242,114,o),
(217,136,o),
(217,202,c),
(217,276,o),
(242,414,o),
(332,414,c),
(376,414,o),
(377,383,o),
(379,362,c),
(381,346,o),
(384,335,o),
(395,336,c),
(527,343,ls),
(544,344,o),
(547,347,o),
(547,359,c),
(544,442,o),
(476,540,o),
(329,540,c)
);
}
);
width = 556;
},
{
anchors = (
{
name = bottom;
pos = (260,0);
},
{
name = top;
pos = (332,530);
}
);
background = {
anchors = (
{
name = bottom;
pos = (260,0);
},
{
name = top;
pos = (332,530);
}
);
shapes = (
{
closed = 1;
nodes = (
(333,540,l),
(153,540,o),
(52,369,o),
(52,212,c),
(52,78,o),
(131,-10,o),
(259,-10,c),
(343,-10,o),
(421,27,o),
(480,105,c),
(483,109,o),
(480,114,o),
(477,116,c),
(456,131,ls),
(453,134,o),
(451,135,o),
(446,130,c),
(392,61,o),
(334,28,o),
(265,28,c),
(158,28,o),
(94,101,o),
(94,215,c),
(94,357,o),
(184,502,o),
(336,502,c),
(391,502,o),
(433,479,o),
(479,413,c),
(483,408,o),
(486,404,o),
(489,406,c),
(514,420,ls),
(517,422,o),
(518,426,o),
(514,431,c),
(478,498,o),
(423,540,o),
(333,540,c)
);
}
);
};
layerId = "91AB5BCA-6A50-42DA-B2F7-8181BF189245";
shapes = (
{
closed = 1;
nodes = (
(333,540,l),
(153,540,o),
(52,369,o),
(52,212,c),
(52,78,o),
(131,-10,o),
(259,-10,c),
(343,-10,o),
(421,27,o),
(480,105,c),
(483,109,o),
(480,114,o),
(477,116,c),
(456,131,ls),
(453,134,o),
(451,135,o),
(446,130,c),
(392,61,o),
(334,28,o),
(265,28,c),
(158,28,o),
(94,101,o),
(94,215,c),
(94,357,o),
(184,502,o),
(336,502,c),
(391,502,o),
(433,479,o),
(479,413,c),
(483,408,o),
(486,404,o),
(489,406,c),
(514,420,ls),
(517,422,o),
(518,426,o),
(514,431,c),
(478,498,o),
(423,540,o),
(333,540,c)
);
}
);
width = 537;
}
);
unicode = 99;
},
{
glyphname = d;
kernLeft = d;
lastChange = "2024-09-04 11:48:04 +0000";
layers = (
{
anchors = (
{
name = bottom;
pos = (270,0);
},
{
name = center;
pos = (307,265);
},
{
name = topright;
pos = (630,530);
}
);
background = {
anchors = (
{
name = bottom;
pos = (270,0);
},
{
name = center;
pos = (307,265);
},
{
name = topright;
pos = (630,530);
}
);
shapes = (
{
closed = 1;
nodes = (
(510,0,l),
(531,0,o),
(538,5,o),
(540,22,c),
(638,713,ls),
(641,734,o),
(637,742,o),
(626,742,c),
(464,742,ls),
(452,742,o),
(443,739,o),
(441,724,c),
(409,502,ls),
(404,464,o),
(390,468,o),
(381,480,c),
(349,523,o),
(314,540,o),
(265,540,c),
(122,540,o),
(19,382,o),
(19,202,c),
(19,63,o),
(87,-10,o),
(192,-10,c),
(250,-10,o),
(291,9,o),
(334,44,c),
(345,53,o),
(351,51,o),
(349,40,c),
(346,21,ls),
(343,4,o),
(357,0,o),
(370,0,c)
);
},
{
closed = 1;
nodes = (
(363,182,l),
(358,143,o),
(318,110,o),
(275,110,c),
(238,110,o),
(218,130,o),
(218,191,c),
(218,265,o),
(239,416,o),
(334,416,c),
(361,416,o),
(377,407,o),
(394,382,c)
);
}
);
};
layerId = "258ED206-D907-4350-8EBA-CBDDA1C16BF7";
shapes = (
{
closed = 1;
nodes = (
(510,0,l),
(531,0,o),
(538,5,o),
(540,22,c),
(638,713,ls),
(641,734,o),
(637,742,o),
(626,742,c),
(464,742,ls),
(452,742,o),
(443,739,o),
(441,724,c),
(409,502,ls),
(404,464,o),
(390,468,o),
(381,480,c),
(349,523,o),
(314,540,o),
(265,540,c),
(122,540,o),
(19,382,o),
(19,202,c),
(19,63,o),
(87,-10,o),
(192,-10,c),
(250,-10,o),
(291,9,o),
(334,44,c),
(345,53,o),
(351,51,o),
(349,40,c),
(346,21,ls),
(343,4,o),
(357,0,o),
(370,0,c)
);
},
{
closed = 1;
nodes = (
(363,182,l),
(358,143,o),
(318,110,o),
(275,110,c),
(238,110,o),
(218,130,o),
(218,191,c),
(218,265,o),
(239,416,o),
(334,416,c),
(361,416,o),
(377,407,o),
(394,382,c)
);
}
);
width = 616;
},
{
anchors = (
{
name = bottom;
pos = (265,0);
},
{
name = center;
pos = (314,265);
},
{
name = topright;
pos = (694,742);
}
);
background = {
anchors = (
{
name = bottom;
pos = (265,0);
},
{
name = center;
pos = (314,265);
},
{
name = topright;
pos = (694,742);
}
);
shapes = (
{
closed = 1;
nodes = (
(453,0,l),
(462,0,o),
(464,2,o),
(465,11,c),
(567,732,ls),
(567,738,o),
(564,742,o),
(559,742,c),
(536,742,ls),
(529,742,o),
(528,740,o),
(527,733,c),
(493,494,ls),
(491,481,o),
(488,475,o),
(476,485,c),
(449,509,o),
(411,540,o),
(337,540,c),
(148,540,o),
(52,356,o),
(52,201,c),
(52,61,o),
(136,-10,o),
(251,-10,c),
(346,-10,o),
(406,47,o),
(424,64,c),
(433,73,o),
(437,73,o),
(435,63,c),
(427,12,ls),
(426,5,o),
(430,0,o),
(437,0,c)
);
},
{
closed = 1;
nodes = (
(448,171,l),
(439,111,o),
(355,28,o),
(258,28,c),
(168,28,o),
(94,84,o),
(94,207,c),
(94,350,o),
(181,502,o),
(336,502,c),
(396,502,o),
(443,475,o),
(485,427,c)
);
}
);
};
layerId = "91AB5BCA-6A50-42DA-B2F7-8181BF189245";
shapes = (
{
closed = 1;
nodes = (
(453,0,l),
(462,0,o),
(464,2,o),
(465,11,c),
(567,732,ls),
(567,738,o),
(564,742,o),
(559,742,c),
(536,742,ls),
(529,742,o),
(528,740,o),
(527,733,c),
(493,494,ls),
(491,481,o),
(488,475,o),
(476,485,c),
(449,509,o),
(411,540,o),
(337,540,c),
(148,540,o),
(52,356,o),
(52,201,c),
(52,61,o),
(136,-10,o),
(251,-10,c),
(346,-10,o),
(406,47,o),
(424,64,c),
(433,73,o),
(437,73,o),
(435,63,c),
(427,12,ls),
(426,5,o),
(430,0,o),
(437,0,c)
);
},
{
closed = 1;
nodes = (
(448,171,l),
(439,111,o),
(355,28,o),
(258,28,c),
(168,28,o),
(94,84,o),
(94,207,c),
(94,350,o),
(181,502,o),
(336,502,c),
(396,502,o),
(443,475,o),
(485,427,c)
);
}
);
width = 592;
}
);
unicode = 100;
},
{
glyphname = dcroat;
kernLeft = d;
lastChange = "2024-09-04 11:48:04 +0000";
layers = (
{
background = {
shapes = (
{
closed = 1;
nodes = (
(706,663,l),
(707,674,o),
(699,687,o),
(689,687,c),
(350,687,ls),
(340,687,o),
(338,686,o),
(336,673,c),
(327,608,ls),
(325,593,o),
(332,580,o),
(349,580,c),
(669,580,ls),
(689,580,o),
(694,581,o),
(697,598,c)
);
},
{
ref = d;
}
);
};
layerId = "258ED206-D907-4350-8EBA-CBDDA1C16BF7";
shapes = (
{
closed = 1;
nodes = (
(706,663,l),
(707,674,o),
(699,687,o),
(689,687,c),
(350,687,ls),
(340,687,o),
(338,686,o),
(336,673,c),
(327,608,ls),
(325,593,o),
(332,580,o),
(349,580,c),
(669,580,ls),
(689,580,o),
(694,581,o),
(697,598,c)
);
},
{
ref = d;
}
);
width = 626;
},
{
background = {
shapes = (
{
closed = 1;
nodes = (
(669,655,l),
(669,659,o),
(667,662,o),
(664,662,c),
(385,662,ls),
(382,662,o),
(381,661,o),
(380,656,c),
(377,636,ls),
(376,630,o),
(378,627,o),
(384,627,c),
(656,627,ls),
(663,627,o),
(665,628,o),
(666,634,c)
);
},
{
ref = d;
}
);
};
layerId = "91AB5BCA-6A50-42DA-B2F7-8181BF189245";
shapes = (
{
closed = 1;
nodes = (
(669,655,l),
(669,659,o),
(667,662,o),
(664,662,c),
(385,662,ls),
(382,662,o),
(381,661,o),
(380,656,c),
(377,636,ls),
(376,630,o),
(378,627,o),
(384,627,c),
(656,627,ls),
(663,627,o),
(665,628,o),
(666,634,c)
);
},
{
ref = d;
}
);
width = 602;
}
);
metricLeft = d;
unicode = 273;
},
{
glyphname = eth;
lastChange = "2024-09-04 11:48:04 +0000";
layers = (
{
background = {
shapes = (
{
closed = 1;
nodes = (
(580,271,l),
(603,434,o),
(545,579,o),
(433,666,c),
(490,692,ls),
(496,696,o),
(492,699,o),
(490,704,c),
(473,742,ls),
(471,747,o),
(464,757,o),
(456,752,c),
(374,704,l),
(340,723,o),
(301,739,o),
(256,746,c),
(248,751,o),
(247,756,o),
(239,750,c),
(144,681,ls),
(138,675,o),
(146,667,o),
(155,667,c),
(181,655,o),
(205,644,o),
(228,631,c),
(145,591,ls),
(138,588,o),
(140,583,o),
(146,572,c),
(159,548,ls),
(163,537,o),
(169,527,o),
(181,533,c),
(286,593,l),
(310,572,o),
(326,556,o),
(342,535,c),
(341,528,o),
(336,520,o),
(328,520,c),
(174,520,o),
(42,415,o),
(21,263,c),
(-1,109,o),
(100,-10,o),
(268,-10,c),
(431,-10,o),
(555,96,o),
(580,271,c)
);
},
{
closed = 1;
nodes = (
(271,118,l),
(222,118,o),
(208,156,o),
(220,245,c),
(234,345,o),
(269,396,o),
(326,396,c),
(376,396,o),
(390,357,o),
(377,267,c),
(364,169,o),
(329,118,o),
(271,118,c)
);
}
);
};
layerId = "258ED206-D907-4350-8EBA-CBDDA1C16BF7";
shapes = (
{
closed = 1;
nodes = (
(580,271,l),
(603,434,o),
(545,579,o),
(433,666,c),
(490,692,ls),
(496,696,o),
(492,699,o),
(490,704,c),
(473,742,ls),
(471,747,o),
(464,757,o),
(456,752,c),
(374,704,l),
(340,723,o),
(301,739,o),
(256,746,c),
(248,751,o),
(247,756,o),
(239,750,c),
(144,681,ls),
(138,675,o),
(146,667,o),
(155,667,c),
(181,655,o),
(205,644,o),
(228,631,c),
(145,591,ls),
(138,588,o),
(140,583,o),
(146,572,c),
(159,548,ls),
(163,537,o),
(169,527,o),
(181,533,c),
(286,593,l),
(310,572,o),
(326,556,o),
(342,535,c),
(341,528,o),
(336,520,o),
(328,520,c),
(174,520,o),
(42,415,o),
(21,263,c),
(-1,109,o),
(100,-10,o),
(268,-10,c),
(431,-10,o),
(555,96,o),
(580,271,c)
);
},
{
closed = 1;
nodes = (
(271,118,l),
(222,118,o),
(208,156,o),
(220,245,c),
(234,345,o),
(269,396,o),
(326,396,c),
(376,396,o),
(390,357,o),
(377,267,c),
(364,169,o),
(329,118,o),
(271,118,c)
);
}
);
width = 600;
},
{
background = {
shapes = (
{
closed = 1;
nodes = (
(540,253,l),
(564,421,o),
(528,562,o),
(387,668,c),
(486,718,ls),
(489,720,o),
(487,723,o),
(486,726,c),
(477,748,ls),
(477,750,o),
(472,753,o),
(468,751,c),
(356,691,l),
(324,712,o),
(289,731,o),
(247,748,c),
(240,753,o),
(236,752,o),
(230,748,c),
(210,736,ls),
(205,732,o),
(207,726,o),
(213,725,c),
(251,707,o),
(286,690,o),
(317,671,c),
(148,584,ls),
(145,582,o),
(144,579,o),
(147,573,c),
(154,559,ls),
(157,553,o),
(160,550,o),
(166,553,c),
(348,649,l),
(426,591,o),
(468,524,o),
(489,451,c),
(451,493,o),
(396,520,o),
(324,520,c),
(189,520,o),
(76,409,o),
(54,254,c),
(33,99,o),
(115,-10,o),
(260,-10,c),
(413,-10,o),
(519,100,o),
(540,253,c)
);
},
{
closed = 1;
nodes = (
(266,28,l),
(151,28,o),
(79,127,o),
(96,252,c),
(114,379,o),
(216,482,o),
(332,482,c),
(445,482,o),
(516,382,o),
(499,256,c),
(481,128,o),
(382,28,o),
(266,28,c)
);
}
);
};
layerId = "91AB5BCA-6A50-42DA-B2F7-8181BF189245";
shapes = (
{
closed = 1;
nodes = (
(540,253,l),
(564,421,o),
(528,562,o),
(387,668,c),
(486,718,ls),
(489,720,o),
(487,723,o),
(486,726,c),
(477,748,ls),
(477,750,o),
(472,753,o),
(468,751,c),
(356,691,l),
(324,712,o),
(289,731,o),
(247,748,c),
(240,753,o),
(236,752,o),
(230,748,c),
(210,736,ls),
(205,732,o),
(207,726,o),
(213,725,c),
(251,707,o),
(286,690,o),
(317,671,c),
(148,584,ls),
(145,582,o),
(144,579,o),
(147,573,c),
(154,559,ls),
(157,553,o),
(160,550,o),
(166,553,c),
(348,649,l),
(426,591,o),
(468,524,o),
(489,451,c),
(451,493,o),
(396,520,o),
(324,520,c),
(189,520,o),
(76,409,o),
(54,254,c),
(33,99,o),
(115,-10,o),
(260,-10,c),
(413,-10,o),
(519,100,o),
(540,253,c)
);
},
{
closed = 1;
nodes = (
(266,28,l),
(151,28,o),
(79,127,o),
(96,252,c),
(114,379,o),
(216,482,o),
(332,482,c),
(445,482,o),
(516,382,o),
(499,256,c),
(481,128,o),
(382,28,o),
(266,28,c)
);
}
);
width = 598;
}
);
metricLeft = o;
metricRight = o;
unicode = 240;
},
{
glyphname = e;
kernLeft = o;
kernRight = e;
lastChange = "2024-09-04 11:48:04 +0000";
layers = (
{
anchors = (
{
name = bottom;
pos = (267,0);
},
{
name = ogonek;
pos = (399,26);
},
{
name = top;
pos = (338,530);
}
);
background = {
anchors = (
{
name = bottom;
pos = (267,0);
},
{
name = ogonek;
pos = (399,26);
},
{
name = top;
pos = (338,530);
}
);
shapes = (
{
closed = 1;
nodes = (
(272,-10,l),
(380,-10,o),
(449,12,o),
(537,108,c),
(549,122,o),
(545,133,o),
(529,140,c),
(444,177,ls),
(432,182,o),
(424,184,o),
(416,176,c),
(375,136,o),
(340,122,o),
(302,122,c),
(253,122,o),
(217,141,o),
(217,187,c),
(217,203,o),
(219,229,o),
(235,229,c),
(544,229,ls),
(561,229,o),
(566,231,o),
(568,243,c),
(571,262,o),
(572,280,o),
(572,298,c),
(572,450,o),
(474,540,o),
(330,540,c),
(154,540,o),
(18,390,o),
(18,226,c),
(18,86,o),
(122,-10,o),
(272,-10,c)
);
},
{
closed = 1;
nodes = (
(239,327,l),
(246,389,o),
(292,423,o),
(333,423,c),
(375,423,o),
(390,388,o),
(390,362,c),
(390,338,o),
(378,327,o),
(365,327,c)
);
}
);
};
layerId = "258ED206-D907-4350-8EBA-CBDDA1C16BF7";
shapes = (
{
closed = 1;
nodes = (
(272,-10,l),
(380,-10,o),
(449,12,o),
(537,108,c),
(549,122,o),
(545,133,o),
(529,140,c),
(444,177,ls),
(432,182,o),
(424,184,o),
(416,176,c),
(375,136,o),
(340,122,o),
(302,122,c),
(253,122,o),
(217,141,o),
(217,187,c),
(217,203,o),
(219,229,o),
(235,229,c),
(544,229,ls),
(561,229,o),
(566,231,o),
(568,243,c),
(571,262,o),
(572,280,o),
(572,298,c),
(572,450,o),
(474,540,o),
(330,540,c),
(154,540,o),
(18,390,o),
(18,226,c),
(18,86,o),
(122,-10,o),
(272,-10,c)
);
},
{
closed = 1;
nodes = (
(239,327,l),
(246,389,o),
(292,423,o),
(333,423,c),
(375,423,o),
(390,388,o),
(390,362,c),
(390,338,o),
(378,327,o),
(365,327,c)
);
}
);
width = 590;
},
{
anchors = (
{
name = bottom;
pos = (263,0);
},
{
name = ogonek;
pos = (358,18);
},
{
name = top;
pos = (334,530);
}
);
background = {
anchors = (
{
name = bottom;
pos = (263,0);
},
{
name = ogonek;
pos = (358,18);
},
{
name = top;
pos = (334,530);
}
);
shapes = (
{
closed = 1;
nodes = (
(262,-10,l),
(355,-10,o),
(430,26,o),
(487,98,c),
(489,103,o),
(488,107,o),
(485,109,c),
(464,124,ls),
(461,127,o),
(458,128,o),
(453,123,c),
(408,62,o),
(345,28,o),
(264,28,c),
(163,28,o),
(92,99,o),
(92,208,c),
(92,249,o),
(96,254,o),
(104,254,c),
(510,254,ls),
(521,254,o),
(528,262,o),
(529,272,c),
(532,293,o),
(533,312,o),
(533,331,c),
(533,464,o),
(460,540,o),
(336,540,c),
(154,540,o),
(52,375,o),
(52,211,c),
(52,77,o),
(133,-10,o),
(262,-10,c)
);
},
{
closed = 1;
nodes = (
(102,290,l),
(115,390,o),
(200,502,o),
(333,502,c),
(430,502,o),
(494,438,o),
(494,339,c),
(494,295,o),
(486,290,o),
(472,290,c)
);
}
);
};
layerId = "91AB5BCA-6A50-42DA-B2F7-8181BF189245";
shapes = (
{
closed = 1;
nodes = (
(262,-10,l),
(355,-10,o),
(430,26,o),
(487,98,c),
(489,103,o),
(488,107,o),
(485,109,c),
(464,124,ls),
(461,127,o),
(458,128,o),
(453,123,c),
(408,62,o),
(345,28,o),
(264,28,c),
(163,28,o),
(92,99,o),
(92,208,c),
(92,249,o),
(96,254,o),
(104,254,c),
(510,254,ls),
(521,254,o),
(528,262,o),
(529,272,c),
(532,293,o),
(533,312,o),
(533,331,c),
(533,464,o),
(460,540,o),
(336,540,c),
(154,540,o),
(52,375,o),
(52,211,c),
(52,77,o),
(133,-10,o),
(262,-10,c)
);
},
{
closed = 1;
nodes = (
(102,290,l),
(115,390,o),
(200,502,o),
(333,502,c),
(430,502,o),
(494,438,o),
(494,339,c),
(494,295,o),
(486,290,o),
(472,290,c)
);
}
);
width = 577;
}
);
unicode = 101;
},
{
glyphname = schwa;
kernLeft = o;
kernRight = o;
lastChange = "2024-09-04 11:48:04 +0000";
layers = (
{
layerId = "258ED206-D907-4350-8EBA-CBDDA1C16BF7";
shapes = (
{
closed = 1;
nodes = (
(318,540,l),
(210,540,o),
(141,518,o),
(53,422,cs),
(41,408,o),
(45,397,o),
(61,390,cs),
(146,353,ls),
(158,348,o),
(166,346,o),
(174,354,cs),
(215,394,o),
(250,408,o),
(288,408,cs),
(337,408,o),
(373,389,o),
(373,343,cs),
(373,327,o),
(371,301,o),
(355,301,cs),
(46,301,ls),
(29,301,o),
(24,299,o),
(22,287,cs),
(19,268,o),
(18,250,o),
(18,232,cs),
(18,80,o),
(116,-10,o),
(260,-10,cs),
(436,-10,o),
(572,140,o),
(572,304,cs),
(572,444,o),
(468,540,o),
(318,540,c)
);
},
{
closed = 1;
nodes = (
(351,203,l),
(344,141,o),
(298,107,o),
(257,107,cs),
(215,107,o),
(200,142,o),
(200,168,cs),
(200,192,o),
(212,203,o),
(225,203,cs)
);
}
);
width = 590;
},
{
layerId = "91AB5BCA-6A50-42DA-B2F7-8181BF189245";
shapes = (
{
closed = 1;
nodes = (
(315,540,l),
(222,540,o),
(147,504,o),
(90,432,c),
(88,427,o),
(89,423,o),
(92,421,cs),
(113,406,l),
(116,403,o),
(119,402,o),
(124,407,c),
(169,468,o),
(232,502,o),
(313,502,cs),
(414,502,o),
(485,431,o),
(485,322,cs),
(485,281,o),
(481,276,o),
(473,276,cs),
(67,276,ls),
(56,276,o),
(49,268,o),
(48,258,cs),
(45,237,o),
(44,218,o),
(44,199,cs),
(44,66,o),
(117,-10,o),
(241,-10,cs),
(423,-10,o),
(525,155,o),
(525,319,cs),
(525,453,o),
(444,540,o),
(315,540,c)
);
},
{
closed = 1;
nodes = (
(475,240,l),
(462,140,o),
(377,28,o),
(244,28,cs),
(147,28,o),
(83,92,o),
(83,191,cs),
(83,235,o),
(91,240,o),
(105,240,cs)
);
}
);
width = 577;
}
);
metricLeft = "=|e";
metricRight = "=|e";
unicode = 601;
},
{
glyphname = f;
kernLeft = f;
kernRight = f;
lastChange = "2024-09-04 11:48:04 +0000";
layers = (
{
background = {
shapes = (
{
closed = 1;
nodes = (
(417,530,l),
(351,530,ls),
(343,530,o),
(336,533,o),
(337,543,c),
(340,565,ls),
(344,593,o),
(374,612,o),
(397,612,c),
(437,612,ls),
(449,612,o),
(455,615,o),
(456,626,c),
(467,718,ls),
(469,734,o),
(457,742,o),
(438,742,c),
(325,742,ls),
(228,742,o),
(164,694,o),
(152,607,c),
(145,554,ls),
(143,541,o),
(134,530,o),
(123,530,c),
(75,530,ls),
(58,530,o),
(55,526,o),
(53,514,c),
(40,420,ls),
(38,406,o),
(39,395,o),
(53,395,c),
(114,395,ls),
(120,395,o),
(122,391,o),
(121,387,c),
(70,26,ls),
(68,13,o),
(78,0,o),
(89,0,c),
(252,0,ls),
(264,0,o),
(267,1,o),
(269,16,c),
(320,377,ls),
(322,390,o),
(324,395,o),
(331,395,c),
(400,395,ls),
(413,395,o),
(419,399,o),
(421,413,c),
(435,512,ls),
(437,524,o),
(434,530,o),
(417,530,c)
);
}
);
};
layerId = "258ED206-D907-4350-8EBA-CBDDA1C16BF7";
shapes = (
{
closed = 1;
nodes = (
(417,530,l),
(351,530,ls),
(343,530,o),
(336,533,o),
(337,543,c),
(340,565,ls),
(344,593,o),
(374,612,o),
(397,612,c),
(437,612,ls),
(449,612,o),
(455,615,o),
(456,626,c),
(467,718,ls),
(469,734,o),
(457,742,o),
(438,742,c),
(325,742,ls),
(228,742,o),
(164,694,o),
(152,607,c),
(145,554,ls),
(143,541,o),
(134,530,o),
(123,530,c),
(75,530,ls),
(58,530,o),
(55,526,o),
(53,514,c),
(40,420,ls),
(38,406,o),
(39,395,o),
(53,395,c),
(114,395,ls),
(120,395,o),
(122,391,o),
(121,387,c),
(70,26,ls),
(68,13,o),
(78,0,o),
(89,0,c),
(252,0,ls),
(264,0,o),
(267,1,o),
(269,16,c),
(320,377,ls),
(322,390,o),
(324,395,o),
(331,395,c),
(400,395,ls),
(413,395,o),
(419,399,o),
(421,413,c),
(435,512,ls),
(437,524,o),
(434,530,o),
(417,530,c)
);
}
);
width = 418;
},
{
background = {
shapes = (
{
closed = 1;
nodes = (
(369,530,l),
(235,530,ls),
(230,530,o),
(229,531,o),
(230,536,c),
(243,626,ls),
(250,677,o),
(268,707,o),
(318,707,c),
(398,707,ls),
(403,707,o),
(405,708,o),
(406,713,c),
(409,734,ls),
(410,739,o),
(407,742,o),
(403,742,c),
(331,742,ls),
(251,742,o),
(214,701,o),
(202,619,c),
(190,538,ls),
(190,533,o),
(186,530,o),
(181,530,c),
(68,530,ls),
(64,530,o),
(63,529,o),
(63,525,c),
(59,502,ls),
(59,498,o),
(61,495,o),
(65,495,c),
(179,495,ls),
(183,495,o),
(184,493,o),
(183,489,c),
(116,11,ls),
(115,4,o),
(118,0,o),
(124,0,c),
(147,0,ls),
(153,0,o),
(155,2,o),
(156,10,c),
(223,487,ls),
(224,492,o),
(227,495,o),
(232,495,c),
(365,495,ls),
(369,495,o),
(370,496,o),
(371,500,c),
(374,523,ls),
(375,527,o),
(372,530,o),
(369,530,c)
);
}
);
};
layerId = "91AB5BCA-6A50-42DA-B2F7-8181BF189245";
shapes = (
{
closed = 1;
nodes = (
(369,530,l),
(235,530,ls),
(230,530,o),
(229,531,o),
(230,536,c),
(243,626,ls),
(250,677,o),
(268,707,o),
(318,707,c),
(398,707,ls),
(403,707,o),
(405,708,o),
(406,713,c),
(409,734,ls),
(410,739,o),
(407,742,o),
(403,742,c),
(331,742,ls),
(251,742,o),
(214,701,o),
(202,619,c),
(190,538,ls),
(190,533,o),
(186,530,o),
(181,530,c),
(68,530,ls),
(64,530,o),
(63,529,o),
(63,525,c),
(59,502,ls),
(59,498,o),
(61,495,o),
(65,495,c),
(179,495,ls),
(183,495,o),
(184,493,o),
(183,489,c),
(116,11,ls),
(115,4,o),
(118,0,o),
(124,0,c),
(147,0,ls),
(153,0,o),
(155,2,o),
(156,10,c),
(223,487,ls),
(224,492,o),
(227,495,o),
(232,495,c),
(365,495,ls),
(369,495,o),
(370,496,o),
(371,500,c),
(374,523,ls),
(375,527,o),
(372,530,o),
(369,530,c)
);
}
);
width = 364;
}
);
unicode = 102;
},
{
glyphname = g;
kernLeft = g;
kernRight = g;
lastChange = "2024-09-04 11:48:04 +0000";
layers = (
{
anchors = (
{
name = top;
pos = (343,530);
}
);
background = {
anchors = (
{
name = top;
pos = (343,530);
}
);
shapes = (
{
closed = 1;
nodes = (
(224,-174,l),
(371,-174,o),
(573,-144,o),
(573,7,c),
(573,90,o),
(513,144,o),
(376,152,c),
(225,161,ls),
(200,163,o),
(188,165,o),
(188,174,c),
(188,205,o),
(275,209,o),
(293,209,c),
(404,209,o),
(564,252,o),
(564,377,c),
(564,388,o),
(563,398,o),
(561,403,c),
(554,419,o),
(563,428,o),
(586,428,c),
(594,428,o),
(622,427,o),
(639,426,c),
(651,425,o),
(657,428,o),
(660,451,c),
(672,541,ls),
(674,559,o),
(664,562,o),
(649,562,c),
(624,562,o),
(564,543,o),
(533,506,c),
(522,493,o),
(506,476,o),
(496,486,c),
(468,512,o),
(415,538,o),
(312,538,c),
(185,538,o),
(50,489,o),
(50,361,c),
(50,306,o),
(82,265,o),
(131,248,c),
(145,243,o),
(141,236,o),
(124,230,c),
(73,213,o),
(7,178,o),
(7,121,c),
(7,82,o),
(26,62,o),
(59,50,c),
(74,44,o),
(71,36,o),
(55,31,c),
(2,16,o),
(-50,-10,o),
(-50,-61,c),
(-50,-135,o),
(57,-174,o),
(224,-174,c)
);
},
{
closed = 1;
nodes = (
(236,-86,l),
(147,-86,o),
(114,-68,o),
(114,-40,c),
(114,-4,o),
(170,8,o),
(194,9,c),
(338,2,ls),
(381,0,o),
(396,-8,o),
(396,-26,c),
(396,-58,o),
(348,-86,o),
(236,-86,c)
);
},
{
closed = 1;
nodes = (
(297,300,l),
(254,300,o),
(225,324,o),
(225,352,c),
(225,402,o),
(264,445,o),
(313,445,c),
(361,445,o),
(386,422,o),
(386,390,c),
(386,338,o),
(347,300,o),
(297,300,c)
);
}
);
};
layerId = "258ED206-D907-4350-8EBA-CBDDA1C16BF7";
shapes = (
{
closed = 1;
nodes = (
(224,-174,l),
(371,-174,o),
(573,-144,o),
(573,7,c),
(573,90,o),
(513,144,o),
(376,152,c),
(225,161,ls),
(200,163,o),
(188,165,o),
(188,174,c),
(188,205,o),
(275,209,o),
(293,209,c),
(404,209,o),
(564,252,o),
(564,377,c),
(564,388,o),
(563,398,o),
(561,403,c),
(554,419,o),
(563,428,o),
(586,428,c),
(594,428,o),
(622,427,o),
(639,426,c),
(651,425,o),
(657,428,o),
(660,451,c),
(672,541,ls),
(674,559,o),
(664,562,o),
(649,562,c),
(624,562,o),
(564,543,o),
(533,506,c),
(522,493,o),
(506,476,o),
(496,486,c),
(468,512,o),
(415,538,o),
(312,538,c),
(185,538,o),
(50,489,o),
(50,361,c),
(50,306,o),
(82,265,o),
(131,248,c),
(145,243,o),
(141,236,o),
(124,230,c),
(73,213,o),
(7,178,o),
(7,121,c),
(7,82,o),
(26,62,o),
(59,50,c),
(74,44,o),
(71,36,o),
(55,31,c),
(2,16,o),
(-50,-10,o),
(-50,-61,c),
(-50,-135,o),
(57,-174,o),
(224,-174,c)
);
},
{
closed = 1;
nodes = (
(236,-86,l),
(147,-86,o),
(114,-68,o),
(114,-40,c),
(114,-4,o),
(170,8,o),
(194,9,c),
(338,2,ls),
(381,0,o),
(396,-8,o),
(396,-26,c),
(396,-58,o),
(348,-86,o),
(236,-86,c)
);
},
{
closed = 1;
nodes = (
(297,300,l),
(254,300,o),
(225,324,o),
(225,352,c),
(225,402,o),
(264,445,o),
(313,445,c),
(361,445,o),
(386,422,o),
(386,390,c),
(386,338,o),
(347,300,o),
(297,300,c)
);
}
);
width = 653;
},
{
anchors = (
{
name = top;
pos = (320,530);
}
);
background = {
anchors = (
{
name = top;
pos = (320,530);
}
);
shapes = (
{
closed = 1;
nodes = (
(212,-175,l),
(348,-175,o),
(476,-129,o),
(476,-3,c),
(476,71,o),
(432,111,o),
(338,116,c),
(219,123,ls),
(146,127,o),
(116,136,o),
(116,157,c),
(116,206,o),
(245,209,o),
(273,209,c),
(392,209,o),
(497,267,o),
(497,392,c),
(497,419,o),
(490,436,o),
(485,449,c),
(484,457,o),
(491,463,o),
(511,473,c),
(527,482,o),
(541,487,o),
(568,488,c),
(581,489,o),
(584,494,o),
(585,503,c),
(587,516,l),
(589,525,o),
(584,530,o),
(568,530,c),
(533,530,o),
(500,508,o),
(477,493,c),
(470,488,o),
(466,485,o),
(459,492,c),
(434,516,o),
(393,538,o),
(313,538,c),
(192,538,o),
(89,468,o),
(89,343,c),
(89,296,o),
(109,262,o),
(153,236,c),
(158,232,o),
(156,227,o),
(148,224,c),
(113,211,o),
(73,188,o),
(73,152,c),
(73,134,o),
(82,121,o),
(102,107,c),
(108,103,o),
(105,100,o),
(97,96,c),
(31,65,o),
(-8,15,o),
(-8,-43,c),
(-8,-122,o),
(65,-175,o),
(212,-175,c)
);
},
{
closed = 1;
nodes = (
(211,-137,l),
(106,-137,o),
(35,-110,o),
(35,-37,c),
(35,26,o),
(89,68,o),
(162,86,c),
(333,75,ls),
(407,71,o),
(433,47,o),
(433,-3,c),
(433,-113,o),
(310,-137,o),
(211,-137,c)
);
},
{
closed = 1;
nodes = (
(275,247,l),
(181,247,o),
(129,281,o),
(129,347,c),
(129,452,o),
(219,500,o),
(315,500,c),
(409,500,o),
(458,464,o),
(458,397,c),
(458,286,o),
(370,247,o),
(275,247,c)
);
}
);
};
guides = (
{
angle = 90;
pos = (279,374);
}
);
layerId = "91AB5BCA-6A50-42DA-B2F7-8181BF189245";
shapes = (
{
closed = 1;
nodes = (
(212,-175,l),
(348,-175,o),
(476,-129,o),
(476,-3,c),
(476,71,o),
(432,111,o),
(338,116,c),
(219,123,ls),
(146,127,o),
(116,136,o),
(116,157,c),
(116,206,o),
(245,209,o),
(273,209,c),
(392,209,o),
(497,267,o),
(497,392,c),
(497,419,o),
(490,435,o),
(485,449,c),
(482,457,o),
(491,463,o),
(511,473,c),
(528,481,o),
(541,487,o),
(568,488,c),
(581,489,o),
(583,493,o),
(585,503,c),
(587,516,ls),
(588,525,o),
(584,530,o),
(568,530,c),
(533,530,o),
(500,508,o),
(477,493,c),
(470,488,o),
(464,487,o),
(459,492,c),
(434,516,o),
(393,538,o),
(313,538,c),
(192,538,o),
(89,468,o),
(89,343,c),
(89,296,o),
(109,262,o),
(153,236,c),
(159,233,o),
(156,227,o),
(148,224,c),
(113,211,o),
(73,188,o),
(73,152,c),
(73,134,o),
(82,121,o),
(102,107,c),
(108,103,o),
(105,100,o),
(97,96,c),
(31,65,o),
(-8,15,o),
(-8,-43,c),
(-8,-122,o),
(65,-175,o),
(212,-175,c)
);
},
{
closed = 1;
nodes = (
(211,-137,l),
(106,-137,o),
(35,-110,o),
(35,-37,c),
(35,26,o),
(89,68,o),
(162,86,c),
(333,75,ls),
(407,71,o),
(433,47,o),
(433,-3,c),
(433,-113,o),
(310,-137,o),
(211,-137,c)
);
},
{
closed = 1;
nodes = (
(275,247,l),
(181,247,o),
(129,281,o),
(129,347,c),
(129,452,o),
(219,500,o),
(315,500,c),
(409,500,o),
(458,464,o),
(458,397,c),
(458,286,o),
(370,247,o),
(275,247,c)
);
}
);
width = 582;
}
);
unicode = 103;
},
{
glyphname = gacute;
kernLeft = g;
lastChange = "2024-09-04 11:48:04 +0000";
layers = (
{
background = {
shapes = (
{
closed = 1;
nodes = (
(-50,-135,o),
(-50,-61,c),
(-50,-19,o,{
name = inserted;
}),
(-15,11,o),
(55,31,c),
(64,35,o,{
name = inserted;
}),
(69,38,o),
(69,41,c),
(69,45,o,{
name = inserted;
}),
(66,47,o),
(59,50,c),
(24,62,o),
(7,83,o),
(7,121,c),
(7,173,o),
(60,209,o),
(124,230,c),
(135,234,o,{
name = inserted;
}),
(139,238,o),
(139,241,c),
(139,244,o,{
name = inserted;
}),
(136,247,o),
(131,248,c),
(81,265,o),
(50,306,o),
(50,361,c),
(50,443,o),
(105,495,o),
(185,520,cs,{
name = inserted;
}),
(224,532,o,{
name = inserted;
}),
(266,538,o),
(312,538,c),
(398,538,o,{
name = inserted;
}),
(458,521,o),
(496,486,c),
(504,479,o,{
name = inserted;
}),
(516,486,o),
(533,506,c),
(561,540,o),
(618,562,o),
(649,562,c),
(666,562,o),
(673,558,o),
(672,541,c),
(660,451,l),
(657,431,o),
(652,426,o),
(643,426,c),
(606,427,l),
(601,428,o,{
name = inserted;
}),
(594,428,o),
(586,428,c),
(569,428,o,{
name = inserted;
}),
(559,424,o),
(559,413,c),
(559,409,o,{
name = inserted;
}),
(560,406,o),
(561,403,c),
(564,399,o,{
name = inserted;
}),
(564,390,o),
(564,377,c),
(564,299,o),
(501,249,o),
(418,226,cs,{
name = inserted;
}),
(375,215,o,{
name = inserted;
}),
(335,209,o),
(293,209,c),
(253,209,o),
(188,201,o),
(188,174,c),
(188,166,o),
(197,164,o),
(225,161,c),
(376,152,l),
(510,144,o),
(573,93,o),
(573,7,c),
(573,-128,o),
(413,-174,o),
(224,-174,c),
(52,-174,o)
);
},
{
closed = 1;
nodes = (
(386,338,o),
(386,390,c),
(386,424,o),
(360,445,o),
(313,445,c),
(265,445,o),
(225,403,o),
(225,352,c),
(225,323,o),
(254,300,o),
(297,300,c),
(348,300,o)
);
},
{
closed = 1;
nodes = (
(396,-61,o),
(396,-26,c),
(396,-7,o),
(381,1,o),
(338,2,c),
(194,9,l),
(159,8,o),
(114,-8,o),
(114,-40,c),
(114,-71,o,{
name = inserted;
}),
(154,-86,o),
(236,-86,c),
(342,-86,o)
);
},
{
closed = 1;
nodes = (
(509,650,o,{
name = inserted;
}),
(509,647,o),
(509,643,c),
(509,634,o),
(505,629,o),
(490,625,c),
(249,569,l),
(248,569,o,{
name = inserted;
}),
(245,568,o),
(241,568,c),
(230,568,o,{
name = inserted;
}),
(224,575,o),
(220,588,c),
(211,631,l),
(210,638,o,{
name = inserted;
}),
(209,642,o),
(209,642,c),
(209,647,o,{
name = inserted;
}),
(212,651,o),
(216,652,c),
(469,753,l),
(470,754,o,{
name = inserted;
}),
(472,754,o),
(473,754,c),
(480,754,o),
(486,745,o),
(489,734,c),
(508,653,l)
);
}
);
};
layerId = "258ED206-D907-4350-8EBA-CBDDA1C16BF7";
shapes = (
{
ref = g;
},
{
pos = (466,0);
ref = acutecomb;
}
);
width = 653;
},
{
layerId = "91AB5BCA-6A50-42DA-B2F7-8181BF189245";
shapes = (
{
ref = g;
},
{
pos = (419,0);
ref = acutecomb;
}
);
width = 582;
}
);
unicode = 501;
},
{
glyphname = gcommaaccent;
kernLeft = g;
kernRight = g;
lastChange = "2024-09-04 11:48:04 +0000";
layers = (
{
anchors = (
{
name = top;
pos = (380,550);
}
);
layerId = "258ED206-D907-4350-8EBA-CBDDA1C16BF7";
shapes = (
{
closed = 1;
nodes = (
(341,599,l),
(437,599,ls),
(447,599,o),
(453,604,o),
(455,618,c),
(465,682,ls),
(468,698,o),
(465,702,o),
(454,702,c),
(424,702,ls),
(413,702,o),
(411,714,o),
(423,728,c),
(468,780,ls),
(475,788,o),
(474,796,o),
(467,796,c),
(439,796,ls),
(425,796,o),
(419,787,o),
(409,777,c),
(349,718,ls),
(343,712,o),
(338,702,o),
(337,695,c),
(325,613,ls),
(324,603,o),
(330,599,o),
(341,599,c)
);
},
{
ref = g;
}
);
width = 653;
},
{
anchors = (
{
name = top;
pos = (360,550);
}
);
layerId = "91AB5BCA-6A50-42DA-B2F7-8181BF189245";
shapes = (
{
closed = 1;
nodes = (
(345,632,l),
(392,632,ls),
(396,632,o),
(398,634,o),
(399,641,c),
(408,707,ls),
(409,712,o),
(408,715,o),
(402,715,c),
(391,715,ls),
(386,715,o),
(385,717,o),
(390,725,c),
(423,779,ls),
(426,783,o),
(425,786,o),
(421,786,c),
(405,786,ls),
(401,786,o),
(397,785,o),
(393,779,c),
(357,726,ls),
(354,722,o),
(352,717,o),
(351,713,c),
(341,638,ls),
(340,633,o),
(341,632,o),
(345,632,c)
);
},
{
ref = g;
}
);
width = 582;
}
);
unicode = 291;
},
{
glyphname = h;
kernRight = n;
lastChange = "2024-09-04 11:48:04 +0000";
layers = (
{
anchors = (
{
name = bottom;
pos = (269,0);
},
{
name = top;
pos = (482,530);
}
);
background = {
anchors = (
{
name = bottom;
pos = (269,0);
},
{
name = top;
pos = (482,530);
}
);
shapes = (
{
closed = 1;
nodes = (
(176,0,l),
(200,0,o),
(205,2,o),
(208,23,c),
(255,344,l),
(279,378,o),
(308,399,o),
(343,399,c),
(368,399,o),
(382,390,o),
(382,367,c),
(382,364,o),
(382,361,o),
(381,357,c),
(335,31,ls),
(332,12,o),
(341,0,o),
(358,0,c),
(505,0,ls),
(526,0,o),
(531,4,o),
(534,24,c),
(583,369,ls),
(585,381,o),
(586,392,o),
(586,403,c),
(586,488,o),
(534,540,o),
(443,540,c),
(394,540,o),
(344,527,o),
(278,477,c),
(271,472,o),
(268,473,o),
(270,485,c),
(303,720,ls),
(305,736,o),
(301,742,o),
(289,742,c),
(129,742,ls),
(117,742,o),
(109,739,o),
(107,725,c),
(9,31,ls),
(7,13,o),
(16,0,o),
(35,0,c)
);
}
);
};
layerId = "258ED206-D907-4350-8EBA-CBDDA1C16BF7";
shapes = (
{
closed = 1;
nodes = (
(176,0,l),
(200,0,o),
(205,2,o),
(208,23,c),
(255,344,l),
(279,378,o),
(308,399,o),
(343,399,c),
(368,399,o),
(382,390,o),
(382,367,c),
(382,364,o),
(382,361,o),
(381,357,c),
(335,31,ls),
(332,12,o),
(341,0,o),
(358,0,c),
(505,0,ls),
(526,0,o),
(531,4,o),
(534,24,c),
(583,369,ls),
(585,381,o),
(586,392,o),
(586,403,c),
(586,488,o),
(534,540,o),
(443,540,c),
(394,540,o),
(344,527,o),
(278,477,c),
(271,472,o),
(268,473,o),
(270,485,c),
(303,720,ls),
(305,736,o),
(301,742,o),
(289,742,c),
(129,742,ls),
(117,742,o),
(109,739,o),
(107,725,c),
(9,31,ls),
(7,13,o),
(16,0,o),
(35,0,c)
);
}
);
width = 605;
},
{
anchors = (
{
name = bottom;
pos = (266,0);
},
{
name = top;
pos = (362,530);
}
);
background = {
anchors = (
{
name = bottom;
pos = (266,0);
},
{
name = top;
pos = (362,530);
}
);
shapes = (
{
closed = 1;
nodes = (
(86,0,l),
(92,0,o),
(94,2,o),
(95,8,c),
(152,409,l),
(241,470,o),
(292,502,o),
(364,502,c),
(439,502,o),
(470,468,o),
(470,408,c),
(470,399,o),
(469,388,o),
(468,378,c),
(416,10,ls),
(415,4,o),
(419,0,o),
(425,0,c),
(447,0,ls),
(453,0,o),
(455,2,o),
(456,9,c),
(510,392,ls),
(511,401,o),
(512,410,o),
(512,418,c),
(512,491,o),
(464,540,o),
(367,540,c),
(295,540,o),
(248,512,o),
(162,459,c),
(157,456,o),
(155,458,o),
(156,466,c),
(194,733,ls),
(195,739,o),
(192,742,o),
(186,742,c),
(165,742,ls),
(159,742,o),
(158,740,o),
(157,734,c),
(55,10,ls),
(54,4,o),
(58,0,o),
(64,0,c)
);
}
);
};
layerId = "91AB5BCA-6A50-42DA-B2F7-8181BF189245";
shapes = (
{
closed = 1;
nodes = (
(86,0,l),
(92,0,o),
(94,2,o),
(95,8,c),
(152,409,l),
(241,470,o),
(292,502,o),
(364,502,c),
(439,502,o),
(470,468,o),
(470,408,c),
(470,399,o),
(469,388,o),
(468,378,c),
(416,10,ls),
(415,4,o),
(419,0,o),
(425,0,c),
(447,0,ls),
(453,0,o),
(455,2,o),
(456,9,c),
(510,392,ls),
(511,401,o),
(512,410,o),
(512,418,c),
(512,491,o),
(464,540,o),
(367,540,c),
(295,540,o),
(248,512,o),
(162,459,c),
(157,456,o),
(155,458,o),
(156,466,c),
(194,733,ls),
(195,739,o),
(192,742,o),
(186,742,c),
(165,742,ls),
(159,742,o),
(158,740,o),
(157,734,c),
(55,10,ls),
(54,4,o),
(58,0,o),
(64,0,c)
);
}
);
width = 576;
}
);
unicode = 104;
},
{
glyphname = hbar;
kernRight = n;
lastChange = "2024-09-04 11:48:04 +0000";
layers = (
{
background = {
shapes = (
{
closed = 1;
nodes = (
(430,663,l),
(431,674,o),
(423,687,o),
(413,687,c),
(74,687,ls),
(64,687,o),
(62,686,o),
(60,673,c),
(51,608,ls),
(49,593,o),
(56,580,o),
(73,580,c),
(393,580,ls),
(413,580,o),
(418,581,o),
(421,598,c)
);
},
{
pos = (-34,0);
ref = h;
}
);
};
layerId = "258ED206-D907-4350-8EBA-CBDDA1C16BF7";
shapes = (
{
closed = 1;
nodes = (
(400,663,l),
(402,674,o),
(393,687,o),
(383,687,c),
(44,687,ls),
(34,687,o),
(32,686,o),
(30,673,c),
(21,608,ls),
(19,593,o),
(26,580,o),
(43,580,c),
(363,580,ls),
(383,580,o),
(389,581,o),
(391,598,c)
);
},
{
pos = (-34,0);
ref = h;
}
);
width = 571;
},
{
background = {
shapes = (
{
closed = 1;
nodes = (
(364,655,l),
(364,659,o),
(362,662,o),
(359,662,c),
(80,662,ls),
(77,662,o),
(76,661,o),
(75,656,c),
(72,636,ls),
(71,630,o),
(73,627,o),
(79,627,c),
(351,627,ls),
(358,627,o),
(360,628,o),
(361,634,c)
);
},
{
pos = (-37,0);
ref = h;
}
);
};
layerId = "91AB5BCA-6A50-42DA-B2F7-8181BF189245";
shapes = (
{
closed = 1;
nodes = (
(364,655,l),
(364,659,o),
(362,662,o),
(359,662,c),
(80,662,ls),
(77,662,o),
(76,661,o),
(75,656,c),
(72,636,ls),
(71,630,o),
(73,627,o),
(79,627,c),
(351,627,ls),
(358,627,o),
(360,628,o),
(361,634,c)
);
},
{
pos = (-37,0);
ref = h;
}
);
width = 539;
}
);
metricRight = h;
unicode = 295;
},
{
glyphname = i;
lastChange = "2024-09-04 11:48:04 +0000";
layers = (
{
background = {
shapes = (
{
closed = 1;
nodes = (
(275,504,l),
(276,516,o),
(274,530,o),
(263,530,c),
(94,530,ls),
(82,530,o),
(78,528,o),
(76,513,c),
(8,31,ls),
(6,14,o),
(14,0,o),
(34,0,c),
(175,0,ls),
(198,0,o),
(204,2,o),
(207,23,c)
);
},
{
closed = 1;
nodes = (
(304,715,l),
(306,728,o),
(305,742,o),
(294,742,c),
(126,742,ls),
(114,742,o),
(108,734,o),
(106,719,c),
(89,606,ls),
(86,589,o),
(89,574,o),
(104,574,c),
(255,574,ls),
(278,574,o),
(285,577,o),
(288,597,c)
);
}
);
};
layerId = "258ED206-D907-4350-8EBA-CBDDA1C16BF7";
shapes = (
{
closed = 1;
nodes = (
(275,504,l),
(276,516,o),
(274,530,o),
(263,530,c),
(94,530,ls),
(82,530,o),
(78,528,o),
(76,513,c),
(8,31,ls),
(6,14,o),
(14,0,o),
(34,0,c),
(175,0,ls),
(198,0,o),
(204,2,o),
(207,23,c)
);
},
{
closed = 1;
nodes = (
(304,715,l),
(306,728,o),
(305,742,o),
(294,742,c),
(126,742,ls),
(114,742,o),
(108,734,o),
(106,719,c),
(89,606,ls),
(86,589,o),
(89,574,o),
(104,574,c),
(255,574,ls),
(278,574,o),
(285,577,o),
(288,597,c)
);
}
);
width = 282;
},
{
background = {
shapes = (
{
closed = 1;
nodes = (
(167,519,l),
(168,527,o),
(165,530,o),
(158,530,c),
(136,530,ls),
(129,530,o),
(128,529,o),
(127,521,c),
(55,11,ls),
(54,3,o),
(57,0,o),
(66,0,c),
(83,0,ls),
(93,0,o),
(94,1,o),
(95,11,c)
);
},
{
closed = 1;
nodes = (
(201,728,l),
(202,736,o),
(197,742,o),
(190,742,c),
(164,742,ls),
(157,742,o),
(152,738,o),
(151,730,c),
(141,659,ls),
(140,651,o),
(142,644,o),
(151,644,c),
(178,644,ls),
(188,644,o),
(190,649,o),
(191,659,c)
);
}
);
};
layerId = "91AB5BCA-6A50-42DA-B2F7-8181BF189245";
shapes = (
{
closed = 1;
nodes = (
(167,519,l),
(168,527,o),
(165,530,o),
(158,530,c),
(136,530,ls),
(129,530,o),
(128,529,o),
(127,521,c),
(55,11,ls),
(54,3,o),
(57,0,o),
(66,0,c),
(83,0,ls),
(93,0,o),
(94,1,o),
(95,11,c)
);
},
{
closed = 1;
nodes = (
(201,728,l),
(202,736,o),
(197,742,o),
(190,742,c),
(164,742,ls),
(157,742,o),
(152,738,o),
(151,730,c),
(141,659,ls),
(140,651,o),
(142,644,o),
(151,644,c),
(178,644,ls),
(188,644,o),
(190,649,o),
(191,659,c)
);
}
);
width = 222;
}
);
unicode = 105;
},
{
glyphname = idotless;
lastChange = "2024-09-04 11:48:04 +0000";
layers = (
{
anchors = (
{
name = ogonek;
pos = (173,9);
},
{
name = top;
pos = (178,530);
}
);
background = {
anchors = (
{
name = ogonek;
pos = (173,9);
},
{
name = top;
pos = (178,530);
}
);
shapes = (
{
closed = 1;
nodes = (
(275,504,l),
(276,516,o),
(267,530,o),
(256,530,c),
(93,530,ls),
(81,530,o),
(78,528,o),
(76,513,c),
(8,31,ls),
(6,14,o),
(14,0,o),
(34,0,c),
(175,0,ls),
(198,0,o),
(204,2,o),
(207,23,c)
);
}
);
};
layerId = "258ED206-D907-4350-8EBA-CBDDA1C16BF7";
shapes = (
{
closed = 1;
nodes = (
(275,504,l),
(276,516,o),
(267,530,o),
(256,530,c),
(93,530,ls),
(81,530,o),
(78,528,o),
(76,513,c),
(8,31,ls),
(6,14,o),
(14,0,o),
(34,0,c),
(175,0,ls),
(198,0,o),
(204,2,o),
(207,23,c)
);
}
);
width = 282;
},
{
anchors = (
{
name = ogonek;
pos = (88,13);
},
{
name = top;
pos = (148,530);
}
);
background = {
anchors = (
{
name = ogonek;
pos = (88,13);
},
{
name = top;
pos = (148,530);
}
);
shapes = (
{
closed = 1;
nodes = (
(167,519,l),
(168,527,o),
(165,530,o),
(158,530,c),
(136,530,ls),
(129,530,o),
(128,529,o),
(127,521,c),
(55,11,ls),
(54,3,o),
(57,0,o),
(66,0,c),
(83,0,ls),
(93,0,o),
(94,1,o),
(95,11,c)
);
}
);
};
layerId = "91AB5BCA-6A50-42DA-B2F7-8181BF189245";
shapes = (
{
closed = 1;
nodes = (
(167,519,l),
(168,527,o),
(165,530,o),
(158,530,c),
(136,530,ls),
(129,530,o),
(128,529,o),
(127,521,c),
(55,11,ls),
(54,3,o),
(57,0,o),
(66,0,c),
(83,0,ls),
(93,0,o),
(94,1,o),
(95,11,c)
);
}
);
width = 222;
}
);
unicode = 305;
},
{
glyphname = j;
kernLeft = j;
kernRight = j;
lastChange = "2024-09-04 11:48:04 +0000";
layers = (
{
background = {
shapes = (
{
closed = 1;
nodes = (
(208,23,l),
(276,504,ls),
(277,516,o),
(269,530,o),
(257,530,c),
(95,530,ls),
(83,530,o),
(79,528,o),
(77,513,c),
(11,42,ls),
(6,8,o),
(-11,-4,o),
(-24,-8,c),
(-60,-15,ls),
(-74,-18,o),
(-78,-26,o),
(-79,-37,c),
(-93,-139,ls),
(-96,-160,o),
(-81,-170,o),
(-21,-170,c),
(117,-170,o),
(189,-109,o),
(208,23,c)
);
},
{
closed = 1;
nodes = (
(304,715,l),
(306,728,o),
(305,742,o),
(294,742,c),
(126,742,ls),
(114,742,o),
(108,734,o),
(106,719,c),
(89,606,ls),
(86,589,o),
(89,574,o),
(104,574,c),
(255,574,ls),
(278,574,o),
(285,577,o),
(288,597,c)
);
}
);
};
layerId = "258ED206-D907-4350-8EBA-CBDDA1C16BF7";
shapes = (
{
closed = 1;
nodes = (
(208,23,l),
(276,504,ls),
(277,516,o),
(269,530,o),
(257,530,c),
(95,530,ls),
(83,530,o),
(79,528,o),
(77,513,c),
(11,42,ls),
(6,8,o),
(-11,-4,o),
(-24,-8,c),
(-60,-15,ls),
(-74,-18,o),
(-78,-26,o),
(-79,-37,c),
(-93,-139,ls),
(-96,-160,o),
(-81,-170,o),
(-21,-170,c),
(117,-170,o),
(189,-109,o),
(208,23,c)
);
},
{
closed = 1;
nodes = (
(304,715,l),
(306,728,o),
(305,742,o),
(294,742,c),
(126,742,ls),
(114,742,o),
(108,734,o),
(106,719,c),
(89,606,ls),
(86,589,o),
(89,574,o),
(104,574,c),
(255,574,ls),
(278,574,o),
(285,577,o),
(288,597,c)
);
}
);
width = 283;
},
{
background = {
shapes = (
{
closed = 1;
nodes = (
(86,-52,l),
(167,519,ls),
(168,526,o),
(165,530,o),
(159,530,c),
(137,530,ls),
(130,530,o),
(128,528,o),
(127,521,c),
(47,-45,ls),
(38,-109,o),
(13,-132,o),
(-40,-133,c),
(-98,-134,ls),
(-102,-134,o),
(-103,-135,o),
(-104,-139,c),
(-107,-160,ls),
(-108,-168,o),
(-101,-170,o),
(-41,-170,c),
(49,-170,o),
(75,-134,o),
(86,-52,c)
);
},
{
closed = 1;
nodes = (
(201,728,l),
(202,736,o),
(197,742,o),
(190,742,c),
(164,742,ls),
(157,742,o),
(152,738,o),
(151,730,c),
(141,659,ls),
(140,651,o),
(142,644,o),
(151,644,c),
(178,644,ls),
(188,644,o),
(190,649,o),
(191,659,c)
);
}
);
};
layerId = "91AB5BCA-6A50-42DA-B2F7-8181BF189245";
shapes = (
{
closed = 1;
nodes = (
(86,-52,l),
(167,519,ls),
(168,526,o),
(165,530,o),
(159,530,c),
(137,530,ls),
(130,530,o),
(128,528,o),
(127,521,c),
(47,-45,ls),
(38,-109,o),
(13,-132,o),
(-40,-133,c),
(-98,-134,ls),
(-102,-134,o),
(-103,-135,o),
(-104,-139,c),
(-107,-160,ls),
(-108,-168,o),
(-101,-170,o),
(-41,-170,c),
(49,-170,o),
(75,-134,o),
(86,-52,c)
);
},
{
closed = 1;
nodes = (
(201,728,l),
(202,736,o),
(197,742,o),
(190,742,c),
(164,742,ls),
(157,742,o),
(152,738,o),
(151,730,c),
(141,659,ls),
(140,651,o),
(142,644,o),
(151,644,c),
(178,644,ls),
(188,644,o),
(190,649,o),
(191,659,c)
);
}
);
width = 222;
}
);
unicode = 106;
},
{
glyphname = jdotless;
kernLeft = j;
kernRight = j;
lastChange = "2024-09-04 11:48:04 +0000";
layers = (
{
anchors = (
{
name = top;
pos = (166,530);
}
);
background = {
anchors = (
{
name = top;
pos = (175,530);
}
);
shapes = (
{
closed = 1;
nodes = (
(198,23,l),
(266,504,ls),
(267,516,o),
(259,530,o),
(247,530,c),
(85,530,ls),
(73,530,o),
(69,528,o),
(67,513,c),
(1,42,ls),
(-4,8,o),
(-21,-4,o),
(-34,-8,c),
(-60,-15,ls),
(-74,-18,o),
(-78,-26,o),
(-79,-37,c),
(-93,-139,ls),
(-96,-160,o),
(-81,-170,o),
(-31,-170,c),
(82,-170,o),
(179,-109,o),
(198,23,c)
);
}
);
};
layerId = "258ED206-D907-4350-8EBA-CBDDA1C16BF7";
shapes = (
{
closed = 1;
nodes = (
(198,23,l),
(266,504,ls),
(267,516,o),
(259,530,o),
(247,530,c),
(85,530,ls),
(73,530,o),
(69,528,o),
(67,513,c),
(1,42,ls),
(-4,8,o),
(-21,-4,o),
(-34,-8,c),
(-60,-15,ls),
(-74,-18,o),
(-78,-26,o),
(-79,-37,c),
(-93,-139,ls),
(-96,-160,o),
(-81,-170,o),
(-31,-170,c),
(82,-170,o),
(179,-109,o),
(198,23,c)
);
}
);
width = 273;
},
{
anchors = (
{
name = top;
pos = (148,530);
}
);
background = {
anchors = (
{
name = top;
pos = (148,530);
}
);
shapes = (
{
closed = 1;
nodes = (
(86,-52,l),
(167,519,ls),
(168,526,o),
(165,530,o),
(159,530,c),
(137,530,ls),
(130,530,o),
(128,528,o),
(127,521,c),
(47,-45,ls),
(38,-109,o),
(13,-132,o),
(-40,-133,c),
(-98,-134,ls),
(-102,-134,o),
(-103,-135,o),
(-104,-139,c),
(-107,-160,ls),
(-108,-168,o),
(-101,-170,o),
(-41,-170,c),
(49,-170,o),
(75,-134,o),
(86,-52,c)
);
}
);
};
layerId = "91AB5BCA-6A50-42DA-B2F7-8181BF189245";
shapes = (
{
closed = 1;
nodes = (
(86,-52,l),
(167,519,ls),
(168,526,o),
(165,530,o),
(159,530,c),
(137,530,ls),
(130,530,o),
(128,528,o),
(127,521,c),
(47,-45,ls),
(38,-109,o),
(13,-132,o),
(-40,-133,c),
(-98,-134,ls),
(-102,-134,o),
(-103,-135,o),
(-104,-139,c),
(-107,-160,ls),
(-108,-168,o),
(-101,-170,o),
(-41,-170,c),
(49,-170,o),
(75,-134,o),
(86,-52,c)
);
}
);
width = 222;
}
);
unicode = 567;
},
{
glyphname = k;
kernRight = k;
lastChange = "2024-09-04 11:48:04 +0000";
layers = (
{
anchors = (
{
name = bottom;
pos = (265,0);
}
);
background = {
anchors = (
{
name = bottom;
pos = (265,0);
}
);
shapes = (
{
closed = 1;
nodes = (
(579,23,l),
(461,332,ls),
(456,350,o),
(463,357,o),
(473,368,c),
(623,497,ls),
(637,511,o),
(628,530,o),
(605,530,c),
(468,530,ls),
(458,530,o),
(448,527,o),
(436,517,c),
(262,348,ls),
(254,339,o),
(252,334,o),
(253,340,c),
(305,715,ls),
(307,728,o),
(306,742,o),
(294,742,c),
(124,742,ls),
(113,742,o),
(109,740,o),
(107,725,c),
(9,31,ls),
(7,14,o),
(15,0,o),
(36,0,c),
(177,0,ls),
(200,0,o),
(205,2,o),
(208,23,c),
(222,124,ls),
(224,140,o),
(232,149,o),
(238,154,c),
(292,203,ls),
(303,213,o),
(310,212,o),
(314,199,c),
(362,31,ls),
(367,15,o),
(375,0,o),
(392,0,c),
(563,0,ls),
(581,0,o),
(583,12,o),
(579,23,c)
);
}
);
};
layerId = "258ED206-D907-4350-8EBA-CBDDA1C16BF7";
shapes = (
{
closed = 1;
nodes = (
(579,23,l),
(461,332,ls),
(456,350,o),
(463,357,o),
(473,368,c),
(623,497,ls),
(637,511,o),
(628,530,o),
(605,530,c),
(468,530,ls),
(458,530,o),
(448,527,o),
(436,517,c),
(262,348,ls),
(254,339,o),
(252,334,o),
(253,340,c),
(305,715,ls),
(307,728,o),
(306,742,o),
(294,742,c),
(124,742,ls),
(113,742,o),
(109,740,o),
(107,725,c),
(9,31,ls),
(7,14,o),
(15,0,o),
(36,0,c),
(177,0,ls),
(200,0,o),
(205,2,o),
(208,23,c),
(222,124,ls),
(224,140,o),
(232,149,o),
(238,154,c),
(292,203,ls),
(303,213,o),
(310,212,o),
(314,199,c),
(362,31,ls),
(367,15,o),
(375,0,o),
(392,0,c),
(563,0,ls),
(581,0,o),
(583,12,o),
(579,23,c)
);
}
);
width = 631;
},
{
anchors = (
{
name = bottom;
pos = (236,0);
}
);
background = {
anchors = (
{
name = bottom;
pos = (236,0);
}
);
shapes = (
{
closed = 1;
nodes = (
(467,11,l),
(314,330,ls),
(312,335,o),
(315,338,o),
(319,341,c),
(512,514,ls),
(522,523,o),
(520,530,o),
(510,530,c),
(478,530,ls),
(471,530,o),
(468,529,o),
(460,521,c),
(135,230,ls),
(126,222,o),
(125,221,o),
(127,233,c),
(196,731,ls),
(198,739,o),
(195,742,o),
(188,742,c),
(166,742,ls),
(159,742,o),
(158,741,o),
(157,733,c),
(55,11,ls),
(54,3,o),
(57,0,o),
(66,0,c),
(83,0,ls),
(93,0,o),
(94,1,o),
(95,11,c),
(115,151,ls),
(116,158,o),
(120,163,o),
(125,168,c),
(272,298,ls),
(277,303,o),
(278,303,o),
(280,300,c),
(421,8,ls),
(423,3,o),
(426,0,o),
(432,0,c),
(463,0,ls),
(472,0,o),
(471,3,o),
(467,11,c)
);
}
);
};
layerId = "91AB5BCA-6A50-42DA-B2F7-8181BF189245";
shapes = (
{
closed = 1;
nodes = (
(467,11,l),
(314,330,ls),
(312,335,o),
(315,338,o),
(319,341,c),
(512,514,ls),
(522,523,o),
(520,530,o),
(510,530,c),
(478,530,ls),
(471,530,o),
(468,529,o),
(460,521,c),
(135,230,ls),
(126,222,o),
(125,221,o),
(127,233,c),
(196,731,ls),
(198,739,o),
(195,742,o),
(188,742,c),
(166,742,ls),
(159,742,o),
(158,741,o),
(157,733,c),
(55,11,ls),
(54,3,o),
(57,0,o),
(66,0,c),
(83,0,ls),
(93,0,o),
(94,1,o),
(95,11,c),
(115,151,ls),
(116,158,o),
(120,163,o),
(125,168,c),
(272,298,ls),
(277,303,o),
(278,303,o),
(280,300,c),
(421,8,ls),
(423,3,o),
(426,0,o),
(432,0,c),
(463,0,ls),
(472,0,o),
(471,3,o),
(467,11,c)
);
}
);
width = 538;
}
);
unicode = 107;
},
{
glyphname = kgreenlandic;
kernRight = k;
lastChange = "2024-09-04 11:48:04 +0000";
layers = (
{
background = {
shapes = (
{
closed = 1;
nodes = (
(579,23,l),
(461,332,ls),
(456,350,o),
(463,357,o),
(473,368,c),
(623,497,ls),
(637,511,o),
(628,530,o),
(605,530,c),
(468,530,ls),
(458,530,o),
(448,527,o),
(436,517,c),
(262,348,ls),
(254,339,o),
(252,334,o),
(253,340,c),
(275,503,ls),
(277,516,o),
(269,530,o),
(257,530,c),
(94,530,ls),
(83,530,o),
(79,528,o),
(77,513,c),
(9,31,ls),
(7,14,o),
(15,0,o),
(36,0,c),
(177,0,ls),
(200,0,o),
(205,2,o),
(208,23,c),
(222,124,ls),
(224,140,o),
(232,149,o),
(238,154,c),
(294,199,ls),
(304,209,o),
(309,216,o),
(313,203,c),
(362,31,ls),
(365,15,o),
(375,0,o),
(392,0,c),
(563,0,ls),
(581,0,o),
(583,12,o),
(579,23,c)
);
}
);
};
layerId = "258ED206-D907-4350-8EBA-CBDDA1C16BF7";
shapes = (
{
closed = 1;
nodes = (
(579,23,l),
(461,332,ls),
(456,350,o),
(463,357,o),
(473,368,c),
(623,497,ls),
(637,511,o),
(628,530,o),
(605,530,c),
(468,530,ls),
(458,530,o),
(448,527,o),
(436,517,c),
(262,348,ls),
(254,339,o),
(252,334,o),
(253,340,c),
(275,503,ls),
(277,516,o),
(269,530,o),
(257,530,c),
(94,530,ls),
(83,530,o),
(79,528,o),
(77,513,c),
(9,31,ls),
(7,14,o),
(15,0,o),
(36,0,c),
(177,0,ls),
(200,0,o),
(205,2,o),
(208,23,c),
(222,124,ls),
(224,140,o),
(232,149,o),
(238,154,c),
(294,199,ls),
(304,209,o),
(309,216,o),
(313,203,c),
(362,31,ls),
(365,15,o),
(375,0,o),
(392,0,c),
(563,0,ls),
(581,0,o),
(583,12,o),
(579,23,c)
);
}
);
width = 631;
},
{
background = {
shapes = (
{
closed = 1;
nodes = (
(467,11,l),
(314,330,ls),
(312,335,o),
(315,338,o),
(319,341,c),
(512,514,ls),
(522,523,o),
(520,530,o),
(510,530,c),
(478,530,ls),
(471,530,o),
(468,529,o),
(460,521,c),
(135,230,ls),
(126,222,o),
(125,221,o),
(127,233,c),
(167,519,ls),
(168,527,o),
(165,530,o),
(158,530,c),
(136,530,ls),
(129,530,o),
(128,529,o),
(127,521,c),
(55,11,ls),
(54,3,o),
(57,0,o),
(66,0,c),
(83,0,ls),
(93,0,o),
(94,1,o),
(95,11,c),
(115,151,ls),
(116,158,o),
(120,163,o),
(125,168,c),
(272,298,ls),
(277,303,o),
(278,303,o),
(280,300,c),
(421,8,ls),
(423,3,o),
(426,0,o),
(432,0,c),
(463,0,ls),
(472,0,o),
(471,3,o),
(467,11,c)
);
}
);
};
layerId = "91AB5BCA-6A50-42DA-B2F7-8181BF189245";
shapes = (
{
closed = 1;
nodes = (
(467,11,l),
(314,330,ls),
(312,335,o),
(315,338,o),
(319,341,c),
(512,514,ls),
(522,523,o),
(520,530,o),
(510,530,c),
(478,530,ls),
(471,530,o),
(468,529,o),
(460,521,c),
(135,230,ls),
(126,222,o),
(125,221,o),
(127,233,c),
(167,519,ls),
(168,527,o),
(165,530,o),
(158,530,c),
(136,530,ls),
(129,530,o),
(128,529,o),
(127,521,c),
(55,11,ls),
(54,3,o),
(57,0,o),
(66,0,c),
(83,0,ls),
(93,0,o),
(94,1,o),
(95,11,c),
(115,151,ls),
(116,158,o),
(120,163,o),
(125,168,c),
(272,298,ls),
(277,303,o),
(278,303,o),
(280,300,c),
(421,8,ls),
(423,3,o),
(426,0,o),
(432,0,c),
(463,0,ls),
(472,0,o),
(471,3,o),
(467,11,c)
);
}
);
width = 538;
}
);
metricLeft = k;
metricRight = k;
unicode = 312;
},
{
glyphname = l;
lastChange = "2024-09-04 11:48:04 +0000";
layers = (
{
anchors = (
{
name = bottom;
pos = (109,0);
},
{
name = top;
pos = (213,742);
},
{
name = topright;
pos = (370,530);
}
);
background = {
anchors = (
{
name = bottom;
pos = (109,0);
},
{
name = top;
pos = (213,742);
},
{
name = topright;
pos = (370,530);
}
);
shapes = (
{
closed = 1;
nodes = (
(306,720,l),
(308,733,o),
(305,742,o),
(294,742,c),
(127,742,ls),
(115,742,o),
(112,740,o),
(110,725,c),
(7,31,ls),
(5,14,o),
(14,0,o),
(34,0,c),
(176,0,ls),
(199,0,o),
(205,2,o),
(208,23,c)
);
}
);
};
layerId = "258ED206-D907-4350-8EBA-CBDDA1C16BF7";
shapes = (
{
closed = 1;
nodes = (
(306,720,l),
(308,733,o),
(305,742,o),
(294,742,c),
(127,742,ls),
(115,742,o),
(112,740,o),
(110,725,c),
(7,31,ls),
(5,14,o),
(14,0,o),
(34,0,c),
(176,0,ls),
(199,0,o),
(205,2,o),
(208,23,c)
);
}
);
width = 284;
},
{
anchors = (
{
name = bottom;
pos = (74,0);
},
{
name = top;
pos = (178,742);
},
{
name = topright;
pos = (323,742);
}
);
background = {
anchors = (
{
name = bottom;
pos = (74,0);
},
{
name = top;
pos = (178,742);
},
{
name = topright;
pos = (323,742);
}
);
shapes = (
{
closed = 1;
nodes = (
(196,731,l),
(198,739,o),
(195,742,o),
(188,742,c),
(166,742,ls),
(159,742,o),
(158,741,o),
(157,733,c),
(55,11,ls),
(54,3,o),
(57,0,o),
(66,0,c),
(83,0,ls),
(93,0,o),
(94,1,o),
(95,11,c)
);
}
);
};
layerId = "91AB5BCA-6A50-42DA-B2F7-8181BF189245";
shapes = (
{
closed = 1;
nodes = (
(196,731,l),
(198,739,o),
(195,742,o),
(188,742,c),
(166,742,ls),
(159,742,o),
(158,741,o),
(157,733,c),
(55,11,ls),
(54,3,o),
(57,0,o),
(66,0,c),
(83,0,ls),
(93,0,o),
(94,1,o),
(95,11,c)
);
}
);
width = 222;
}
);
unicode = 108;
},
{
glyphname = lslash;
lastChange = "2024-09-04 11:48:04 +0000";
layers = (
{
background = {
shapes = (
{
closed = 1;
nodes = (
(375,485,l),
(377,501,o),
(369,514,o),
(350,503,c),
(44,327,ls),
(32,319,o),
(26,311,o),
(24,296,c),
(7,176,ls),
(5,159,o),
(12,147,o),
(34,160,c),
(339,342,ls),
(352,351,o),
(357,360,o),
(359,372,c)
);
},
{
pos = (3,0);
ref = l;
}
);
};
layerId = "258ED206-D907-4350-8EBA-CBDDA1C16BF7";
shapes = (
{
closed = 1;
nodes = (
(375,485,l),
(377,501,o),
(369,514,o),
(350,503,c),
(44,327,ls),
(32,319,o),
(26,311,o),
(24,296,c),
(7,176,ls),
(5,159,o),
(12,147,o),
(34,160,c),
(339,342,ls),
(352,351,o),
(357,360,o),
(359,372,c)
);
},
{
pos = (43,0);
ref = l;
}
);
width = 364;
},
{
background = {
shapes = (
{
closed = 1;
nodes = (
(263,432,l),
(264,436,o),
(262,440,o),
(256,436,c),
(2,226,ls),
(-2,223,o),
(-3,220,o),
(-4,216,c),
(-8,187,ls),
(-9,182,o),
(-7,176,o),
(-1,180,c),
(253,391,ls),
(257,395,o),
(259,398,o),
(259,402,c)
);
},
{
pos = (-27,0);
ref = l;
}
);
};
layerId = "91AB5BCA-6A50-42DA-B2F7-8181BF189245";
shapes = (
{
closed = 1;
nodes = (
(263,432,l),
(264,436,o),
(262,440,o),
(256,436,c),
(2,226,ls),
(-2,223,o),
(-3,220,o),
(-4,216,c),
(-8,187,ls),
(-9,182,o),
(-7,176,o),
(-1,180,c),
(253,391,ls),
(257,395,o),
(259,398,o),
(259,402,c)
);
},
{
pos = (-7,0);
ref = l;
}
);
width = 242;
}
);
unicode = 322;
},
{
glyphname = m;
kernLeft = n;
kernRight = n;
lastChange = "2024-09-04 11:48:04 +0000";
layers = (
{
background = {
shapes = (
{
closed = 1;
nodes = (
(34,0,l),
(175,0,ls),
(199,0,o),
(204,2,o),
(207,23,c),
(254,344,l),
(278,378,o),
(308,399,o),
(342,399,c),
(370,399,o),
(384,387,o),
(380,357,c),
(334,31,ls),
(331,12,o),
(341,0,o),
(357,0,c),
(503,0,ls),
(524,0,o),
(529,4,o),
(532,24,c),
(575,327,ls),
(576,336,o),
(583,347,o),
(590,356,c),
(609,381,o),
(638,399,o),
(667,399,c),
(691,399,o),
(706,389,o),
(706,366,c),
(706,362,o),
(705,355,o),
(704,348,c),
(659,31,ls),
(656,12,o),
(665,0,o),
(682,0,c),
(828,0,ls),
(849,0,o),
(855,4,o),
(858,24,c),
(906,367,ls),
(908,379,o),
(908,389,o),
(908,399,c),
(908,487,o),
(853,540,o),
(769,540,c),
(713,540,o),
(637,502,o),
(592,456,c),
(578,442,o),
(573,441,o),
(571,448,c),
(555,507,o),
(508,541,o),
(442,541,c),
(385,541,o),
(327,511,o),
(276,470,c),
(269,464,o),
(266,467,o),
(267,475,c),
(272,510,ls),
(274,523,o),
(275,530,o),
(263,530,c),
(93,530,ls),
(82,530,o),
(78,527,o),
(76,513,c),
(8,31,ls),
(6,13,o),
(15,0,o),
(34,0,c)
);
}
);
};
guides = (
{
angle = 90;
pos = (324,331);
}
);
layerId = "258ED206-D907-4350-8EBA-CBDDA1C16BF7";
shapes = (
{
closed = 1;
nodes = (
(34,0,l),
(175,0,ls),
(199,0,o),
(204,2,o),
(207,23,c),
(254,344,l),
(278,378,o),
(308,399,o),
(342,399,c),
(370,399,o),
(384,387,o),
(380,357,c),
(334,31,ls),
(331,12,o),
(341,0,o),
(357,0,c),
(503,0,ls),
(524,0,o),
(529,4,o),
(532,24,c),
(575,327,ls),
(576,336,o),
(583,347,o),
(590,356,c),
(609,381,o),
(638,399,o),
(667,399,c),
(691,399,o),
(706,389,o),
(706,366,c),
(706,362,o),
(705,355,o),
(704,348,c),
(659,31,ls),
(656,12,o),
(665,0,o),
(682,0,c),
(828,0,ls),
(849,0,o),
(855,4,o),
(858,24,c),
(906,367,ls),
(908,379,o),
(908,389,o),
(908,399,c),
(908,487,o),
(853,540,o),
(769,540,c),
(713,540,o),
(637,502,o),
(592,456,c),
(578,442,o),
(573,441,o),
(571,448,c),
(555,507,o),
(508,541,o),
(442,541,c),
(385,541,o),
(327,511,o),
(276,470,c),
(269,464,o),
(266,467,o),
(267,475,c),
(272,510,ls),
(274,523,o),
(275,530,o),
(263,530,c),
(93,530,ls),
(82,530,o),
(78,527,o),
(76,513,c),
(8,31,ls),
(6,13,o),
(15,0,o),
(34,0,c)
);
}
);
width = 928;
},
{
background = {
shapes = (
{
closed = 1;
nodes = (
(64,0,l),
(86,0,ls),
(92,0,o),
(94,2,o),
(95,8,c),
(152,409,l),
(237,470,o),
(286,502,o),
(354,502,c),
(433,502,o),
(459,456,o),
(448,378,c),
(396,10,ls),
(395,4,o),
(400,0,o),
(405,0,c),
(427,0,ls),
(432,0,o),
(435,2,o),
(436,9,c),
(490,392,ls),
(492,406,o),
(499,412,o),
(513,422,c),
(556,454,o),
(621,502,o),
(695,502,c),
(763,502,o),
(791,469,o),
(791,410,c),
(791,400,o),
(791,389,o),
(789,378,c),
(737,10,ls),
(736,4,o),
(740,0,o),
(746,0,c),
(768,0,ls),
(774,0,o),
(776,2,o),
(777,9,c),
(831,392,ls),
(832,401,o),
(833,410,o),
(833,419,c),
(833,491,o),
(788,540,o),
(698,540,c),
(630,540,o),
(584,512,o),
(502,459,c),
(495,454,o),
(488,446,o),
(487,452,c),
(481,494,o),
(442,540,o),
(357,540,c),
(289,540,o),
(242,512,o),
(161,459,c),
(156,456,o),
(155,458,o),
(156,464,c),
(164,521,ls),
(165,527,o),
(162,530,o),
(156,530,c),
(135,530,ls),
(129,530,o),
(128,528,o),
(127,522,c),
(55,10,ls),
(54,4,o),
(58,0,o),
(64,0,c)
);
}
);
};
guides = (
{
pos = (271,437);
}
);
layerId = "91AB5BCA-6A50-42DA-B2F7-8181BF189245";
shapes = (
{
closed = 1;
nodes = (
(64,0,l),
(86,0,ls),
(92,0,o),
(94,2,o),
(95,8,c),
(152,409,l),
(237,470,o),
(286,502,o),
(354,502,c),
(433,502,o),
(459,456,o),
(448,378,c),
(396,10,ls),
(395,4,o),
(400,0,o),
(405,0,c),
(427,0,ls),
(432,0,o),
(435,2,o),
(436,9,c),
(490,392,ls),
(492,406,o),
(499,412,o),
(513,422,c),
(556,454,o),
(621,502,o),
(695,502,c),
(763,502,o),
(791,469,o),
(791,410,c),
(791,400,o),
(791,389,o),
(789,378,c),
(737,10,ls),
(736,4,o),
(740,0,o),
(746,0,c),
(768,0,ls),
(774,0,o),
(776,2,o),
(777,9,c),
(831,392,ls),
(832,401,o),
(833,410,o),
(833,419,c),
(833,491,o),
(788,540,o),
(698,540,c),
(630,540,o),
(584,512,o),
(502,459,c),
(495,454,o),
(488,446,o),
(487,452,c),
(481,494,o),
(442,540,o),
(357,540,c),
(289,540,o),
(242,512,o),
(161,459,c),
(156,456,o),
(155,458,o),
(156,464,c),
(164,521,ls),
(165,527,o),
(162,530,o),
(156,530,c),
(135,530,ls),
(129,530,o),
(128,528,o),
(127,522,c),
(55,10,ls),
(54,4,o),
(58,0,o),
(64,0,c)
);
}
);
width = 897;
}
);
unicode = 109;
},
{
glyphname = n;
kernLeft = n;
kernRight = n;
lastChange = "2024-09-04 11:48:04 +0000";
layers = (
{
anchors = (
{
name = bottom;
pos = (267,0);
},
{
name = top;
pos = (341,530);
}
);
background = {
anchors = (
{
name = bottom;
pos = (267,0);
},
{
name = top;
pos = (341,530);
}
);
shapes = (
{
closed = 1;
nodes = (
(25,0,l),
(173,0,ls),
(197,0,o),
(204,2,o),
(207,23,c),
(254,344,l),
(278,378,o),
(307,399,o),
(342,399,c),
(367,399,o),
(382,389,o),
(382,366,c),
(382,363,o),
(381,357,o),
(380,351,c),
(335,31,ls),
(332,12,o),
(333,0,o),
(350,0,c),
(503,0,ls),
(524,0,o),
(531,4,o),
(534,24,c),
(583,372,ls),
(584,382,o),
(585,392,o),
(585,401,c),
(585,484,o),
(529,540,o),
(442,540,c),
(384,540,o),
(326,510,o),
(279,469,c),
(269,460,o),
(266,461,o),
(267,470,c),
(274,515,ls),
(276,528,o),
(272,530,o),
(264,530,c),
(93,530,ls),
(81,530,o),
(78,527,o),
(76,513,c),
(8,31,ls),
(6,13,o),
(8,0,o),
(25,0,c)
);
}
);
};
layerId = "258ED206-D907-4350-8EBA-CBDDA1C16BF7";
shapes = (
{
closed = 1;
nodes = (
(25,0,l),
(173,0,ls),
(197,0,o),
(204,2,o),
(207,23,c),
(254,344,l),
(278,378,o),
(307,399,o),
(342,399,c),
(367,399,o),
(382,389,o),
(382,366,c),
(382,363,o),
(381,357,o),
(380,351,c),
(335,31,ls),
(332,12,o),
(333,0,o),
(350,0,c),
(503,0,ls),
(524,0,o),
(531,4,o),
(534,24,c),
(583,372,ls),
(584,382,o),
(585,392,o),
(585,401,c),
(585,484,o),
(529,540,o),
(442,540,c),
(384,540,o),
(326,510,o),
(279,469,c),
(269,460,o),
(266,461,o),
(267,470,c),
(274,515,ls),
(276,528,o),
(272,530,o),
(264,530,c),
(93,530,ls),
(81,530,o),
(78,527,o),
(76,513,c),
(8,31,ls),
(6,13,o),
(8,0,o),
(25,0,c)
);
}
);
width = 604;
},
{
anchors = (
{
name = bottom;
pos = (256,0);
},
{
name = top;
pos = (340,530);
}
);
background = {
anchors = (
{
name = bottom;
pos = (256,0);
},
{
name = top;
pos = (340,530);
}
);
shapes = (
{
closed = 1;
nodes = (
(64,0,l),
(86,0,ls),
(92,0,o),
(94,2,o),
(95,8,c),
(152,409,l),
(241,470,o),
(292,502,o),
(364,502,c),
(439,502,o),
(470,468,o),
(470,408,c),
(470,399,o),
(469,388,o),
(468,378,c),
(416,10,ls),
(415,4,o),
(419,0,o),
(425,0,c),
(447,0,ls),
(453,0,o),
(455,2,o),
(456,9,c),
(510,392,ls),
(511,401,o),
(512,410,o),
(512,418,c),
(512,491,o),
(464,540,o),
(367,540,c),
(295,540,o),
(233,510,o),
(162,455,c),
(155,450,o),
(154,452,o),
(155,459,c),
(164,521,ls),
(165,527,o),
(162,530,o),
(156,530,c),
(135,530,ls),
(129,530,o),
(128,528,o),
(127,522,c),
(55,10,ls),
(54,4,o),
(58,0,o),
(64,0,c)
);
}
);
};
layerId = "91AB5BCA-6A50-42DA-B2F7-8181BF189245";
shapes = (
{
closed = 1;
nodes = (
(64,0,l),
(86,0,ls),
(92,0,o),
(94,2,o),
(95,8,c),
(152,409,l),
(241,470,o),
(292,502,o),
(364,502,c),
(439,502,o),
(470,468,o),
(470,408,c),
(470,399,o),
(469,388,o),
(468,378,c),
(416,10,ls),
(415,4,o),
(419,0,o),
(425,0,c),
(447,0,ls),
(453,0,o),
(455,2,o),
(456,9,c),
(510,392,ls),
(511,401,o),
(512,410,o),
(512,418,c),
(512,491,o),
(464,540,o),
(367,540,c),
(295,540,o),
(233,510,o),
(162,455,c),
(155,450,o),
(154,452,o),
(155,459,c),
(164,521,ls),
(165,527,o),
(162,530,o),
(156,530,c),
(135,530,ls),
(129,530,o),
(128,528,o),
(127,522,c),
(55,10,ls),
(54,4,o),
(58,0,o),
(64,0,c)
);
}
);
width = 576;
}
);
unicode = 110;
},
{
glyphname = eng;
kernLeft = n;
kernRight = n;
lastChange = "2024-09-04 11:48:04 +0000";
layers = (
{
background = {
shapes = (
{
closed = 1;
nodes = (
(443,540,l),
(385,540,o),
(327,511,o),
(278,470,c),
(270,458,o),
(266,451,o),
(267,459,c),
(274,504,ls),
(275,516,o),
(267,530,o),
(255,530,c),
(97,530,ls),
(85,530,o),
(82,527,o),
(80,513,c),
(8,31,ls),
(6,13,o),
(15,0,o),
(34,0,c),
(177,0,ls),
(201,0,o),
(206,2,o),
(209,23,c),
(256,344,l),
(280,378,o),
(308,399,o),
(343,399,c),
(371,399,o),
(386,387,o),
(382,357,c),
(338,42,ls),
(333,8,o),
(316,-4,o),
(303,-8,c),
(277,-15,ls),
(263,-18,o),
(259,-26,o),
(258,-37,c),
(244,-139,ls),
(241,-160,o),
(256,-170,o),
(306,-170,c),
(419,-170,o),
(516,-109,o),
(535,23,c),
(584,372,ls),
(598,471,o),
(540,540,o),
(443,540,c)
);
}
);
};
layerId = "258ED206-D907-4350-8EBA-CBDDA1C16BF7";
shapes = (
{
closed = 1;
nodes = (
(443,540,l),
(385,540,o),
(327,511,o),
(278,470,c),
(270,458,o),
(266,451,o),
(267,459,c),
(274,504,ls),
(275,516,o),
(267,530,o),
(255,530,c),
(97,530,ls),
(85,530,o),
(82,527,o),
(80,513,c),
(8,31,ls),
(6,13,o),
(15,0,o),
(34,0,c),
(177,0,ls),
(201,0,o),
(206,2,o),
(209,23,c),
(256,344,l),
(280,378,o),
(308,399,o),
(343,399,c),
(371,399,o),
(386,387,o),
(382,357,c),
(338,42,ls),
(333,8,o),
(316,-4,o),
(303,-8,c),
(277,-15,ls),
(263,-18,o),
(259,-26,o),
(258,-37,c),
(244,-139,ls),
(241,-160,o),
(256,-170,o),
(306,-170,c),
(419,-170,o),
(516,-109,o),
(535,23,c),
(584,372,ls),
(598,471,o),
(540,540,o),
(443,540,c)
);
}
);
width = 610;
},
{
background = {
shapes = (
{
closed = 1;
nodes = (
(367,540,l),
(306,540,o),
(258,524,o),
(161,458,c),
(155,452,o),
(154,451,o),
(155,458,c),
(164,521,ls),
(165,527,o),
(162,530,o),
(156,530,c),
(135,530,ls),
(129,530,o),
(128,528,o),
(127,522,c),
(55,10,ls),
(54,4,o),
(58,0,o),
(64,0,c),
(86,0,ls),
(92,0,o),
(94,2,o),
(95,8,c),
(152,407,l),
(225,465,o),
(296,503,o),
(360,503,c),
(454,503,o),
(478,450,o),
(467,372,c),
(408,-45,ls),
(399,-109,o),
(374,-134,o),
(321,-135,c),
(270,-136,ls),
(266,-136,o),
(265,-137,o),
(264,-141,c),
(261,-160,ls),
(260,-168,o),
(267,-170,o),
(320,-170,c),
(399,-170,o),
(437,-124,o),
(449,-42,c),
(510,392,ls),
(522,479,o),
(471,540,o),
(367,540,c)
);
}
);
};
layerId = "91AB5BCA-6A50-42DA-B2F7-8181BF189245";
shapes = (
{
closed = 1;
nodes = (
(367,540,l),
(306,540,o),
(258,524,o),
(161,458,c),
(155,452,o),
(154,451,o),
(155,458,c),
(164,521,ls),
(165,527,o),
(162,530,o),
(156,530,c),
(135,530,ls),
(129,530,o),
(128,528,o),
(127,522,c),
(55,10,ls),
(54,4,o),
(58,0,o),
(64,0,c),
(86,0,ls),
(92,0,o),
(94,2,o),
(95,8,c),
(152,407,l),
(225,465,o),
(296,503,o),
(360,503,c),
(454,503,o),
(478,450,o),
(467,372,c),
(408,-45,ls),
(399,-109,o),
(374,-134,o),
(321,-135,c),
(270,-136,ls),
(266,-136,o),
(265,-137,o),
(264,-141,c),
(261,-160,ls),
(260,-168,o),
(267,-170,o),
(320,-170,c),
(399,-170,o),
(437,-124,o),
(449,-42,c),
(510,392,ls),
(522,479,o),
(471,540,o),
(367,540,c)
);
}
);
width = 578;
}
);
metricLeft = "=n";
metricRight = "=j";
unicode = 331;
},
{
glyphname = o;
kernLeft = o;
kernRight = o;
lastChange = "2024-09-04 11:48:04 +0000";
layers = (
{
anchors = (
{
name = bottom;
pos = (260,0);
},
{
name = ogonek;
pos = (342,10);
},
{
name = top;
pos = (337,530);
},
{
name = topright;
pos = (338,525);
}
);
background = {
anchors = (
{
name = bottom;
pos = (260,0);
},
{
name = ogonek;
pos = (342,10);
},
{
name = top;
pos = (337,530);
}
);
shapes = (
{
closed = 1;
nodes = (
(268,-10,l),
(445,-10,o),
(580,121,o),
(580,298,c),
(580,440,o),
(485,540,o),
(331,540,c),
(165,540,o),
(19,415,o),
(19,228,c),
(19,87,o),
(116,-10,o),
(268,-10,c)
);
},
{
closed = 1;
nodes = (
(271,118,l),
(234,118,o),
(217,140,o),
(217,193,c),
(217,345,o),
(269,416,o),
(329,416,c),
(367,416,o),
(384,393,o),
(384,339,c),
(384,189,o),
(333,118,o),
(271,118,c)
);
}
);
};
layerId = "258ED206-D907-4350-8EBA-CBDDA1C16BF7";
shapes = (
{
closed = 1;
nodes = (
(268,-10,l),
(445,-10,o),
(580,121,o),
(580,298,c),
(580,440,o),
(485,540,o),
(331,540,c),
(165,540,o),
(19,415,o),
(19,228,c),
(19,87,o),
(116,-10,o),
(268,-10,c)
);
},
{
closed = 1;
nodes = (
(271,118,l),
(234,118,o),
(217,140,o),
(217,193,c),
(217,345,o),
(269,416,o),
(329,416,c),
(367,416,o),
(384,393,o),
(384,339,c),
(384,189,o),
(333,118,o),
(271,118,c)
);
}
);
width = 600;
},
{
anchors = (
{
name = bottom;
pos = (261,0);
},
{
name = ogonek;
pos = (327,10);
},
{
name = top;
pos = (338,530);
},
{
name = topright;
pos = (278,530);
}
);
background = {
anchors = (
{
name = bottom;
pos = (261,0);
},
{
name = ogonek;
pos = (327,10);
},
{
name = top;
pos = (338,530);
}
);
shapes = (
{
closed = 1;
nodes = (
(262,-10,l),
(419,-10,o),
(545,125,o),
(545,313,c),
(545,449,o),
(467,540,o),
(337,540,c),
(179,540,o),
(52,400,o),
(52,211,c),
(52,78,o),
(131,-10,o),
(262,-10,c)
);
},
{
closed = 1;
nodes = (
(266,28,l),
(158,28,o),
(94,101,o),
(94,214,c),
(94,381,o),
(200,502,o),
(335,502,c),
(441,502,o),
(503,429,o),
(503,315,c),
(503,145,o),
(401,28,o),
(266,28,c)
);
}
);
};
layerId = "91AB5BCA-6A50-42DA-B2F7-8181BF189245";
shapes = (
{
closed = 1;
nodes = (
(262,-10,l),
(419,-10,o),
(545,125,o),
(545,313,c),
(545,449,o),
(467,540,o),
(337,540,c),
(179,540,o),
(52,400,o),
(52,211,c),
(52,78,o),
(131,-10,o),
(262,-10,c)
);
},
{
closed = 1;
nodes = (
(266,28,l),
(158,28,o),
(94,101,o),
(94,214,c),
(94,381,o),
(200,502,o),
(335,502,c),
(441,502,o),
(503,429,o),
(503,315,c),
(503,145,o),
(401,28,o),
(266,28,c)
);
}
);
width = 598;
}
);
unicode = 111;
},
{
glyphname = oslash;
kernLeft = o;
kernRight = o;
lastChange = "2024-09-04 11:48:04 +0000";
layers = (
{
anchors = (
{
name = top;
pos = (339,530);
}
);
background = {
anchors = (
{
name = top;
pos = (339,530);
}
);
shapes = (
{
closed = 1;
nodes = (
(608,458,l),
(618,467,o),
(613,477,o),
(606,485,c),
(576,521,ls),
(570,529,o),
(560,535,o),
(546,524,c),
(-3,73,ls),
(-16,62,o),
(-9,51,o),
(3,36,c),
(20,16,ls),
(31,0,o),
(43,-7,o),
(61,8,c)
);
},
{
pos = (-37,0);
ref = o;
}
);
};
layerId = "258ED206-D907-4350-8EBA-CBDDA1C16BF7";
shapes = (
{
closed = 1;
nodes = (
(608,458,l),
(618,467,o),
(613,477,o),
(606,485,c),
(576,521,ls),
(570,529,o),
(560,535,o),
(546,524,c),
(-3,73,ls),
(-16,62,o),
(-9,51,o),
(3,36,c),
(20,16,ls),
(31,0,o),
(43,-7,o),
(61,8,c)
);
},
{
pos = (-7,0);
ref = o;
}
);
width = 604;
},
{
anchors = (
{
name = top;
pos = (325,530);
}
);
background = {
anchors = (
{
name = top;
pos = (325,530);
}
);
shapes = (
{
closed = 1;
nodes = (
(585,496,l),
(591,501,o),
(589,505,o),
(585,510,c),
(574,523,ls),
(569,530,o),
(564,531,o),
(558,525,c),
(-8,36,ls),
(-16,29,o),
(-15,23,o),
(-10,17,c),
(-1,5,ls),
(3,0,o),
(9,-2,o),
(15,3,c)
);
},
{
pos = (-39,0);
ref = o;
}
);
};
layerId = "91AB5BCA-6A50-42DA-B2F7-8181BF189245";
shapes = (
{
closed = 1;
nodes = (
(585,496,l),
(591,501,o),
(589,505,o),
(585,510,c),
(574,523,ls),
(569,530,o),
(564,531,o),
(558,525,c),
(-8,36,ls),
(-16,29,o),
(-15,23,o),
(-10,17,c),
(-1,5,ls),
(3,0,o),
(9,-2,o),
(15,3,c)
);
},
{
pos = (-11,0);
ref = o;
}
);
width = 575;
}
);
unicode = 248;
},
{
glyphname = oe;
kernLeft = o;
kernRight = e;
lastChange = "2024-09-04 11:48:04 +0000";
layers = (
{
background = {
shapes = (
{
closed = 1;
nodes = (
(268,-10,l),
(329,-10,o),
(387,5,o),
(439,31,c),
(443,38,o),
(450,47,o),
(459,47,c),
(497,12,o),
(553,-10,o),
(622,-10,c),
(730,-10,o),
(799,12,o),
(887,108,c),
(896,124,o),
(889,136,o),
(879,140,c),
(794,177,ls),
(781,182,o),
(780,187,o),
(773,186,c),
(724,139,o),
(690,122,o),
(652,122,c),
(598,122,o),
(560,145,o),
(568,201,c),
(570,218,o),
(581,229,o),
(591,229,c),
(902,229,l),
(919,230,o),
(916,231,o),
(918,243,c),
(944,429,o),
(841,540,o),
(680,540,c),
(626,540,o),
(571,526,o),
(520,499,c),
(511,489,o),
(504,481,o),
(492,484,c),
(455,518,o),
(400,540,o),
(331,540,c),
(177,540,o),
(45,435,o),
(22,273,c),
(-1,109,o),
(100,-10,o),
(268,-10,c)
);
},
{
closed = 1;
nodes = (
(271,118,l),
(222,118,o),
(208,156,o),
(222,255,c),
(237,365,o),
(272,416,o),
(329,416,c),
(379,416,o),
(393,377,o),
(379,277,c),
(364,169,o),
(329,118,o),
(271,118,c)
);
},
{
closed = 1;
nodes = (
(688,423,l),
(734,423,o),
(743,378,o),
(740,357,c),
(738,340,o),
(728,332,o),
(715,332,c),
(589,327,l),
(596,389,o),
(643,423,o),
(688,423,c)
);
}
);
};
layerId = "258ED206-D907-4350-8EBA-CBDDA1C16BF7";
shapes = (
{
closed = 1;
nodes = (
(268,-10,l),
(329,-10,o),
(387,5,o),
(439,31,c),
(443,38,o),
(450,47,o),
(459,47,c),
(497,12,o),
(553,-10,o),
(622,-10,c),
(730,-10,o),
(799,12,o),
(887,108,c),
(896,124,o),
(889,136,o),
(879,140,c),
(794,177,ls),
(781,182,o),
(780,187,o),
(773,186,c),
(724,139,o),
(690,122,o),
(652,122,c),
(598,122,o),
(560,145,o),
(568,201,c),
(570,218,o),
(581,229,o),
(591,229,c),
(902,229,l),
(919,230,o),
(916,231,o),
(918,243,c),
(944,429,o),
(841,540,o),
(680,540,c),
(626,540,o),
(571,526,o),
(520,499,c),
(511,489,o),
(504,481,o),
(492,484,c),
(455,518,o),
(400,540,o),
(331,540,c),
(177,540,o),
(45,435,o),
(22,273,c),
(-1,109,o),
(100,-10,o),
(268,-10,c)
);
},
{
closed = 1;
nodes = (
(271,118,l),
(222,118,o),
(208,156,o),
(222,255,c),
(237,365,o),
(272,416,o),
(329,416,c),
(379,416,o),
(393,377,o),
(379,277,c),
(364,169,o),
(329,118,o),
(271,118,c)
);
},
{
closed = 1;
nodes = (
(688,423,l),
(734,423,o),
(743,378,o),
(740,357,c),
(738,340,o),
(728,332,o),
(715,332,c),
(589,327,l),
(596,389,o),
(643,423,o),
(688,423,c)
);
}
);
width = 940;
},
{
background = {
shapes = (
{
closed = 1;
nodes = (
(262,-10,l),
(357,-10,o),
(438,36,o),
(490,115,c),
(499,132,o),
(504,133,o),
(509,122,c),
(536,40,o),
(607,-10,o),
(704,-10,c),
(797,-10,o),
(872,26,o),
(929,98,c),
(931,103,o),
(930,107,o),
(927,109,c),
(906,124,l),
(903,127,o),
(900,128,o),
(895,123,c),
(850,62,o),
(787,29,o),
(706,29,c),
(598,29,o),
(521,122,o),
(537,234,c),
(538,247,o),
(545,254,o),
(555,254,c),
(952,254,ls),
(965,254,o),
(969,261,o),
(971,269,c),
(994,438,o),
(923,540,o),
(775,540,c),
(680,540,o),
(595,488,o),
(546,404,c),
(541,394,o),
(536,392,o),
(532,400,c),
(507,487,o),
(437,540,o),
(337,540,c),
(192,540,o),
(79,429,o),
(56,264,c),
(33,99,o),
(114,-10,o),
(262,-10,c)
);
},
{
closed = 1;
nodes = (
(266,29,l),
(145,29,o),
(78,122,o),
(98,262,c),
(118,404,o),
(213,501,o),
(335,501,c),
(453,501,o),
(520,406,o),
(500,266,c),
(480,123,o),
(388,29,o),
(266,29,c)
);
},
{
closed = 1;
nodes = (
(775,501,l),
(886,501,o),
(950,415,o),
(935,306,c),
(933,294,o),
(929,290,o),
(915,290,c),
(548,290,l),
(564,411,o),
(660,501,o),
(775,501,c)
);
}
);
};
layerId = "91AB5BCA-6A50-42DA-B2F7-8181BF189245";
shapes = (
{
closed = 1;
nodes = (
(262,-10,l),
(357,-10,o),
(438,36,o),
(490,115,c),
(499,132,o),
(504,133,o),
(509,122,c),
(536,40,o),
(607,-10,o),
(704,-10,c),
(797,-10,o),
(872,26,o),
(929,98,c),
(931,103,o),
(930,107,o),
(927,109,c),
(906,124,l),
(903,127,o),
(900,128,o),
(895,123,c),
(850,62,o),
(787,29,o),
(706,29,c),
(598,29,o),
(521,122,o),
(537,234,c),
(538,247,o),
(545,254,o),
(555,254,c),
(952,254,ls),
(965,254,o),
(969,261,o),
(971,269,c),
(994,438,o),
(923,540,o),
(775,540,c),
(680,540,o),
(595,488,o),
(546,404,c),
(541,394,o),
(536,392,o),
(532,400,c),
(507,487,o),
(437,540,o),
(337,540,c),
(192,540,o),
(79,429,o),
(56,264,c),
(33,99,o),
(114,-10,o),
(262,-10,c)
);
},
{
closed = 1;
nodes = (
(266,29,l),
(145,29,o),
(78,122,o),
(98,262,c),
(118,404,o),
(213,501,o),
(335,501,c),
(453,501,o),
(520,406,o),
(500,266,c),
(480,123,o),
(388,29,o),
(266,29,c)
);
},
{
closed = 1;
nodes = (
(775,501,l),
(886,501,o),
(950,415,o),
(935,306,c),
(933,294,o),
(929,290,o),
(915,290,c),
(548,290,l),
(564,411,o),
(660,501,o),
(775,501,c)
);
}
);
width = 1019;
}
);
metricLeft = o;
metricRight = e;
unicode = 339;
},
{
glyphname = p;
kernLeft = p;
kernRight = b;
lastChange = "2024-09-04 11:48:04 +0000";
layers = (
{
background = {
shapes = (
{
closed = 1;
nodes = (
(-5,-165,l),
(167,-165,ls),
(179,-165,o),
(181,-164,o),
(183,-151,c),
(208,30,ls),
(211,50,o),
(219,67,o),
(232,51,c),
(266,9,o),
(310,-10,o),
(359,-10,c),
(538,-10,o),
(597,182,o),
(597,329,c),
(597,471,o),
(527,540,o),
(428,540,c),
(370,540,o),
(335,523,o),
(290,492,c),
(280,485,o),
(269,482,o),
(270,490,c),
(273,511,ls),
(275,528,o),
(268,530,o),
(249,530,c),
(101,530,ls),
(80,530,o),
(78,527,o),
(75,510,c),
(-15,-137,ls),
(-18,-152,o),
(-16,-165,o),
(-5,-165,c)
);
},
{
closed = 1;
nodes = (
(281,111,l),
(253,111,o),
(236,122,o),
(222,146,c),
(254,357,ls),
(258,389,o),
(298,419,o),
(341,419,c),
(378,419,o),
(399,404,o),
(399,345,c),
(399,269,o),
(379,111,o),
(281,111,c)
);
}
);
};
layerId = "258ED206-D907-4350-8EBA-CBDDA1C16BF7";
shapes = (
{
closed = 1;
nodes = (
(-5,-165,l),
(167,-165,ls),
(179,-165,o),
(181,-164,o),
(183,-151,c),
(208,30,ls),
(211,50,o),
(219,67,o),
(232,51,c),
(266,9,o),
(310,-10,o),
(359,-10,c),
(538,-10,o),
(597,182,o),
(597,329,c),
(597,471,o),
(527,540,o),
(428,540,c),
(370,540,o),
(335,523,o),
(290,492,c),
(280,485,o),
(269,482,o),
(270,490,c),
(273,511,ls),
(275,528,o),
(268,530,o),
(249,530,c),
(101,530,ls),
(80,530,o),
(78,527,o),
(75,510,c),
(-15,-137,ls),
(-18,-152,o),
(-16,-165,o),
(-5,-165,c)
);
},
{
closed = 1;
nodes = (
(281,111,l),
(253,111,o),
(236,122,o),
(222,146,c),
(254,357,ls),
(258,389,o),
(298,419,o),
(341,419,c),
(378,419,o),
(399,404,o),
(399,345,c),
(399,269,o),
(379,111,o),
(281,111,c)
);
}
);
width = 617;
},
{
background = {
shapes = (
{
closed = 1;
nodes = (
(40,-165,l),
(63,-165,ls),
(70,-165,o),
(71,-163,o),
(72,-156,c),
(98,32,ls),
(100,45,o),
(105,50,o),
(116,41,c),
(140,17,o),
(186,-10,o),
(255,-10,c),
(441,-10,o),
(537,171,o),
(537,331,c),
(537,470,o),
(455,540,o),
(341,540,c),
(238,540,o),
(186,482,o),
(168,466,c),
(159,458,o),
(156,459,o),
(157,467,c),
(165,518,ls),
(166,525,o),
(162,530,o),
(155,530,c),
(139,530,ls),
(130,530,o),
(128,528,o),
(127,519,c),
(32,-155,ls),
(31,-161,o),
(35,-165,o),
(40,-165,c)
);
},
{
closed = 1;
nodes = (
(256,28,l),
(196,28,o),
(150,56,o),
(107,103,c),
(145,363,ls),
(153,423,o),
(233,502,o),
(334,502,c),
(422,502,o),
(495,446,o),
(495,323,c),
(495,179,o),
(408,28,o),
(256,28,c)
);
}
);
};
layerId = "91AB5BCA-6A50-42DA-B2F7-8181BF189245";
shapes = (
{
closed = 1;
nodes = (
(40,-165,l),
(63,-165,ls),
(70,-165,o),
(71,-163,o),
(72,-156,c),
(98,32,ls),
(100,45,o),
(105,50,o),
(116,41,c),
(140,17,o),
(186,-10,o),
(255,-10,c),
(441,-10,o),
(537,171,o),
(537,331,c),
(537,470,o),
(455,540,o),
(341,540,c),
(238,540,o),
(186,482,o),
(168,466,c),
(159,458,o),
(156,459,o),
(157,467,c),
(165,518,ls),
(166,525,o),
(162,530,o),
(155,530,c),
(139,530,ls),
(130,530,o),
(128,528,o),
(127,519,c),
(32,-155,ls),
(31,-161,o),
(35,-165,o),
(40,-165,c)
);
},
{
closed = 1;
nodes = (
(256,28,l),
(196,28,o),
(150,56,o),
(107,103,c),
(145,363,ls),
(153,423,o),
(233,502,o),
(334,502,c),
(422,502,o),
(495,446,o),
(495,323,c),
(495,179,o),
(408,28,o),
(256,28,c)
);
}
);
width = 590;
}
);
unicode = 112;
},
